<?xml version="1.0" standalone="no"?>
<!DOCTYPE svg PUBLIC "-//W3C//DTD SVG 20010904//EN"
 "http://www.w3.org/TR/2001/REC-SVG-20010904/DTD/svg10.dtd">
<svg version="1.0" xmlns="http://www.w3.org/2000/svg"
 width="156.000000pt" height="156.000000pt" viewBox="0 0 156.000000 156.000000"
 preserveAspectRatio="xMidYMid meet">
<metadata>
Created by potrace 1.11, written by Peter Selinger 2001-2013
</metadata>
<g transform="translate(0.000000,156.000000) scale(0.100000,-0.100000)"
fill="#000000" stroke="none">
<path d="M670 1554 c-205 -39 -391 -148 -502 -293 -60 -79 -119 -200 -144
-296 -27 -102 -25 -283 4 -388 95 -336 383 -562 728 -572 89 -2 122 1 220 21
105 21 301 136 369 216 96 112 159 228 191 348 27 100 25 292 -5 395 -25 90
-79 197 -142 280 -85 113 -273 236 -414 270 -61 15 -259 27 -305 19z"/>
</g>
</svg>
