<svg id="Component_70_1" data-name="Component 70 – 1" xmlns="http://www.w3.org/2000/svg" width="469" height="417" viewBox="0 0 469 417">
  <defs>
    <style>
      .cls-1, .cls-2 {
        fill: #fff;
      }

      .cls-1 {
        stroke: #707070;
      }

      .cls-3, .cls-5, .cls-6, .cls-8 {
        fill: none;
      }

      .cls-3 {
        stroke: #f71939;
      }

      .cls-3, .cls-5 {
        stroke-linecap: round;
        stroke-width: 2px;
      }

      .cls-4 {
        fill: #fcced5;
      }

      .cls-5 {
        stroke: #ff778a;
      }

      .cls-10, .cls-7, .cls-9 {
        stroke: none;
      }

      .cls-9 {
        fill: #f71939;
      }

      .cls-10 {
        fill: #ff778a;
      }
    </style>
  </defs>
  <g id="Rectangle_13" data-name="Rectangle 13" class="cls-1">
    <rect class="cls-7" width="469" height="417"/>
    <rect class="cls-8" x="0.5" y="0.5" width="468" height="416"/>
  </g>
  <g id="Group_17" data-name="Group 17" transform="translate(-7095.788 -5994.788)">
    <g id="Path_566" data-name="Path 566" class="cls-2" transform="translate(7441.236 6093.286) rotate(125)">
      <path class="cls-7" d="M 22.22237968444824 56.57592391967773 C 22.1057300567627 56.57592391967773 21.98740005493164 56.57427215576172 21.87067985534668 56.57102203369141 C 19.43772125244141 56.50320434570313 17.05095100402832 55.73977279663086 14.77667045593262 54.30195236206055 C 12.5435209274292 52.89014434814453 10.51206016540527 50.892822265625 8.738700866699219 48.36547470092773 C 6.947830677032471 45.81315231323242 5.5142502784729 42.85424423217773 4.477790355682373 39.5709228515625 C 3.40082049369812 36.15928268432617 2.803360462188721 32.54874420166016 2.702030420303345 28.83962440490723 C 2.579920530319214 24.37037467956543 3.212640523910522 19.96037483215332 4.531790256500244 16.08637428283691 C 5.798060417175293 12.36763381958008 7.688870429992676 9.146683692932129 9.999810218811035 6.771743774414063 C 12.88596057891846 3.805663824081421 16.31817054748535 2.237883806228638 19.92539024353027 2.237883806228638 C 20.04158020019531 2.237883806228638 20.15956115722656 2.239523887634277 20.27605056762695 2.242773771286011 C 22.70899963378906 2.310593843460083 25.09576988220215 3.074023962020874 27.37005043029785 4.511843681335449 C 29.60320091247559 5.923654079437256 31.6346607208252 7.920973777770996 33.40802001953125 10.44832420349121 C 35.19889068603516 13.00064373016357 36.63246917724609 15.95955371856689 37.66893005371094 19.24287414550781 C 38.74589920043945 22.6545238494873 39.34334945678711 26.26505470275879 39.44467926025391 29.97418403625488 C 39.58526992797852 35.1198844909668 38.73554229736328 40.09453201293945 36.98735046386719 44.36031341552734 C 35.29587936401367 48.48769378662109 32.81755065917969 51.83787536621094 29.82028007507324 54.04867553710938 C 27.5832405090332 55.70222473144531 24.95621109008789 56.57592391967773 22.22237968444824 56.57592391967773 Z"/>
      <path class="cls-9" d="M 19.92539024353027 3.237884521484375 C 16.59440040588379 3.237884521484375 13.41003036499023 4.701023101806641 10.71652030944824 7.469123840332031 C 6.088840484619141 12.22495269775391 3.466461181640625 20.2037239074707 3.701648712158203 28.81231307983398 C 3.800449371337891 32.42848205566406 4.382419586181641 35.94692230224609 5.431400299072266 39.26989364624023 C 6.437049865722656 42.45561218261719 7.825199127197266 45.32255554199219 9.557289123535156 47.79109191894531 C 11.25434112548828 50.20969390869141 13.1901798248291 52.11588287353516 15.3110408782959 53.45670318603516 C 17.43134117126465 54.79717254638672 19.64768981933594 55.50866317749023 21.89858055114746 55.57141494750977 C 22.00592041015625 55.57440567016602 22.11486053466797 55.57592391967773 22.22237968444824 55.57592391967773 C 24.74067115783691 55.57592391967773 27.16216087341309 54.76994323730469 29.2266902923584 53.24391174316406 C 35.18441009521484 48.84946441650391 38.71668243408203 39.9434814453125 38.44506072998047 30.00148391723633 C 38.34626007080078 26.38531494140625 37.76428985595703 22.86687469482422 36.71530914306641 19.54390335083008 C 35.70965957641602 16.35818481445313 34.32151031494141 13.49123382568359 32.58942031860352 11.022705078125 C 30.89237022399902 8.604095458984375 28.9565315246582 6.697914123535156 26.83568000793457 5.357082366943359 C 24.71537971496582 4.016624450683594 22.49903106689453 3.305133819580078 20.24820137023926 3.242382049560547 C 20.14095115661621 3.239402770996094 20.03234100341797 3.237884521484375 19.92539024353027 3.237884521484375 M 19.92539405822754 1.237880706787109 C 20.05139541625977 1.237880706787109 20.1772346496582 1.239631652832031 20.30391120910645 1.2431640625 C 31.00218963623047 1.541385650634766 40.01935195922852 14.39246368408203 40.44430923461914 29.94686317443848 C 40.74221038818359 40.85050201416016 36.73881912231445 50.18812561035156 30.41387939453125 54.85343551635742 C 28.12313461303711 56.54668426513672 25.27754402160645 57.575927734375 22.22238540649414 57.575927734375 C 22.09617042541504 57.575927734375 21.9697151184082 57.57417297363281 21.84280967712402 57.57063293457031 C 11.14453125 57.27241516113281 2.127361297607422 44.42132568359375 1.702400207519531 28.86693382263184 C 1.282482147216797 13.49670028686523 9.410129547119141 1.237880706787109 19.92539405822754 1.237880706787109 Z"/>
    </g>
    <g id="Path_565" data-name="Path 565" class="cls-2" transform="translate(7427.601 6079.801) rotate(80)">
      <path class="cls-7" d="M 16.41234016418457 34.80533981323242 C 12.31732082366943 34.80533981323242 8.445840835571289 33.17322158813477 5.511080741882324 30.20961952209473 C 3.965660810470581 28.6490306854248 2.75571084022522 26.80538940429688 1.914840817451477 24.72991943359375 C 1.042480826377869 22.57674026489258 0.6119608283042908 20.27693939208984 0.6352508068084717 17.89439010620117 C 0.680020809173584 13.31378078460693 2.408490896224976 8.991600036621094 5.502250671386719 5.724040508270264 C 8.58203125 2.471250295639038 12.64662075042725 0.6554003357887268 16.94728088378906 0.6109803318977356 C 17.00043106079102 0.6104303002357483 17.05475997924805 0.6101503372192383 17.10778045654297 0.6101503372192383 C 21.20280075073242 0.6101503372192383 25.07429122924805 2.242280244827271 28.00905990600586 5.205880165100098 C 29.55448150634766 6.766470432281494 30.76443099975586 8.610110282897949 31.60530090332031 10.68558025360107 C 32.4776611328125 12.83874988555908 32.90818023681641 15.13855075836182 32.88489151000977 17.52108955383301 C 32.84012222290039 22.10171127319336 31.11165046691895 26.42389106750488 28.01788139343262 29.69145011901855 C 24.9381103515625 32.94424057006836 20.87351989746094 34.76010131835938 16.57286071777344 34.80451202392578 C 16.51971054077148 34.80506134033203 16.46537017822266 34.80533981323242 16.41234016418457 34.80533981323242 Z"/>
      <path class="cls-9" d="M 17.10778045654297 1.610149383544922 C 17.0581111907959 1.610149383544922 17.00723075866699 1.610408782958984 16.95761108398438 1.610919952392578 C 8.595769882202148 1.697288513183594 1.722160339355469 9.006410598754883 1.635190963745117 17.90417098999023 C 1.613201141357422 20.15402984619141 2.019121170043945 22.32421112060547 2.841650009155273 24.35441970825195 C 3.632591247558594 26.306640625 4.769781112670898 28.03987121582031 6.221630096435547 29.5059814453125 C 8.967151641845703 32.27846145629883 12.58628082275391 33.80533981323242 16.41234016418457 33.80533981323242 C 16.46201133728027 33.80533981323242 16.51290130615234 33.80508041381836 16.56253051757813 33.80456924438477 C 24.92436218261719 33.71820068359375 31.79796981811523 26.4090690612793 31.88494110107422 17.51131057739258 C 31.90693092346191 15.26144981384277 31.50102043151855 13.09127998352051 30.67848014831543 11.06108093261719 C 29.88754081726074 9.108860015869141 28.7503604888916 7.375629425048828 27.29852104187012 5.909530639648438 C 24.5529899597168 3.137031555175781 20.93385124206543 1.610149383544922 17.10778045654297 1.610149383544922 M 17.10778045654297 -0.3898506164550781 C 26.48651695251465 -0.3898506164550781 33.9819450378418 7.596111297607422 33.88484191894531 17.53086090087891 C 33.78715133666992 27.52540969848633 26.04094123840332 35.70677185058594 16.58319091796875 35.80445861816406 C 16.52661895751953 35.80504608154297 16.46877861022949 35.80534362792969 16.41234397888184 35.80534362792969 C 7.033607482910156 35.80534362792969 -0.4618034362792969 27.81938934326172 -0.3647079467773438 17.88462066650391 C -0.2670173645019531 7.890090942382813 7.47920036315918 -0.2912788391113281 16.93695068359375 -0.3889694213867188 C 16.99352264404297 -0.3895530700683594 17.05134582519531 -0.3898506164550781 17.10778045654297 -0.3898506164550781 Z"/>
    </g>
    <path id="Path_563" data-name="Path 563" class="cls-3" d="M-.246,12.011A38.018,38.018,0,0,0,8.566,6.828,26.847,26.847,0,0,0,14.331-.33" transform="translate(7394.798 6078.759) rotate(80)"/>
    <g id="Path_566-2" data-name="Path 566" class="cls-2" transform="translate(7385.251 6092.312) rotate(-30)">
      <path class="cls-7" d="M 22.54166030883789 55.06293106079102 C 22.42805099487305 55.06293106079102 22.31281089782715 55.06148147583008 22.19915008544922 55.05863189697266 C 19.69391059875488 54.99584197998047 17.23990058898926 54.25226211547852 14.90527057647705 52.84854125976563 C 12.6192102432251 51.47402191162109 10.54242992401123 49.52886199951172 8.732629776000977 47.06710052490234 C 6.906720161437988 44.58341979980469 5.447800159454346 41.7034912109375 4.396400451660156 38.50728225708008 C 3.30413031578064 35.18685150146484 2.70304012298584 31.6721019744873 2.609830141067505 28.06064224243164 C 2.500190258026123 23.81304168701172 3.127840280532837 19.60881233215332 4.424920082092285 15.90245151519775 C 5.670490264892578 12.34326171875 7.533300399780273 9.226051330566406 9.811960220336914 6.887811660766602 C 12.86104011535645 3.759011507034302 16.51860046386719 2.105221509933472 20.38921928405762 2.105221509933472 C 20.50399971008301 2.105221509933472 20.61572074890137 2.106621503829956 20.73076057434082 2.109511375427246 C 23.23600006103516 2.172301530838013 25.69001960754395 2.915881395339966 28.02465057373047 4.319601535797119 C 30.31071090698242 5.694121360778809 32.38748931884766 7.639281272888184 34.19728851318359 10.10104179382324 C 36.02320098876953 12.5847110748291 37.48212051391602 15.46465110778809 38.53351974487305 18.66086196899414 C 39.62578964233398 21.98129081726074 40.22687911987305 25.49605178833008 40.32009124755859 29.10751152038574 C 40.44940948486328 34.11757278442383 39.56597137451172 38.96269989013672 37.7652702331543 43.11911010742188 C 36.02138900756836 47.14438247680664 33.47211074829102 50.41458129882813 30.39301109313965 52.57619094848633 C 28.08028984069824 54.20323181152344 25.36561965942383 55.06293106079102 22.54166030883789 55.06293106079102 Z"/>
      <path class="cls-9" d="M 20.38924026489258 3.105213165283203 C 16.7945499420166 3.105213165283203 13.38463973999023 4.654552459716797 10.52812957763672 7.585742950439453 C 8.350570678710938 9.820220947265625 6.566501617431641 12.81032180786133 5.368782043457031 16.23277282714844 C 4.111301422119141 19.82599258422852 3.502948760986328 23.90708160400391 3.609489440917969 28.03484153747559 C 3.700191497802734 31.54875183105469 4.284542083740234 34.96706390380859 5.346321105957031 38.19480133056641 C 6.364681243896484 41.29053115844727 7.775070190429688 44.07632064819336 9.538330078125 46.47476959228516 C 11.26938056945801 48.82941055297852 13.24843978881836 50.68551254272461 15.42056083679199 51.99151992797852 C 17.60503959655762 53.30496215820313 19.89410972595215 54.00055313110352 22.22421073913574 54.05895233154297 C 22.32961082458496 54.06159210205078 22.43642044067383 54.06293106079102 22.54166030883789 54.06293106079102 C 25.15852928161621 54.06293106079102 27.67424011230469 53.26620101928711 29.81843948364258 51.75774002075195 C 32.74649047851563 49.7021598815918 35.17716217041016 46.57751083374023 36.84767913818359 42.72158050537109 C 38.59095001220703 38.69772338867188 39.44602203369141 33.99897003173828 39.32043075561523 29.1333122253418 C 39.22972869873047 25.61939239501953 38.64537811279297 22.20108032226563 37.58359909057617 18.97334289550781 C 36.56523895263672 15.87761306762695 35.15485000610352 13.09181976318359 33.3915901184082 10.69336318969727 C 31.66054153442383 8.338722229003906 29.68146896362305 6.482620239257813 27.50936126708984 5.176612854003906 C 25.32488059997559 3.863170623779297 23.03580093383789 3.167579650878906 20.70565032958984 3.109180450439453 C 20.59917068481445 3.106510162353516 20.49567031860352 3.105213165283203 20.38924026489258 3.105213165283203 M 20.38923645019531 1.105213165283203 C 20.51177024841309 1.105213165283203 20.6326732635498 1.106723785400391 20.75581932067871 1.109809875488281 C 31.7213306427002 1.384651184082031 40.92811965942383 13.9080924987793 41.31975936889648 29.08171081542969 C 41.59431076049805 39.71842193603516 37.46419906616211 48.83383941650391 30.96759033203125 53.3946418762207 C 28.60929107666016 55.05373382568359 25.68149948120117 56.06292724609375 22.54166030883789 56.06292724609375 C 22.41941261291504 56.06292724609375 22.29696083068848 56.0614013671875 22.1740894317627 56.05832290649414 C 11.20858955383301 55.78348159790039 2.001800537109375 43.26004028320313 1.610160827636719 28.08644104003906 C 1.222908020019531 13.08322906494141 9.600864410400391 1.105213165283203 20.38923645019531 1.105213165283203 Z"/>
    </g>
    <g id="Path_565-2" data-name="Path 565" class="cls-2" transform="translate(7390.828 6110.263) rotate(-75)">
      <path class="cls-7" d="M 18.22681427001953 35.70722961425781 C 18.14824485778809 35.70722961425781 18.07003402709961 35.70663833618164 17.99118423461914 35.70544815063477 C 9.062924385070801 35.57093048095703 1.689484596252441 27.79598808288574 1.554574608802795 18.37381935119629 C 1.520744562149048 16.01108932495117 1.936864614486694 13.73158931732178 2.79138445854187 11.59864902496338 C 3.61489462852478 9.543128967285156 4.805734634399414 7.716448783874512 6.330844402313232 6.169339179992676 C 9.244314193725586 3.213869094848633 13.10732460021973 1.586208939552307 17.20827484130859 1.586208939552307 C 17.28683471679688 1.586208939552307 17.36505508422852 1.586799025535583 17.44390487670898 1.587988972663879 C 26.37216377258301 1.722499012947083 33.74560546875 9.497439384460449 33.88051605224609 18.91961860656738 C 33.91434478759766 21.2823486328125 33.49822616577148 23.56184959411621 32.64370346069336 25.69478988647461 C 31.82019424438477 27.75030899047852 30.62934494018555 29.57698822021484 29.10423469543457 31.12408828735352 C 26.19077491760254 34.07957077026367 22.3277645111084 35.70722961425781 18.22681427001953 35.70722961425781 Z"/>
      <path class="cls-9" d="M 17.20827484130859 2.586208343505859 C 13.37713432312012 2.586208343505859 9.767034530639648 4.108039855957031 7.042995452880859 6.871368408203125 C 5.611635208129883 8.323379516601563 4.493505477905273 10.03898811340332 3.719663619995117 11.97054862976074 C 2.914566040039063 13.9801082611084 2.522544860839844 16.12966918945313 2.554466247558594 18.3595085144043 C 2.681713104248047 27.24629974365234 9.613365173339844 34.57910919189453 18.00616455078125 34.70557022094727 C 18.07999420166016 34.70666885375977 18.15324401855469 34.70722961425781 18.22681427001953 34.70722961425781 C 22.05794525146484 34.70722961425781 25.66804504394531 33.18539810180664 28.39209365844727 30.42206954956055 C 29.82345390319824 28.97005844116211 30.94158554077148 27.25444793701172 31.71542358398438 25.32288932800293 C 32.52052307128906 23.31332778930664 32.91254425048828 21.16376876831055 32.88062286376953 18.93392944335938 C 32.75337600708008 10.04713821411133 25.82172393798828 2.714317321777344 17.42892456054688 2.587867736816406 C 17.35509490966797 2.586769104003906 17.28184509277344 2.586208343505859 17.20827484130859 2.586208343505859 M 17.20827674865723 0.5862083435058594 C 17.29186248779297 0.5862083435058594 17.37507629394531 0.5868339538574219 17.45896530151367 0.5881004333496094 C 26.9377555847168 0.7309074401855469 34.73760604858398 8.931798934936523 34.88041305541992 18.90529823303223 C 35.0219612121582 28.79052352905273 27.58774566650391 36.70722961425781 18.22681045532227 36.70722961425781 C 18.14322662353516 36.70722961425781 18.06001281738281 36.70660400390625 17.97612380981445 36.70533752441406 C 8.497335433959961 36.56251907348633 0.6974830627441406 28.36162948608398 0.5546760559082031 18.38813972473145 C 0.4131278991699219 8.502904891967773 7.847343444824219 0.5862083435058594 17.20827674865723 0.5862083435058594 Z"/>
    </g>
    <path id="Path_563-2" data-name="Path 563" class="cls-3" d="M.374,12.44A35.835,35.835,0,0,0,9.083,7.49a24.953,24.953,0,0,0,5.606-7" transform="translate(7420.218 6124.149) rotate(-75)"/>
    <g id="Path_566-3" data-name="Path 566" class="cls-2" transform="translate(7385.251 6092.312) rotate(-30)">
      <path class="cls-7" d="M 22.54166030883789 55.06293106079102 C 22.42805099487305 55.06293106079102 22.31281089782715 55.06148147583008 22.19915008544922 55.05863189697266 C 19.69391059875488 54.99584197998047 17.23990058898926 54.25226211547852 14.90527057647705 52.84854125976563 C 12.6192102432251 51.47402191162109 10.54242992401123 49.52886199951172 8.732629776000977 47.06710052490234 C 6.906720161437988 44.58341979980469 5.447800159454346 41.7034912109375 4.396400451660156 38.50728225708008 C 3.30413031578064 35.18685150146484 2.70304012298584 31.6721019744873 2.609830141067505 28.06064224243164 C 2.500190258026123 23.81304168701172 3.127840280532837 19.60881233215332 4.424920082092285 15.90245151519775 C 5.670490264892578 12.34326171875 7.533300399780273 9.226051330566406 9.811960220336914 6.887811660766602 C 12.86104011535645 3.759011507034302 16.51860046386719 2.105221509933472 20.38921928405762 2.105221509933472 C 20.50399971008301 2.105221509933472 20.61572074890137 2.106621503829956 20.73076057434082 2.109511375427246 C 23.23600006103516 2.172301530838013 25.69001960754395 2.915881395339966 28.02465057373047 4.319601535797119 C 30.31071090698242 5.694121360778809 32.38748931884766 7.639281272888184 34.19728851318359 10.10104179382324 C 36.02320098876953 12.5847110748291 37.48212051391602 15.46465110778809 38.53351974487305 18.66086196899414 C 39.62578964233398 21.98129081726074 40.22687911987305 25.49605178833008 40.32009124755859 29.10751152038574 C 40.44940948486328 34.11757278442383 39.56597137451172 38.96269989013672 37.7652702331543 43.11911010742188 C 36.02138900756836 47.14438247680664 33.47211074829102 50.41458129882813 30.39301109313965 52.57619094848633 C 28.08028984069824 54.20323181152344 25.36561965942383 55.06293106079102 22.54166030883789 55.06293106079102 Z"/>
      <path class="cls-9" d="M 20.38924026489258 3.105213165283203 C 16.7945499420166 3.105213165283203 13.38463973999023 4.654552459716797 10.52812957763672 7.585742950439453 C 8.350570678710938 9.820220947265625 6.566501617431641 12.81032180786133 5.368782043457031 16.23277282714844 C 4.111301422119141 19.82599258422852 3.502948760986328 23.90708160400391 3.609489440917969 28.03484153747559 C 3.700191497802734 31.54875183105469 4.284542083740234 34.96706390380859 5.346321105957031 38.19480133056641 C 6.364681243896484 41.29053115844727 7.775070190429688 44.07632064819336 9.538330078125 46.47476959228516 C 11.26938056945801 48.82941055297852 13.24843978881836 50.68551254272461 15.42056083679199 51.99151992797852 C 17.60503959655762 53.30496215820313 19.89410972595215 54.00055313110352 22.22421073913574 54.05895233154297 C 22.32961082458496 54.06159210205078 22.43642044067383 54.06293106079102 22.54166030883789 54.06293106079102 C 25.15852928161621 54.06293106079102 27.67424011230469 53.26620101928711 29.81843948364258 51.75774002075195 C 32.74649047851563 49.7021598815918 35.17716217041016 46.57751083374023 36.84767913818359 42.72158050537109 C 38.59095001220703 38.69772338867188 39.44602203369141 33.99897003173828 39.32043075561523 29.1333122253418 C 39.22972869873047 25.61939239501953 38.64537811279297 22.20108032226563 37.58359909057617 18.97334289550781 C 36.56523895263672 15.87761306762695 35.15485000610352 13.09181976318359 33.3915901184082 10.69336318969727 C 31.66054153442383 8.338722229003906 29.68146896362305 6.482620239257813 27.50936126708984 5.176612854003906 C 25.32488059997559 3.863170623779297 23.03580093383789 3.167579650878906 20.70565032958984 3.109180450439453 C 20.59917068481445 3.106510162353516 20.49567031860352 3.105213165283203 20.38924026489258 3.105213165283203 M 20.38923645019531 1.105213165283203 C 20.51177024841309 1.105213165283203 20.6326732635498 1.106723785400391 20.75581932067871 1.109809875488281 C 31.7213306427002 1.384651184082031 40.92811965942383 13.9080924987793 41.31975936889648 29.08171081542969 C 41.59431076049805 39.71842193603516 37.46419906616211 48.83383941650391 30.96759033203125 53.3946418762207 C 28.60929107666016 55.05373382568359 25.68149948120117 56.06292724609375 22.54166030883789 56.06292724609375 C 22.41941261291504 56.06292724609375 22.29696083068848 56.0614013671875 22.1740894317627 56.05832290649414 C 11.20858955383301 55.78348159790039 2.001800537109375 43.26004028320313 1.610160827636719 28.08644104003906 C 1.222908020019531 13.08322906494141 9.600864410400391 1.105213165283203 20.38923645019531 1.105213165283203 Z"/>
    </g>
    <g id="Path_565-3" data-name="Path 565" class="cls-2" transform="translate(7390.828 6110.263) rotate(-75)">
      <path class="cls-7" d="M 18.22681427001953 35.70722961425781 C 18.14824485778809 35.70722961425781 18.07003402709961 35.70663833618164 17.99118423461914 35.70544815063477 C 9.062924385070801 35.57093048095703 1.689484596252441 27.79598808288574 1.554574608802795 18.37381935119629 C 1.520744562149048 16.01108932495117 1.936864614486694 13.73158931732178 2.79138445854187 11.59864902496338 C 3.61489462852478 9.543128967285156 4.805734634399414 7.716448783874512 6.330844402313232 6.169339179992676 C 9.244314193725586 3.213869094848633 13.10732460021973 1.586208939552307 17.20827484130859 1.586208939552307 C 17.28683471679688 1.586208939552307 17.36505508422852 1.586799025535583 17.44390487670898 1.587988972663879 C 26.37216377258301 1.722499012947083 33.74560546875 9.497439384460449 33.88051605224609 18.91961860656738 C 33.91434478759766 21.2823486328125 33.49822616577148 23.56184959411621 32.64370346069336 25.69478988647461 C 31.82019424438477 27.75030899047852 30.62934494018555 29.57698822021484 29.10423469543457 31.12408828735352 C 26.19077491760254 34.07957077026367 22.3277645111084 35.70722961425781 18.22681427001953 35.70722961425781 Z"/>
      <path class="cls-9" d="M 17.20827484130859 2.586208343505859 C 13.37713432312012 2.586208343505859 9.767034530639648 4.108039855957031 7.042995452880859 6.871368408203125 C 5.611635208129883 8.323379516601563 4.493505477905273 10.03898811340332 3.719663619995117 11.97054862976074 C 2.914566040039063 13.9801082611084 2.522544860839844 16.12966918945313 2.554466247558594 18.3595085144043 C 2.681713104248047 27.24629974365234 9.613365173339844 34.57910919189453 18.00616455078125 34.70557022094727 C 18.07999420166016 34.70666885375977 18.15324401855469 34.70722961425781 18.22681427001953 34.70722961425781 C 22.05794525146484 34.70722961425781 25.66804504394531 33.18539810180664 28.39209365844727 30.42206954956055 C 29.82345390319824 28.97005844116211 30.94158554077148 27.25444793701172 31.71542358398438 25.32288932800293 C 32.52052307128906 23.31332778930664 32.91254425048828 21.16376876831055 32.88062286376953 18.93392944335938 C 32.75337600708008 10.04713821411133 25.82172393798828 2.714317321777344 17.42892456054688 2.587867736816406 C 17.35509490966797 2.586769104003906 17.28184509277344 2.586208343505859 17.20827484130859 2.586208343505859 M 17.20827674865723 0.5862083435058594 C 17.29186248779297 0.5862083435058594 17.37507629394531 0.5868339538574219 17.45896530151367 0.5881004333496094 C 26.9377555847168 0.7309074401855469 34.73760604858398 8.931798934936523 34.88041305541992 18.90529823303223 C 35.0219612121582 28.79052352905273 27.58774566650391 36.70722961425781 18.22681045532227 36.70722961425781 C 18.14322662353516 36.70722961425781 18.06001281738281 36.70660400390625 17.97612380981445 36.70533752441406 C 8.497335433959961 36.56251907348633 0.6974830627441406 28.36162948608398 0.5546760559082031 18.38813972473145 C 0.4131278991699219 8.502904891967773 7.847343444824219 0.5862083435058594 17.20827674865723 0.5862083435058594 Z"/>
    </g>
    <path id="Path_563-3" data-name="Path 563" class="cls-3" d="M.374,12.44A35.835,35.835,0,0,0,9.083,7.49a24.953,24.953,0,0,0,5.606-7" transform="translate(7420.218 6124.149) rotate(-75)"/>
  </g>
  <g id="Group_18" data-name="Group 18" transform="matrix(0.799, -0.602, 0.602, 0.799, -9455.847, -144.67)">
    <g id="Path_566-4" data-name="Path 566" class="cls-2" transform="translate(7317.797 6121.046) rotate(125)">
      <path class="cls-7" d="M 14.8536205291748 39.50391387939453 C 12.22346019744873 39.50391387939453 9.712141036987305 38.36510467529297 7.591170787811279 36.2105827331543 C 5.952780723571777 34.54628372192383 4.601980686187744 32.31244277954102 3.684800624847412 29.75056266784668 C 2.727120637893677 27.07556343078613 2.246360540390015 24.0405330657959 2.294490575790405 20.97360229492188 C 2.374160528182983 15.89671325683594 3.844520568847656 11.11277294158936 6.434720516204834 7.503053188323975 C 8.953320503234863 3.993113040924072 12.22498035430908 2.030863046646118 15.64702033996582 1.977773070335388 C 15.69434070587158 1.977043032646179 15.74195098876953 1.976673007011414 15.78914070129395 1.976673007011414 C 18.4193115234375 1.976673007011414 20.93064117431641 3.115493059158325 23.05162048339844 5.270022869110107 C 24.69002151489258 6.934332847595215 26.04082107543945 9.168163299560547 26.9579906463623 11.73004341125488 C 27.91567039489746 14.40504264831543 28.39643096923828 17.4400634765625 28.34830093383789 20.50698280334473 C 28.29227066040039 24.07716369628906 27.53139114379883 27.55908393859863 26.14791107177734 30.57630348205566 C 24.80953979492188 33.49514389038086 22.93154144287109 35.89746475219727 20.7169303894043 37.52355194091797 C 19.02395057678223 38.76908493041992 16.99239158630371 39.4718017578125 14.99574089050293 39.50281143188477 C 14.94844055175781 39.50354385375977 14.90080070495605 39.50391387939453 14.8536205291748 39.50391387939453 Z"/>
      <path class="cls-10" d="M 15.78914070129395 2.976673126220703 C 15.74705028533936 2.976673126220703 15.70458030700684 2.977001190185547 15.66254043579102 2.977653503417969 C 12.56513023376465 3.025714874267578 9.576499938964844 4.83990478515625 7.247200012207031 8.086044311523438 C 6.05449104309082 9.748203277587891 5.10515022277832 11.68691253662109 4.425531387329102 13.84831237792969 C 3.713781356811523 16.11187362670898 3.333200454711914 18.51444244384766 3.294361114501953 20.98929214477539 C 3.203149795532227 26.80208206176758 5.075839996337891 32.23002243041992 8.303800582885742 35.5090446472168 C 10.2325611114502 37.46830368041992 12.49744987487793 38.50391387939453 14.8536205291748 38.50391387939453 C 14.89570045471191 38.50391387939453 14.93820095062256 38.50358200073242 14.98021030426025 38.50293350219727 C 16.77075958251953 38.47512435913086 18.59738159179688 37.84143447875977 20.12508010864258 36.71750259399414 C 24.47363090515137 33.52454376220703 27.2414608001709 27.30702209472656 27.34843063354492 20.49129295349121 C 27.43965148925781 14.67852210998535 25.56696128845215 9.250583648681641 22.3390007019043 5.971561431884766 C 20.41023063659668 4.012294769287109 18.14532089233398 2.976673126220703 15.78914070129395 2.976673126220703 M 15.78913593292236 0.9766693115234375 C 23.46161842346191 0.9766693115234375 29.51830101013184 9.682126998901367 29.34818077087402 20.52267265319824 C 29.22809982299805 28.17371368408203 26.03799057006836 34.85714340209961 21.30878067016602 38.3296012878418 C 19.52513122558594 39.6418342590332 17.32756042480469 40.46671295166016 15.01127052307129 40.50269317626953 C 14.9587869644165 40.50350570678711 14.90595531463623 40.5039176940918 14.8536205291748 40.5039176940918 C 7.181146621704102 40.5039176940918 1.124500274658203 31.79845809936523 1.294610977172852 20.95791244506836 C 1.465890884399414 10.04344367980957 7.884740829467773 1.09808349609375 15.63151073455811 0.9778938293457031 C 15.68399429321289 0.9770774841308594 15.73680114746094 0.9766693115234375 15.78913593292236 0.9766693115234375 Z"/>
    </g>
    <g id="Path_565-4" data-name="Path 565" class="cls-4" transform="translate(7308.069 6111.722) rotate(80)">
      <path class="cls-7" d="M 13.91834259033203 23.48183822631836 C 13.83694267272949 23.48183822631836 13.75646305084229 23.48115921020508 13.67467308044434 23.47976875305176 C 6.675022602081299 23.3609790802002 0.8844828009605408 18.1411190032959 0.7666028141975403 11.84383869171143 C 0.7146928310394287 9.069948196411133 1.788122773170471 6.419448375701904 3.789172887802124 4.380588531494141 C 4.911502838134766 3.237058401107788 6.262682914733887 2.335448503494263 7.805182933807373 1.700808525085449 C 9.408102989196777 1.041318416595459 11.13348293304443 0.7069284915924072 12.93340301513672 0.7069284915924072 C 13.01480293273926 0.7069284915924072 13.09530258178711 0.7076084613800049 13.17709255218506 0.708998441696167 C 20.1767635345459 0.8277884721755981 25.96731185913086 6.047648429870605 26.08520317077637 12.34492874145508 C 26.13709259033203 15.11882877349854 25.06363296508789 17.76933860778809 23.06256294250488 19.80819892883301 C 21.94022369384766 20.95172882080078 20.58904266357422 21.85332870483398 19.04655265808105 22.48795890808105 C 17.44363212585449 23.14744758605957 15.71826267242432 23.48183822631836 13.91834259033203 23.48183822631836 Z"/>
      <path class="cls-10" d="M 12.93342304229736 1.706918716430664 C 11.26467323303223 1.706918716430664 9.667303085327148 2.016008377075195 8.18568229675293 2.625598907470703 C 6.76898193359375 3.208469390869141 5.529912948608398 4.034608840942383 4.502862930297852 5.081058502197266 C 2.69139289855957 6.926748275756836 1.719572067260742 9.32184886932373 1.766433715820313 11.82512855529785 C 1.87434196472168 17.59041786193848 7.223972320556641 22.37013816833496 13.69153308868408 22.47991943359375 C 13.76766300201416 22.48119926452637 13.84258270263672 22.48183822631836 13.91834259033203 22.48183822631836 C 15.58709239959717 22.48183822631836 17.18446350097656 22.17275810241699 18.66607284545898 21.56316757202148 C 20.082763671875 20.98029899597168 21.32183265686035 20.1541690826416 22.3488826751709 19.10772895812988 C 24.16036224365234 17.26202774047852 25.1322021484375 14.86692810058594 25.08536338806152 12.36363887786865 C 24.97743225097656 6.598339080810547 19.62779235839844 1.818618774414063 13.16023254394531 1.708839416503906 C 13.08410263061523 1.707557678222656 13.00918292999268 1.706918716430664 12.93342304229736 1.706918716430664 M 12.933424949646 -0.2930850982666016 C 13.02048778533936 -0.2930850982666016 13.10658073425293 -0.2923564910888672 13.19406318664551 -0.2908706665039063 C 20.73778343200684 -0.1628322601318359 26.95696258544922 5.486019134521484 27.08501243591309 12.32620811462402 C 27.21150779724121 19.08706474304199 21.33885192871094 24.48184204101563 13.91834163665771 24.48184204101563 C 13.83127784729004 24.48184204101563 13.74518489837646 24.48111343383789 13.65770244598389 24.47962760925293 C 6.113992691040039 24.35158920288086 -0.1051864624023438 18.70273780822754 -0.2332172393798828 11.86255836486816 C -0.3597621917724609 5.101692199707031 5.512931823730469 -0.2930850982666016 12.933424949646 -0.2930850982666016 Z"/>
    </g>
    <path id="Path_563-4" data-name="Path 563" class="cls-5" d="M-.164,8.022a27.973,27.973,0,0,0,6.5-3.441A17.783,17.783,0,0,0,10.551-.242" transform="translate(7285.238 6111.306) rotate(80)"/>
    <g id="Path_566-5" data-name="Path 566" class="cls-2" transform="translate(7288.796 6112.39) rotate(8)">
      <path class="cls-7" d="M 13.49910640716553 39.16933822631836 L 13.45937633514404 39.16924667358398 C 10.13214588165283 39.15377807617188 6.967805862426758 37.19238662719727 4.549245834350586 33.64638519287109 C 2.050986051559448 29.9835376739502 0.66224604845047 25.10461616516113 0.6388360261917114 19.90838623046875 C 0.6099260449409485 13.49043655395508 2.71393609046936 7.527976989746094 6.267076015472412 3.958786964416504 C 8.334646224975586 1.88189685344696 10.74185562133789 0.7841069102287292 13.22847557067871 0.7841069102287292 L 13.26815605163574 0.7841969132423401 C 16.59540557861328 0.7996669411659241 19.759765625 2.761066913604736 22.17832565307617 6.307066917419434 C 24.67658615112305 9.969917297363281 26.06532669067383 14.84884738922119 26.08872604370117 20.04508781433105 C 26.12152671813965 27.32659721374512 23.39440536499023 33.93043518066406 18.97162628173828 37.27948760986328 C 17.36517524719238 38.49838638305664 15.42193603515625 39.16933822631836 13.49910640716553 39.16933822631836 Z"/>
      <path class="cls-10" d="M 13.22847557067871 1.784107208251953 C 11.01369571685791 1.784107208251953 8.851545333862305 2.780067443847656 6.975776672363281 4.664306640625 C 3.606206893920898 8.049087524414063 1.611085891723633 13.74612617492676 1.638826370239258 19.90387725830078 C 1.650266647338867 22.44335746765137 1.998165130615234 24.90413665771484 2.672855377197266 27.21785736083984 C 3.315996170043945 29.42334747314453 4.225255966186523 31.39663696289063 5.375385284423828 33.08291625976563 C 7.603015899658203 36.34899520874023 10.47561645507813 38.15535736083984 13.46409606933594 38.16924667358398 L 13.49914646148682 38.16932678222656 C 15.20501613616943 38.16932678222656 16.93356704711914 37.57059860229492 18.36794662475586 36.48226547241211 C 22.54488563537598 33.31935882568359 25.12014579772949 27.02272796630859 25.08873558044434 20.04959678649902 C 25.07729530334473 17.51010704040527 24.72940635681152 15.0493278503418 24.05471611022949 12.7356071472168 C 23.41157531738281 10.53010749816895 22.50231552124023 8.556816101074219 21.35218620300293 6.870536804199219 C 19.12454605102539 3.604446411132813 16.25192642211914 1.798088073730469 13.26334571838379 1.784187316894531 L 13.22847557067871 1.784107208251953 M 13.22847652435303 -0.2158966064453125 C 13.24326992034912 -0.2158966064453125 13.25800132751465 -0.2158622741699219 13.27280616760254 -0.2157936096191406 C 20.85289573669434 -0.1805419921875 27.03849601745605 8.88853645324707 27.08871650695801 20.04058647155762 C 27.12392616271973 27.85810661315918 24.13488578796387 34.62406539916992 19.5753059387207 38.07671737670898 C 17.86701202392578 39.37288665771484 15.7489070892334 40.16933059692383 13.49914741516113 40.16933059692383 C 13.48421859741211 40.16933059692383 13.46966552734375 40.16929626464844 13.45472621917725 40.16922760009766 C 5.874675750732422 40.13398742675781 -0.3109130859375 31.06491661071777 -0.3611545562744141 19.91288757324219 C -0.4112949371337891 8.782648086547852 5.66899299621582 -0.2158966064453125 13.22847652435303 -0.2158966064453125 Z"/>
    </g>
    <g id="Path_565-5" data-name="Path 565" class="cls-2" transform="translate(7281.763 6123.152) rotate(-37)">
      <path class="cls-7" d="M 12.97558307647705 25.06867980957031 C 9.971543312072754 25.06867980957031 7.169613361358643 23.90276908874512 5.085933208465576 21.78570938110352 C 2.971463203430176 19.63738822937012 1.833953142166138 16.75625991821289 1.882943153381348 13.67305946350098 C 1.984933257102966 7.253748893737793 7.238862991333008 1.948338985443115 13.59481334686279 1.846419095993042 C 13.65687274932861 1.845429062843323 13.71944332122803 1.844929099082947 13.78125286102295 1.844929099082947 C 16.7852725982666 1.844929099082947 19.58720397949219 3.010838985443115 21.6708927154541 5.127899169921875 C 23.78536415100098 7.276228904724121 24.92287254333496 10.1573486328125 24.87389373779297 13.24053859710693 C 24.77191352844238 19.65986824035645 19.51799392700195 24.96527862548828 13.16203308105469 25.06718826293945 C 13.09997272491455 25.06817817687988 13.03738307952881 25.06867980957031 12.97558307647705 25.06867980957031 Z"/>
      <path class="cls-10" d="M 13.78125286102295 2.844928741455078 C 13.72475337982178 2.844928741455078 13.66755294799805 2.845378875732422 13.61085319519043 2.846288681030273 C 7.788902282714844 2.93964958190918 2.976324081420898 7.803638458251953 2.8828125 13.68893909454346 C 2.838113784790039 16.50205993652344 3.87364387512207 19.1284294128418 5.798633575439453 21.08424949645996 C 7.692832946777344 23.0087890625 10.24166297912598 24.06867980957031 12.97558307647705 24.06867980957031 C 13.03208351135254 24.06867980957031 13.08929347991943 24.06822967529297 13.14600276947021 24.06731986999512 C 18.96794319152832 23.97396850585938 23.78051376342773 19.10997009277344 23.87401390075684 13.22465896606445 C 23.9187126159668 10.41154861450195 22.88318252563477 7.785188674926758 20.95819282531738 5.829368591308594 C 19.06398391723633 3.904819488525391 16.51516342163086 2.844928741455078 13.78125286102295 2.844928741455078 M 13.78124904632568 0.8449249267578125 C 20.58744239807129 0.8449249267578125 25.98333358764648 6.360010147094727 25.87376403808594 13.25642871856689 C 25.76311302185059 20.22090911865234 20.07903289794922 25.9564094543457 13.17806339263916 26.06705856323242 C 13.110671043396 26.06814002990723 13.04270076751709 26.06868362426758 12.97557926177979 26.06868362426758 C 6.169376373291016 26.06868362426758 0.7734928131103516 20.55361557006836 0.8830623626708984 13.65716934204102 C 0.9937229156494141 6.692729949951172 6.677793502807617 0.9572086334228516 13.57878303527832 0.8465499877929688 C 13.64617538452148 0.8454685211181641 13.71412658691406 0.8449249267578125 13.78124904632568 0.8449249267578125 Z"/>
    </g>
    <path id="Path_563-5" data-name="Path 563" class="cls-5" d="M.577,9.336a28.521,28.521,0,0,0,6.45-3.651A19.162,19.162,0,0,0,11.261.672" transform="translate(7291.57 6145.238) rotate(-37)"/>
    <g id="Path_566-6" data-name="Path 566" class="cls-2" transform="translate(7291.676 6142.083) rotate(-108)">
      <path class="cls-7" d="M 13.78744125366211 37.70890426635742 C 13.75723171234131 37.70890426635742 13.72707176208496 37.70876312255859 13.69681167602539 37.70847320556641 C 10.24610137939453 37.67523574829102 6.960331439971924 35.74796295166016 4.444781303405762 32.28168487548828 C 1.859301447868347 28.71903419494629 0.4079914391040802 23.98587417602539 0.3582114279270172 18.9541130065918 C 0.3282914459705353 15.92903423309326 0.8257914185523987 12.93032360076904 1.79694139957428 10.2821741104126 C 2.727601528167725 7.74441385269165 4.090741634368896 5.523153781890869 5.738981246948242 3.858523845672607 C 7.920111656188965 1.65571391582489 10.49975109100342 0.4913738667964935 13.19901180267334 0.4913738667964935 C 13.22953128814697 0.4913738667964935 13.25899124145508 0.4915138781070709 13.28957176208496 0.4918038845062256 C 16.74028205871582 0.5250438451766968 20.02605056762695 2.452313899993896 22.54161071777344 5.918603897094727 C 25.12710189819336 9.481264114379883 26.57842063903809 14.2144136428833 26.62820053100586 19.24617385864258 C 26.66317176818848 22.78251457214355 25.98711204528809 26.2124137878418 24.67308235168457 29.16507339477539 C 23.40407180786133 32.01659393310547 21.580810546875 34.34365463256836 19.400390625 35.89469528198242 C 17.75883102416992 37.06480407714844 15.76573181152344 37.70890426635742 13.78744125366211 37.70890426635742 Z"/>
      <path class="cls-10" d="M 13.19901180267334 1.491374969482422 C 10.77262115478516 1.491374969482422 8.438711166381836 2.55322265625 6.44957160949707 4.5621337890625 C 4.901601791381836 6.125503540039063 3.617391586303711 8.222513198852539 2.73579216003418 10.62648391723633 C 1.805791854858398 13.16242408752441 1.329421997070313 16.03865432739258 1.358161926269531 18.9442138671875 C 1.382411956787109 21.3946647644043 1.750692367553711 23.77133369445801 2.45277214050293 26.00820350646973 C 3.122920989990234 28.14329528808594 4.065422058105469 30.0563850402832 5.254121780395508 31.69433403015137 C 7.578842163085938 34.89767456054688 10.58060073852539 36.67841339111328 13.70630168914795 36.70851516723633 C 13.73339176177979 36.70877456665039 13.76039123535156 36.70890426635742 13.78744125366211 36.70890426635742 C 15.5594310760498 36.70890426635742 17.34639167785645 36.13075256347656 18.82074165344238 35.07981491088867 C 23.08628082275391 32.04552459716797 25.69477081298828 25.98221397399902 25.62825202941895 19.25607299804688 C 25.60400199890137 16.80562400817871 25.23572158813477 14.42895317077637 24.53363037109375 12.19208335876465 C 23.86348152160645 10.05699348449707 22.92097091674805 8.143903732299805 21.73227119445801 6.505943298339844 C 19.40754127502441 3.302604675292969 16.40577125549316 1.521862030029297 13.27969169616699 1.491752624511719 C 13.25245189666748 1.491493225097656 13.22620105743408 1.491374969482422 13.19901180267334 1.491374969482422 M 13.19900798797607 -0.5086288452148438 C 13.23277854919434 -0.5086288452148438 13.26537227630615 -0.5084724426269531 13.29920101165771 -0.5081443786621094 C 21.10571098327637 -0.4329643249511719 27.52101135253906 8.406913757324219 27.62815093994141 19.23628425598145 C 27.70323181152344 26.8276538848877 24.65856170654297 33.38148498535156 19.98004150390625 36.70954513549805 C 18.24087905883789 37.94924545288086 16.0840892791748 38.70890808105469 13.78744316101074 38.70890808105469 C 13.7540225982666 38.70890808105469 13.72066020965576 38.70874786376953 13.68718147277832 38.70842361450195 C 5.880651473999023 38.63324356079102 -0.5345993041992188 29.79336357116699 -0.6417388916015625 18.96400451660156 C -0.7484035491943359 8.181583404541016 5.439931869506836 -0.5086288452148438 13.19900798797607 -0.5086288452148438 Z"/>
    </g>
    <g id="Path_565-6" data-name="Path 565" class="cls-6" transform="translate(7305.62 6140.303) rotate(-156)">
      <path class="cls-7" d="M11.834-.525a11.709,11.709,0,0,1,12.128,11.6c-.07,6.468-5.612,11.761-12.38,11.822A11.709,11.709,0,0,1-.545,11.3C-.476,4.829,5.067-.464,11.834-.525Z"/>
      <path class="cls-10" d="M 11.95243740081787 1.474847793579102 C 11.91919803619385 1.474847793579102 11.88550758361816 1.474996566772461 11.85239791870117 1.475296020507813 C 6.176847457885742 1.526506423950195 1.512327194213867 5.94224739074707 1.454397201538086 11.31872653961182 C 1.427778244018555 13.78980731964111 2.383657455444336 16.13174629211426 4.145967483520508 17.91314697265625 C 6.050388336181641 19.83820724487305 8.649297714233398 20.89837646484375 11.46393775939941 20.89837646484375 C 11.49717712402344 20.89837646484375 11.53086757659912 20.89822769165039 11.56397724151611 20.89792633056641 C 17.23953819274902 20.84674644470215 21.90406799316406 16.43101692199707 21.96199798583984 11.05452728271484 C 21.98861694335938 8.583446502685547 21.03272819519043 6.241487503051758 19.2703971862793 4.460077285766602 C 17.3659782409668 2.535026550292969 14.76706790924072 1.474847793579102 11.95243740081787 1.474847793579102 M 11.95243644714355 -0.5251560211181641 C 18.6651611328125 -0.5251560211181641 24.03115272521973 4.6456298828125 23.96187782287598 11.07607650756836 C 23.89218711853027 17.54400634765625 18.34954833984375 22.83681678771973 11.58201789855957 22.89784622192383 C 11.5427770614624 22.89820098876953 11.50308799743652 22.89838027954102 11.46393871307373 22.89838027954102 C 4.751222610473633 22.89838027954102 -0.6147689819335938 17.72762298583984 -0.5454826354980469 11.2971773147583 C -0.4758014678955078 4.82923698425293 5.06684684753418 -0.4635639190673828 11.83435726165771 -0.5246238708496094 C 11.87359809875488 -0.5249767303466797 11.91328716278076 -0.5251560211181641 11.95243644714355 -0.5251560211181641 Z"/>
    </g>
    <path id="Path_563-6" data-name="Path 563" class="cls-5" d="M-.341,6.951A23.869,23.869,0,0,0,5.332,3.9,15.577,15.577,0,0,0,8.991-.405" transform="translate(7318.09 6123.308) rotate(-156)"/>
  </g>
</svg>
