<svg xmlns="http://www.w3.org/2000/svg" xmlns:xlink="http://www.w3.org/1999/xlink" width="469" height="417.957" xmlns:v="https://vecta.io/nano"><style><![CDATA[.P{fill:#fff}.Q{fill:none}.R{stroke-linecap:round}.S{fill:#ff778a}.T{stroke-width:2}.U{fill:#fcced5}.V{stroke:#ff778a}.W{stroke:#fcced5}.X{fill:#f75068}.Y{stroke:#f75068}.Z{fill:#f71939}.a{stroke:#f71939}]]></style><path d="M0 .328h469v417H0z" class="P"/><g transform="matrix(.99863 .052336 -.052336 .99863 -6970.339 -6366.906)"><g class="P"><g transform="matrix(-.573576 .819152 -.819152 -.573576 7391.402 6070.881)"><path d="M6.707 16.33a3.37 3.37 0 0 1-.172-.004c-1.327-.07-2.63-.92-3.666-2.398-1.073-1.53-1.722-3.53-1.827-5.632-.126-2.526.576-4.85 1.877-6.218C3.66 1.296 4.55.884 5.494.884l.17.004c1.327.07 2.63.92 3.666 2.398 1.073 1.53 1.722 3.53 1.827 5.632.146 2.924-.815 5.517-2.507 6.77a3.24 3.24 0 0 1-1.944.642z"/><path d="M5.494 1.384c-1.014 0-1.763.564-2.213 1.037-1.208 1.27-1.86 3.456-1.74 5.85.1 2.01.717 3.916 1.737 5.37.946 1.35 2.112 2.125 3.283 2.185l.147.004c.597 0 1.166-.188 1.646-.544 1.56-1.153 2.442-3.583 2.305-6.342-.1-2.01-.717-3.916-1.737-5.37C7.976 2.224 6.8 1.448 5.64 1.388l-.146-.004m0-1L5.69.39c3.07.16 5.74 3.966 5.967 8.504.158 3.18-.927 5.877-2.71 7.195-.623.462-1.4.74-2.24.74a3.84 3.84 0 0 1-.198-.005C3.44 16.665.768 12.858.542 8.32.32 3.88 2.523.384 5.494.384z" class="X"/></g><g transform="matrix(.173648 .984808 -.984808 .173648 7387.559 6066.997)"><path d="M4.536 10.084c-1.05 0-2.046-.427-2.808-1.202-.88-.897-1.373-2.19-1.35-3.55C.426 2.646 2.42.422 4.82.375l.077-.001c1.05 0 2.046.427 2.808 1.202.88.897 1.373 2.19 1.35 3.55-.047 2.687-2.04 4.9-4.44 4.957h-.077z"/><path d="M4.897.874L4.83.875C2.694.917.92 2.92.88 5.34c-.022 1.226.418 2.39 1.206 3.19.667.68 1.537 1.052 2.45 1.052h.067c2.136-.042 3.91-2.045 3.95-4.466.022-1.226-.418-2.39-1.206-3.19C6.682 1.248 5.81.874 4.897.874m0-1c2.63 0 4.708 2.336 4.657 5.26-.052 2.957-2.26 5.396-4.932 5.448h-.087c-2.63 0-4.708-2.336-4.657-5.26C-.07 2.366 2.14-.073 4.81-.125l.087-.001z" class="X"/></g></g><path d="M7374.296 6067.254a10.86 10.86 0 0 0 1.965 2.192 8.1 8.1 0 0 0 2.386 1.252" class="Q R Y"/><g class="P"><g transform="matrix(.866025 -.5 .5 .866025 7375.15 6070.567)"><use xlink:href="#B"/><use xlink:href="#C" class="X"/></g><g transform="matrix(.258819 -.965926 .965926 .258819 7376.697 6075.591)"><use xlink:href="#D"/><use xlink:href="#E" class="X"/></g></g><path d="M7388.934 6080.34a9.71 9.71 0 0 0-.751-2.735 7.09 7.09 0 0 0-1.57-2.038" class="Q R Y"/><g class="P"><g transform="matrix(.866025 -.5 .5 .866025 7375.15 6070.567)"><use xlink:href="#B"/><use xlink:href="#C" class="X"/></g><g transform="matrix(.258819 -.965926 .965926 .258819 7376.697 6075.591)"><use xlink:href="#D"/><use xlink:href="#E" class="X"/></g></g><path d="M7388.934 6080.34a9.71 9.71 0 0 0-.751-2.735 7.09 7.09 0 0 0-1.57-2.038" class="Q R Y"/></g><g transform="matrix(-.766 .643 -.643 -.766 9707.828 195.266)"><g class="P"><g transform="matrix(-.573576 .819152 -.819152 -.573576 7398.612 6074.625)"><path d="M8.39 21.797a4.57 4.57 0 0 1-.06 0c-1.765-.023-3.463-1.07-4.782-2.95-1.394-1.987-2.182-4.63-2.218-7.445-.044-3.404 1.05-6.57 2.925-8.47 1.094-1.11 2.373-1.695 3.698-1.695h.06c1.765.023 3.463 1.07 4.782 2.95 1.394 1.987 2.182 4.63 2.218 7.445.05 3.923-1.406 7.457-3.802 9.22-.826.6-1.828.945-2.822.945z"/><path d="M7.952 2.235c-1.33 0-2.358.76-2.987 1.397-1.692 1.714-2.678 4.613-2.637 7.756.034 2.615.757 5.06 2.037 6.883 1.13 1.6 2.542 2.507 3.977 2.525h.046c.782 0 1.572-.266 2.23-.75 1-.736 1.844-1.867 2.443-3.27.647-1.517.976-3.292.952-5.132-.034-2.615-.757-5.06-2.037-6.883C10.846 3.15 9.433 2.254 8 2.235h-.046m0-2h.073c4.33.056 7.907 5.153 7.987 11.383.056 4.367-1.62 8.132-4.21 10.04-.958.707-2.147 1.14-3.415 1.14a5.56 5.56 0 0 1-.073 0C3.985 22.74.41 17.644.33 11.414.25 5.22 3.656.235 7.952.235z" class="S"/></g><g transform="matrix(.173648 .984808 -.984808 .173648 7393.467 6068.989)"><path d="M6.86 13.29c-1.56 0-3.033-.615-4.144-1.732C1.554 10.393.92 8.825.927 7.146.943 3.73 3.65.94 6.964.925h.03c1.56 0 3.033.615 4.144 1.732 1.16 1.166 1.796 2.733 1.788 4.413-.016 3.415-2.724 6.205-6.037 6.22h-.03z"/><path d="M6.993 1.925H6.97c-2.767.013-5.03 2.358-5.042 5.226-.007 1.412.525 2.727 1.497 3.703a4.82 4.82 0 0 0 3.436 1.438h.024c2.767-.013 5.03-2.358 5.042-5.226.007-1.412-.525-2.727-1.497-3.703a4.82 4.82 0 0 0-3.436-1.437m0-2c3.85 0 6.95 3.194 6.932 7.15-.02 3.967-3.167 7.198-7.033 7.217H6.86c-3.85 0-6.95-3.194-6.932-7.15.02-3.967 3.167-7.198 7.033-7.217h.033z" class="S"/></g></g><path d="M7375.72 6069.36a15.46 15.46 0 0 0 2.63 3.182c.95.787 2.028 1.4 3.2 1.815" class="Q R T V"/><g class="P"><g transform="matrix(.866025 -.5 .5 .866025 7376.859 6074.168)"><use xlink:href="#F"/><use xlink:href="#G" class="S"/></g><g transform="matrix(.258819 -.965926 .965926 .258819 7378.929 6081.456)"><use xlink:href="#H"/><use xlink:href="#I" class="S"/></g></g><use xlink:href="#J" class="Q R T V"/><g class="P"><g transform="matrix(.866025 -.5 .5 .866025 7376.859 6074.168)"><use xlink:href="#F"/><use xlink:href="#G" class="S"/></g><g transform="matrix(.258819 -.965926 .965926 .258819 7378.929 6081.456)"><use xlink:href="#H"/><use xlink:href="#I" class="S"/></g></g><use xlink:href="#J" class="Q R T V"/></g><g transform="matrix(-.07 .998 -.998 -.07 6650.5 -6558.69)"><g class="P"><g transform="matrix(-.573576 .819152 -.819152 -.573576 7411.128 6084.558)"><path d="M11.847 32.3c-.094 0-.2-.002-.285-.006-2.75-.112-5.428-1.832-7.54-4.843C1.835 24.334.536 20.243.366 15.93.16 10.735 1.67 5.936 4.403 3.092 5.985 1.446 7.874.575 9.863.575a7.01 7.01 0 0 1 .284.006c2.75.112 5.428 1.832 7.54 4.843 2.187 3.117 3.485 7.208 3.656 11.52.238 6.01-1.814 11.367-5.355 13.982-1.213.898-2.645 1.373-4.14 1.373z"/><path d="M9.863 1.575c-2.162 0-3.77 1.202-4.74 2.2-2.548 2.65-3.953 7.177-3.758 12.105.163 4.123 1.397 8.025 3.475 10.986 1.93 2.75 4.33 4.32 6.763 4.418a6.05 6.05 0 0 0 .244.005c1.28 0 2.506-.407 3.547-1.177 3.278-2.42 5.175-7.456 4.95-13.138-.163-4.123-1.397-8.025-3.475-10.986-1.93-2.75-4.33-4.32-6.763-4.418-.082-.003-.162-.005-.243-.005m0-2c.108 0 .216.002.324.007 6.345.258 11.786 8.014 12.155 17.323.258 6.526-2.045 12.082-5.76 14.826a7.95 7.95 0 0 1-4.735 1.568c-.108 0-.217-.002-.326-.007C5.177 33.035-.265 25.28-.633 15.97-.995 6.82 3.68-.425 9.863-.425z" class="U"/></g><g transform="matrix(.173648 .984808 -.984808 .173648 7405.402 6075.334)"><path d="M9.97 20.994c-2.242 0-4.367-.904-5.986-2.545-.887-.9-1.58-1.97-2.063-3.183-.5-1.262-.745-2.614-.726-4.02.077-5.482 4.222-10.004 9.24-10.08l.13-.001c2.242 0 4.367.904 5.986 2.545a9.49 9.49 0 0 1 2.063 3.183c.5 1.262.745 2.614.726 4.02-.077 5.482-4.222 10.004-9.24 10.08l-.13.001z"/><path d="M10.565 2.165l-.114.001c-4.482.068-8.186 4.148-8.255 9.095-.035 2.475.877 4.84 2.5 6.486 1.43 1.45 3.302 2.247 5.274 2.247l.114-.001c4.482-.068 8.186-4.148 8.255-9.095.035-2.475-.877-4.84-2.5-6.486-1.43-1.45-3.302-2.247-5.274-2.247m0-2c5.495 0 9.858 4.786 9.774 10.76-.085 6.027-4.662 10.982-10.225 11.067l-.144.001c-5.495 0-9.858-4.786-9.774-10.76C.28 5.206 4.86.25 10.42.166l.144-.001z" class="U"/></g></g><path d="M7378.08 6076.336c1.122 1.7 2.47 3.238 4.005 4.574a16.36 16.36 0 0 0 4.857 2.602" class="Q R T W"/><g class="P"><g transform="matrix(.866025 -.5 .5 .866025 7381.574 6083.422)"><use xlink:href="#K"/><use xlink:href="#L" class="U"/></g><g transform="matrix(.258819 -.965926 .965926 .258819 7383.628 6093.305)"><use xlink:href="#M"/><use xlink:href="#N" class="U"/></g></g><path d="M7407.897 6103.604a20.6 20.6 0 0 0-1.526-5.696 14.72 14.72 0 0 0-3.203-4.246" class="Q R T W"/><g class="P"><g transform="matrix(.866025 -.5 .5 .866025 7381.574 6083.422)"><use xlink:href="#K"/><use xlink:href="#L" class="U"/></g><g transform="matrix(.258819 -.965926 .965926 .258819 7383.628 6093.305)"><use xlink:href="#M"/><use xlink:href="#N" class="U"/></g></g><path d="M7407.897 6103.604a20.6 20.6 0 0 0-1.526-5.696 14.72 14.72 0 0 0-3.203-4.246" class="Q R T W"/></g><g transform="matrix(.99863 .052336 -.052336 .99863 -6672.437 -6274.033)"><g class="P"><g transform="matrix(-.573576 .819152 -.819152 -.573576 7401.081 6077.028)"><path d="M8.312 24.055H8.3c-2.05-.004-4.006-1.184-5.506-3.32C1.22 18.5.348 15.5.34 12.29c-.008-3.89 1.296-7.523 3.5-9.72C5.14 1.258 6.66.565 8.23.565h.01c2.05.004 4.006 1.184 5.506 3.32C15.323 6.13 16.194 9.13 16.2 12.33c.01 4.478-1.718 8.535-4.5 10.588-.994.733-2.194 1.136-3.38 1.136z"/><path d="M8.23 1.565c-1.64 0-2.913.93-3.69 1.71-2 2.014-3.206 5.384-3.198 9.012.006 2.998.813 5.794 2.272 7.873 1.308 1.863 2.973 2.892 4.7 2.895h.01c.974 0 1.963-.334 2.787-.94 2.54-1.868 4.11-5.615 4.102-9.78-.006-2.998-.813-5.794-2.272-7.873-1.308-1.863-2.973-2.892-4.69-2.895h-.01m0-2c4.945.01 8.956 5.725 8.97 12.764.01 4.934-1.945 9.21-4.917 11.395-1.117.824-2.502 1.33-3.972 1.33-4.945-.01-8.956-5.725-8.97-12.764C-.674 5.26 3.305-.435 8.23-.435z" class="Z"/></g><g transform="matrix(.173648 .984808 -.984808 .173648 7396.484 6069.914)"><path d="M8.195 15.278H8.2a6.95 6.95 0 0 1-4.96-2.064 7.02 7.02 0 0 1-2.053-4.99C1.18 4.33 4.334 1.16 8.21 1.157h.006a6.95 6.95 0 0 1 4.96 2.064 7.02 7.02 0 0 1 2.053 4.989c-.003 3.894-3.158 7.064-7.033 7.067z"/><path d="M8.2 2.157c-3.324.003-6.03 2.725-6.034 6.068-.001 1.62.624 3.14 1.762 4.283s2.645 1.77 4.25 1.77h.005c3.324-.003 6.03-2.725 6.034-6.068.001-1.62-.624-3.14-1.762-4.283s-2.645-1.77-4.252-1.77H8.2m.005-2c4.43 0 8.017 3.604 8.013 8.054s-3.6 8.063-8.032 8.066S.173 12.673.176 8.224 3.776.16 8.208.157z" class="Z"/></g></g><path d="M7376.4 6070.603c.817 1.343 1.81 2.57 2.95 3.65 1.06.9 2.273 1.607 3.58 2.084" class="Q R T a"/><g class="P"><g transform="matrix(.866025 -.5 .5 .866025 7378.673 6076.219)"><use xlink:href="#O"/><use xlink:href="#P" class="Z"/></g><g transform="matrix(.258819 -.965926 .965926 .258819 7380.377 6084.253)"><use xlink:href="#Q"/><use xlink:href="#R" class="Z"/></g></g><path d="M7398.38 6092.388a17.6 17.6 0 0 0-1.125-4.546 11.66 11.66 0 0 0-2.359-3.396" class="Q R T a"/><g class="P"><g transform="matrix(.866025 -.5 .5 .866025 7378.673 6076.219)"><use xlink:href="#O"/><use xlink:href="#P" class="Z"/></g><g transform="matrix(.258819 -.965926 .965926 .258819 7380.377 6084.253)"><use xlink:href="#Q"/><use xlink:href="#R" class="Z"/></g></g><path d="M7398.38 6092.388a17.6 17.6 0 0 0-1.125-4.546 11.66 11.66 0 0 0-2.359-3.396" class="Q R T a"/></g><g transform="matrix(.99863 .052336 -.052336 .99863 -6755.045 -6191.446)"><g class="P"><g transform="matrix(-.573576 .819152 -.819152 -.573576 7400.256 6075.658)"><path d="M8.854 23.176c-.03 0-.06 0-.088-.001-1.895-.034-3.722-1.17-5.146-3.2-1.5-2.136-2.354-4.97-2.407-7.982-.065-3.64 1.083-7.02 3.07-9.044C5.442 1.77 6.8 1.148 8.213 1.148l.088.001c1.895.034 3.722 1.17 5.146 3.2 1.5 2.136 2.354 4.97 2.407 7.982.075 4.197-1.46 7.97-4.006 9.845-.887.655-1.922 1-2.994 1z"/><path d="M8.213 2.148c-1.438 0-2.542.817-3.216 1.503C3.193 5.488 2.152 8.6 2.212 11.976c.05 2.814.84 5.45 2.226 7.426 1.235 1.76 2.78 2.746 4.345 2.774h.07c.857 0 1.687-.278 2.4-.806 1.07-.79 1.972-2.003 2.607-3.512.685-1.627 1.028-3.533.993-5.51-.05-2.814-.84-5.45-2.226-7.426-1.235-1.76-2.78-2.746-4.345-2.774l-.07-.001m0-2L8.32.15c4.595.083 8.417 5.53 8.535 12.164.083 4.65-1.676 8.65-4.413 10.668-1.005.742-2.253 1.196-3.587 1.196a5.89 5.89 0 0 1-.106-.001C4.152 24.092.33 18.647.213 12.012.095 5.43 3.668.148 8.213.148z" class="U"/></g><g transform="matrix(.173648 .984808 -.984808 .173648 7395.025 6069.571)"><path d="M7.256 14.298c-1.65 0-3.207-.653-4.385-1.84C1.62 11.202.94 9.504.95 7.68.975 3.993 3.872.975 7.4.95h.042c1.65 0 3.207.653 4.385 1.84 1.25 1.258 1.932 2.955 1.92 4.78-.024 3.687-2.92 6.705-6.46 6.73h-.042z"/><path d="M7.45 1.95h-.035C4.423 1.97 1.97 4.544 1.95 7.687c-.01 1.556.57 3 1.63 4.068.99.995 2.294 1.543 3.675 1.543h.035c2.993-.02 5.445-2.593 5.465-5.735.01-1.556-.57-3-1.63-4.068C10.138 2.5 8.833 1.95 7.45 1.95m0-2c4.066 0 7.332 3.403 7.305 7.624-.027 4.238-3.364 7.695-7.452 7.723h-.05c-4.066 0-7.332-3.403-7.305-7.624C-.022 3.436 3.315-.022 7.403-.05h.05z" class="U"/></g></g><path d="M7376.02 6070.014c.782 1.242 1.728 2.373 2.812 3.363a11.3 11.3 0 0 0 3.411 1.92" class="Q R T W"/><g class="P"><g transform="matrix(.866025 -.5 .5 .866025 7377.467 6075.114)"><use xlink:href="#S"/><use xlink:href="#T" class="U"/></g><g transform="matrix(.258819 -.965926 .965926 .258819 7379.536 6082.756)"><use xlink:href="#U"/><use xlink:href="#V" class="U"/></g></g><path d="M7396.956 6090.088c-.163-1.44-.523-2.85-1.07-4.193a10.77 10.77 0 0 0-2.25-3.126" class="Q R T W"/><g class="P"><g transform="matrix(.866025 -.5 .5 .866025 7377.467 6075.114)"><use xlink:href="#S"/><use xlink:href="#T" class="U"/></g><g transform="matrix(.258819 -.965926 .965926 .258819 7379.536 6082.756)"><use xlink:href="#U"/><use xlink:href="#V" class="U"/></g></g><path d="M7396.956 6090.088c-.163-1.44-.523-2.85-1.07-4.193a10.77 10.77 0 0 0-2.25-3.126" class="Q R T W"/></g><g transform="matrix(-.309017 -.951057 .951057 -.309017 -3291.694 9279.986)"><g class="P"><g transform="matrix(-.573576 .819152 -.819152 -.573576 7394.841 6073.459)"><path d="M7.184 18.77c-.066 0-.133-.002-.2-.005-1.49-.08-2.966-1.062-4.16-2.763C1.56 14.197.79 11.834.66 9.35.505 6.383 1.31 3.668 2.81 2.087 3.628 1.224 4.604.768 5.633.768l.197.005C7.32.855 8.797 1.836 10 3.536c1.267 1.805 2.036 4.168 2.166 6.652.18 3.426-.917 6.447-2.86 7.885a3.52 3.52 0 0 1-2.11.697z"/><path d="M5.633 1.768c-.758 0-1.464.34-2.098 1.007C2.22 4.16 1.518 6.6 1.66 9.297c.12 2.266.842 4.5 1.986 6.13.998 1.423 2.236 2.275 3.395 2.338l.144.004c.55 0 1.073-.173 1.516-.5.765-.566 1.4-1.473 1.838-2.622.49-1.284.703-2.807.62-4.407-.12-2.266-.842-4.5-1.986-6.13-.998-1.423-2.236-2.275-3.395-2.338l-.143-.004m0-2l.252.007c3.726.203 6.98 4.842 7.27 10.36.203 3.87-1.106 7.144-3.265 8.74a4.53 4.53 0 0 1-2.705.893c-.084 0-.168-.002-.253-.007-3.726-.203-6.98-4.842-7.27-10.36C-.62 4.008 2.035-.232 5.633-.232z" class="U"/></g><g transform="matrix(.173648 .984808 -.984808 .173648 7391.534 6068.019)"><path d="M5.744 12.14c-1.158 0-2.26-.474-3.104-1.333-1-1.018-1.556-2.494-1.527-4.05.057-3.066 2.3-5.606 5.002-5.66l.1-.001c1.158 0 2.26.474 3.104 1.333 1 1.018 1.556 2.494 1.527 4.05-.057 3.066-2.3 5.606-5.002 5.66l-.1.001z"/><path d="M6.205 2.093h-.07c-1.007.02-1.98.494-2.735 1.334-.808.897-1.265 2.085-1.288 3.346-.024 1.3.428 2.505 1.24 3.332.463.472 1.254 1.034 2.39 1.034h.07c1.007-.02 1.98-.494 2.735-1.334.808-.897 1.265-2.085 1.288-3.346.024-1.3-.428-2.505-1.24-3.332-.463-.472-1.254-1.034-2.39-1.034m0-2c3.185 0 5.697 2.842 5.63 6.403-.066 3.602-2.744 6.576-5.982 6.642l-.1.001c-3.185 0-5.697-2.842-5.63-6.403C.18 3.134 2.858.16 6.095.094l.1-.001z" class="U"/></g></g><path d="M7375.174 6068.637c.675.99 1.48 1.885 2.398 2.657a9.89 9.89 0 0 0 2.908 1.518" class="Q R T W"/><g class="P"><g transform="matrix(.866025 -.5 .5 .866025 7377.361 6072.771)"><use xlink:href="#W"/><use xlink:href="#X" class="U"/></g><g transform="matrix(.258819 -.965926 .965926 .258819 7378.53 6078.474)"><use xlink:href="#Y"/><use xlink:href="#Z" class="U"/></g></g><path d="M7393.007 6084.493a11.71 11.71 0 0 0-.912-3.315 8.6 8.6 0 0 0-1.912-2.468" class="Q R T W"/><g class="P"><g transform="matrix(.866025 -.5 .5 .866025 7377.361 6072.771)"><use xlink:href="#W"/><use xlink:href="#X" class="U"/></g><g transform="matrix(.258819 -.965926 .965926 .258819 7378.53 6078.474)"><use xlink:href="#Y"/><use xlink:href="#Z" class="U"/></g></g><path d="M7393.007 6084.493a11.71 11.71 0 0 0-.912-3.315 8.6 8.6 0 0 0-1.912-2.468" class="Q R T W"/></g><g transform="matrix(-.069756 .997564 -.997564 -.069756 6956.333 -6923.213)"><g class="P"><g transform="matrix(-.573576 .819152 -.819152 -.573576 7408.555 6079.235)"><path d="M11.09 29.802c-1.95 0-3.82-.85-5.412-2.46C3.074 24.712 1.55 20.377 1.6 15.747 1.64 11.895 2.733 8.273 4.675 5.55c1.87-2.622 4.296-4.08 6.836-4.108h.072c1.95 0 3.82.85 5.412 2.46 2.603 2.632 4.128 6.967 4.078 11.597-.058 5.398-2.235 10.324-5.68 12.855-1.25.92-2.753 1.436-4.23 1.452h-.072z"/><path d="M11.583 2.44h-.062C9.3 2.464 7.167 3.774 5.49 6.13c-1.824 2.56-2.85 5.98-2.89 9.63-.047 4.368 1.37 8.437 3.79 10.882.976.986 2.583 2.162 4.7 2.162h.062c1.27-.014 2.566-.46 3.65-1.258 3.197-2.35 5.217-6.97 5.272-12.06.047-4.368-1.37-8.437-3.79-10.882-.976-.986-2.583-2.162-4.7-2.162m0-2c5.89 0 10.58 6.72 10.5 15.066-.063 5.877-2.48 11-6.088 13.65-1.36 1-3.04 1.627-4.813 1.646h-.083c-5.89 0-10.58-6.72-10.5-15.066C.7 7.352 5.57.504 11.5.44h.083z" class="U"/></g><g transform="matrix(.173648 .984808 -.984808 .173648 7401.041 6071.715)"><path d="M9.686 17.912H9.65C4.833 17.893.898 14.05.88 9.348a8.3 8.3 0 0 1 2.445-5.926C4.965 1.775 7.17.868 9.532.868h.035c4.817.02 8.752 3.86 8.77 8.564a8.3 8.3 0 0 1-2.445 5.926c-1.64 1.647-3.845 2.554-6.207 2.554z"/><path d="M9.532 1.868c-2.094 0-4.047.803-5.5 2.26C2.637 5.53 1.872 7.382 1.88 9.344c.016 4.156 3.504 7.55 7.774 7.567h.032c2.094 0 4.047-.803 5.5-2.26 1.396-1.402 2.16-3.254 2.153-5.217-.016-4.156-3.504-7.55-7.774-7.567h-.032m0-2h.04c5.373.02 9.746 4.3 9.767 9.56.02 5.246-4.297 9.484-9.652 9.484-.013 0-.026 0-.04 0-5.373-.02-9.746-4.3-9.767-9.56C-.14 4.106 4.177-.132 9.532-.132z" class="U"/></g></g><path d="M7377.638 6072.112a21.37 21.37 0 0 0 3.482 4.43c1.245 1.1 2.677 1.946 4.226 2.527" class="Q R T W"/><g class="P"><g transform="matrix(.866025 -.5 .5 .866025 7378.556 6078.762)"><use xlink:href="#a"/><use xlink:href="#b" class="U"/></g><g transform="matrix(.258819 -.965926 .965926 .258819 7381.677 6089.06)"><use xlink:href="#c"/><use xlink:href="#d" class="U"/></g></g><path d="M7403.57 6098.543a21.85 21.85 0 0 0-1.326-5.52c-.678-1.526-1.622-2.92-2.787-4.116" class="Q R T W"/><g class="P"><g transform="matrix(.866025 -.5 .5 .866025 7378.556 6078.762)"><use xlink:href="#a"/><use xlink:href="#b" class="U"/></g><g transform="matrix(.258819 -.965926 .965926 .258819 7381.677 6089.06)"><use xlink:href="#c"/><use xlink:href="#d" class="U"/></g></g><path d="M7403.57 6098.543a21.85 21.85 0 0 0-1.326-5.52c-.678-1.526-1.622-2.92-2.787-4.116" class="Q R T W"/></g><g transform="matrix(-.53 -.848 .848 -.53 -890.901 9871.5)"><g class="P"><g transform="matrix(-.573576 .819152 -.819152 -.573576 7412.588 6079.52)"><path d="M13.6 32.873a6.57 6.57 0 0 1-.492-.019c-1.32-.1-2.64-.593-3.924-1.466S6.717 29.3 5.658 27.8C3.44 24.64 2.05 20.544 1.745 16.268c-.366-5.12.92-9.794 3.44-12.5 1.394-1.497 3.09-2.29 4.9-2.29a6.52 6.52 0 0 1 .488.019c1.32.1 2.64.593 3.924 1.466s2.467 2.078 3.525 3.587c2.218 3.16 3.608 7.257 3.914 11.534.424 5.93-1.365 11.136-4.67 13.586-1.06.787-2.326 1.203-3.666 1.203z"/><path d="M10.084 2.48c-1.55 0-2.95.663-4.168 1.97-2.334 2.507-3.52 6.898-3.173 11.747.293 4.098 1.62 8.015 3.735 11.03.99 1.4 2.09 2.532 3.27 3.335 1.137.773 2.293 1.21 3.437 1.295a5.57 5.57 0 0 0 .417.016c1.123 0 2.185-.347 3.07-1.006 1.418-1.05 2.568-2.728 3.327-4.848.82-2.29 1.145-5 .94-7.864-.293-4.098-1.62-8.015-3.735-11.03-.99-1.4-2.09-2.532-3.27-3.335-1.137-.773-2.293-1.21-3.437-1.295a5.52 5.52 0 0 0-.413-.016m0-2a7.49 7.49 0 0 1 .564.021c6.126.462 11.627 8.303 12.286 17.512.462 6.456-1.578 11.87-5.07 14.46a7.11 7.11 0 0 1-4.262 1.399 7.54 7.54 0 0 1-.567-.021C6.906 33.39 1.406 25.55.747 16.34.11 7.415 4.252.48 10.084.48z" class="X"/></g><g transform="matrix(.173648 .984808 -.984808 .173648 7405.674 6071.452)"><path d="M8.812 20.858c-1.963 0-3.838-.814-5.28-2.29C1.74 16.727.75 14.02.822 11.142.96 5.593 4.912.968 9.63.832 9.7.83 9.772.83 9.842.83c1.963 0 3.838.814 5.28 2.29 1.794 1.84 2.782 4.545 2.7 7.424-.138 5.55-4.09 10.174-8.808 10.3l-.212.003z"/><path d="M9.842 1.83H9.66c-1.972.057-3.87 1.026-5.347 2.73-1.544 1.782-2.428 4.128-2.5 6.606-.065 2.61.82 5.053 2.426 6.7 1.27 1.302 2.848 2 4.564 2l.183-.003c1.972-.057 3.87-1.026 5.347-2.73 1.544-1.782 2.428-4.128 2.5-6.606.065-2.61-.82-5.053-2.426-6.7-1.27-1.302-2.848-2-4.564-2m0-2c5.134 0 9.138 4.752 8.99 10.74-.15 6.08-4.53 11.134-9.78 11.285l-.24.003c-5.134 0-9.138-4.752-8.99-10.74.15-6.08 4.53-11.134 9.78-11.285a8.38 8.38 0 0 1 .241-.003z" class="X"/></g></g><path d="M7378.224 6072.132a21.64 21.64 0 0 0 4.048 4.303c1.494 1.078 3.152 1.907 4.912 2.453" class="Q R T Y"/><g class="P"><g transform="matrix(.866025 -.5 .5 .866025 7380.823 6078.697)"><use xlink:href="#e"/><use xlink:href="#f" class="X"/></g><g transform="matrix(.258819 -.965926 .965926 .258819 7383.477 6088.329)"><use xlink:href="#g"/><use xlink:href="#h" class="X"/></g></g><use xlink:href="#i" class="Q R T Y"/><g class="P"><g transform="matrix(.866025 -.5 .5 .866025 7380.823 6078.697)"><use xlink:href="#e"/><use xlink:href="#f" class="X"/></g><g transform="matrix(.258819 -.965926 .965926 .258819 7383.477 6088.329)"><use xlink:href="#g"/><use xlink:href="#h" class="X"/></g></g><use xlink:href="#i" class="Q R T Y"/></g><g transform="matrix(.99863 -.052336 .052336 .99863 -7372.569 -5420.014)"><g transform="matrix(-.573576 .819152 -.819152 -.573576 7317.797 6121.046)" class="P"><path d="M14.854 39.504c-2.63 0-5.14-1.14-7.262-3.293-1.638-1.664-2.99-3.898-3.906-6.46-.958-2.675-1.438-5.7-1.4-8.777.08-5.077 1.55-9.86 4.14-13.47 2.52-3.5 5.8-5.472 9.212-5.525l.142-.001c2.63 0 5.142 1.14 7.262 3.293 1.638 1.664 2.99 3.898 3.906 6.46.958 2.675 1.438 5.7 1.4 8.777-.056 3.57-.817 7.052-2.2 10.07-1.338 2.92-3.216 5.32-5.43 6.947-1.693 1.246-3.725 1.948-5.72 1.98l-.142.001z"/><path d="M15.79 2.977l-.127.001c-3.097.048-6.086 1.862-8.415 5.108-1.193 1.662-2.142 3.6-2.822 5.762-.712 2.264-1.092 4.666-1.13 7.14-.09 5.813 1.78 11.24 5.01 14.52 1.93 1.96 4.194 2.995 6.55 2.995l.127-.001c1.79-.028 3.617-.66 5.145-1.785 4.35-3.193 7.116-9.4 7.223-16.226.09-5.813-1.78-11.24-5.01-14.52-1.93-1.96-4.194-2.995-6.55-2.995m0-2c7.672 0 13.73 8.705 13.56 19.546-.12 7.65-3.3 14.334-8.04 17.807-1.784 1.312-3.98 2.137-6.298 2.173l-.158.001c-7.672 0-13.73-8.705-13.56-19.546.17-10.914 6.6-19.86 14.337-19.98l.158-.001z" class="S"/></g><g transform="matrix(.173648 .984808 -.984808 .173648 7308.069 6111.722)" class="U"><path d="M13.918 23.482a14.27 14.27 0 0 1-.244-.002c-7-.12-12.8-5.34-12.908-11.636C.715 9.07 1.788 6.42 3.79 4.38 4.912 3.237 6.263 2.335 7.805 1.7c1.603-.66 3.328-.994 5.128-.994l.244.002c7 .12 12.8 5.34 12.908 11.636.052 2.774-1.022 5.424-3.023 7.463-1.122 1.144-2.474 2.045-4.016 2.68-1.603.66-3.328.994-5.128.994z"/><path d="M12.933 1.707c-1.67 0-3.266.31-4.748.92-1.417.583-2.656 1.41-3.683 2.455-1.81 1.846-2.783 4.24-2.736 6.744C1.874 17.6 7.224 22.37 13.692 22.48l.227.002c1.67 0 3.266-.31 4.748-.92 1.417-.583 2.656-1.41 3.683-2.455 1.81-1.846 2.783-4.24 2.736-6.744C24.977 6.598 19.628 1.82 13.16 1.71l-.227-.002m0-2l.26.002c7.544.128 13.763 5.777 13.89 12.617.126 6.76-5.746 12.156-13.167 12.156a15.28 15.28 0 0 1-.261-.002C6.114 24.352-.105 18.703-.233 11.863-.36 5.102 5.513-.293 12.933-.293z" class="S"/></g><path d="M7277.31 6112.537c1.244 2.125 2.763 4.076 4.517 5.804 1.612 1.427 3.47 2.55 5.482 3.313" class="Q R T V"/><g class="P"><g transform="matrix(.990268 .139173 -.139173 .990268 7288.796 6112.39)"><path d="M13.5 39.17h-.04c-3.327-.015-6.492-1.977-8.9-5.523C2.05 29.984.662 25.105.64 19.908.6 13.5 2.714 7.528 6.267 3.96 8.335 1.882 10.742.784 13.228.784h.04c3.327.015 6.492 1.977 8.9 5.523 2.498 3.663 3.887 8.542 3.9 13.738.033 7.282-2.694 13.885-7.117 17.234-1.606 1.22-3.55 1.9-5.473 1.9z"/><path d="M13.228 1.784c-2.215 0-4.377.996-6.253 2.88-3.37 3.385-5.365 9.082-5.337 15.24.01 2.54.36 5 1.034 7.314.643 2.205 1.552 4.18 2.703 5.865 2.228 3.266 5.1 5.072 8.09 5.086h.035c1.706 0 3.434-.6 4.87-1.687 4.177-3.163 6.752-9.46 6.72-16.433-.01-2.54-.36-5-1.034-7.314-.643-2.205-1.552-4.18-2.703-5.865-2.228-3.266-5.1-5.072-8.09-5.086h-.035m0-2h.044C20.853-.18 27.038 8.89 27.09 20.04c.035 7.818-2.954 14.583-7.513 18.036-1.708 1.296-3.826 2.093-6.076 2.093-.015 0-.03 0-.044 0C5.875 40.134-.31 31.065-.36 19.913-.41 8.783 5.67-.216 13.228-.216z" class="S"/></g><g transform="matrix(.798636 -.601815 .601815 .798636 7281.763 6123.152)"><path d="M12.976 25.07c-3.004 0-5.806-1.166-7.9-3.283-2.114-2.148-3.252-5.03-3.203-8.113.102-6.42 5.356-11.725 11.712-11.827l.186-.001c3.004 0 5.806 1.166 7.9 3.283 2.114 2.148 3.252 5.03 3.203 8.113-.102 6.42-5.356 11.725-11.712 11.827l-.186.001z"/><path d="M13.78 2.845l-.17.001C7.79 2.94 2.976 7.804 2.883 13.69c-.045 2.813.99 5.44 2.916 7.395 1.894 1.925 4.443 2.984 7.177 2.984l.17-.001c5.822-.093 10.635-4.957 10.728-10.843.045-2.813-.99-5.44-2.916-7.395-1.894-1.925-4.443-2.984-7.177-2.984m0-2c6.806 0 12.202 5.515 12.093 12.412-.11 6.964-5.795 12.7-12.696 12.81l-.202.002C6.17 26.07.773 20.554.883 13.657.994 6.693 6.678.957 13.58.847l.202-.002z" class="S"/></g></g><path d="M7297.65 6152.347a28.52 28.52 0 0 0 2.954-6.798 19.16 19.16 0 0 0 .365-6.552" class="Q R T V"/><g transform="matrix(-.309017 -.951057 .951057 -.309017 7291.676 6142.083)" class="P"><path d="M13.787 37.71a9.45 9.45 0 0 1-.091 0c-3.45-.033-6.736-1.96-9.252-5.427C1.86 28.72.408 23.986.358 18.954c-.03-3.025.468-6.024 1.44-8.672.93-2.538 2.294-4.76 3.942-6.424C7.92 1.656 10.5.49 13.2.49h.09c3.45.033 6.736 1.96 9.252 5.427 2.585 3.563 4.037 8.296 4.087 13.328.035 3.536-.64 6.966-1.955 9.92-1.27 2.852-3.092 5.18-5.273 6.73a9.76 9.76 0 0 1-5.613 1.814z"/><path d="M13.2 1.49c-2.426 0-4.76 1.062-6.75 3.07-1.548 1.563-2.832 3.66-3.714 6.064-.93 2.536-1.406 5.412-1.378 8.318.024 2.45.393 4.827 1.095 7.064.67 2.135 1.613 4.048 2.8 5.686 2.325 3.203 5.326 4.984 8.452 5.014h.08c1.772 0 3.56-.578 5.033-1.63 4.266-3.034 6.874-9.098 6.808-15.824-.024-2.45-.393-4.827-1.095-7.064-.67-2.135-1.613-4.048-2.8-5.686-2.325-3.203-5.326-4.984-8.453-5.014h-.08m0-2h.1c7.807.075 14.222 8.915 14.33 19.744.075 7.59-2.97 14.145-7.648 17.473-1.74 1.24-3.896 2-6.193 2-.033 0-.067 0-.1 0C5.88 38.633-.535 29.793-.642 18.964-.748 8.182 5.44-.51 13.2-.51z" class="S"/></g><path d="M11.952 1.475h-.1c-5.676.05-10.34 4.467-10.398 9.843a9.18 9.18 0 0 0 2.692 6.594c1.904 1.925 4.503 2.985 7.318 2.985h.1c5.676-.05 10.34-4.467 10.398-9.843A9.18 9.18 0 0 0 19.27 4.46c-1.904-1.925-4.503-2.985-7.318-2.985m0-2c6.713 0 12.08 5.17 12.01 11.6-.07 6.468-5.612 11.76-12.38 11.822h-.118c-6.713 0-12.08-5.17-12.01-11.6.07-6.468 5.612-11.76 12.38-11.822h.118z" transform="matrix(-.913545 -.406737 .406737 -.913545 7305.62 6140.303)" class="S"/><path d="M7321.23 6117.097a23.87 23.87 0 0 0-6.423.48c-1.833.498-3.56 1.326-5.094 2.445" class="Q R T V"/></g><g transform="matrix(.857167 -.515038 .515038 .857167 -8958.206 -1362.655)"><g transform="matrix(-.573576 .819152 -.819152 -.573576 7300.112 6114.845)" class="P"><path d="M8.396 25.35c-1.695 0-3.332-.744-4.733-2.152-2.324-2.335-3.7-6.186-3.68-10.303.016-3.404.956-6.596 2.646-8.99C4.244 1.62 6.35.355 8.558.345h.027c1.695 0 3.332.744 4.733 2.152C15.642 4.83 17.018 8.682 17 12.8c-.022 4.765-1.903 9.098-4.9 11.308-1.08.796-2.383 1.238-3.666 1.244h-.027z"/><path d="M8.585 1.344h-.022c-1.876.01-3.693 1.124-5.117 3.14C1.872 6.712.997 9.7.982 12.9c-.018 3.857 1.25 7.443 3.39 9.593.843.847 2.226 1.857 4.024 1.857h.022c1.073-.005 2.165-.377 3.078-1.05 2.756-2.026 4.48-6.052 4.502-10.507.018-3.856-1.25-7.443-3.39-9.593-.843-.847-2.226-1.857-4.024-1.857m0-2c5.237 0 9.448 6.016 9.414 13.46-.024 5.228-2.137 9.77-5.318 12.11-1.2.883-2.683 1.43-4.253 1.438h-.032c-5.237 0-9.448-6.016-9.414-13.46C-.983 5.434 3.302-.63 8.553-.655h.032z" class="S"/></g><g transform="matrix(.173648 .984808 -.984808 .173648 7296.173 6107.171)" class="U"><path d="M9.732 16.302a9.12 9.12 0 0 1-.121-.001c-4.534-.06-8.27-3.496-8.33-7.66-.027-1.865.697-3.64 2.04-5.002 1.493-1.515 3.643-2.384 5.9-2.384h.12c4.534.06 8.27 3.496 8.33 7.66.027 1.865-.697 3.64-2.04 5.002-1.493 1.515-3.643 2.384-5.9 2.384z"/><path d="M9.217 2.256c-2 0-3.88.76-5.187 2.086-1.152 1.17-1.774 2.69-1.75 4.286.052 3.627 3.347 6.62 7.344 6.674l.108.001c2 0 3.88-.76 5.187-2.086 1.152-1.17 1.774-2.69 1.75-4.286-.052-3.627-3.347-6.62-7.344-6.674h-.108m0-2l.135.001c5.078.068 9.25 3.938 9.317 8.645.067 4.665-3.923 8.4-8.938 8.4a10.06 10.06 0 0 1-.135-.001C4.52 17.233.347 13.363.28 8.656.213 3.992 4.203.256 9.217.256z" class="S"/></g><path d="M7274.588 6108.267c.86 1.434 1.905 2.748 3.11 3.907a12.32 12.32 0 0 0 3.778 2.226" class="Q R T V"/><g class="P"><g transform="matrix(.990268 .139173 -.139173 .990268 7281.963 6107.659)"><path d="M9.783 26.435h-.008c-2.187-.003-4.27-1.268-5.866-3.56-1.673-2.404-2.596-5.615-2.6-9.044-.006-4.186 1.396-8.092 3.75-10.448 1.4-1.392 3.005-2.128 4.67-2.128h.008c2.187.003 4.27 1.268 5.866 3.56 1.673 2.404 2.596 5.615 2.6 9.044.006 4.797-1.835 9.147-4.807 11.35-1.063.8-2.346 1.225-3.612 1.225z"/><path d="M9.728 2.255c-1.76 0-3.127.997-3.963 1.834-2.17 2.173-3.462 5.814-3.456 9.74.004 3.227.864 6.236 2.422 8.474 1.404 2.017 3.196 3.13 5.044 3.132h.01c1.053 0 2.124-.365 3.017-1.028 2.722-2.02 4.41-6.06 4.403-10.547-.004-3.227-.864-6.236-2.422-8.474-1.404-2.017-3.196-3.13-5.044-3.132h-.01-.001m0-2c5.227.007 9.464 6.098 9.475 13.603.007 5.26-2.065 9.822-5.21 12.156-1.184.88-2.652 1.422-4.208 1.422C4.556 27.428.318 21.338.308 13.832S4.515.255 9.728.255z" class="S"/></g><g transform="matrix(.798636 -.601815 .601815 .798636 7279.512 6115.669)"><path d="M7.83 15.46a7.39 7.39 0 0 1-5.277-2.188C1.143 11.855.37 9.965.38 7.95.4 3.78 3.8.37 7.957.35h.037a7.39 7.39 0 0 1 5.277 2.188c1.41 1.417 2.182 3.307 2.173 5.32-.02 4.17-3.42 7.58-7.576 7.6H7.83z"/><path d="M7.994 1.35h-.032C4.35 1.37 1.398 4.33 1.38 7.956c-.008 1.746.66 3.383 1.882 4.61a6.4 6.4 0 0 0 4.568 1.894h.032c3.612-.017 6.564-2.98 6.58-6.604.008-1.746-.66-3.383-1.882-4.61a6.4 6.4 0 0 0-4.568-1.894m0-2c4.693 0 8.472 3.803 8.45 8.514-.022 4.725-3.86 8.573-8.572 8.595h-.04c-4.693 0-8.472-3.803-8.45-8.514.022-4.724 3.86-8.573 8.572-8.595h.04z" class="S"/></g></g><path d="M7288.594 6135.047c.877-1.428 1.56-2.965 2.034-4.573a12.6 12.6 0 0 0 .252-4.408" class="Q R T V"/><g transform="matrix(-.309017 -.951057 .951057 -.309017 7284.023 6129.667)" class="P"><path d="M10.376 26.44h-.017c-2.213-.006-4.322-1.265-5.937-3.544-1.69-2.383-2.625-5.565-2.635-8.96-.012-4.1 1.37-7.94 3.698-10.275 1.413-1.418 3.064-2.167 4.773-2.167h.017c2.213.006 4.322 1.265 5.937 3.544 1.69 2.383 2.625 5.565 2.635 8.96.014 4.75-1.836 9.052-4.827 11.23a6.24 6.24 0 0 1-3.644 1.211z"/><path d="M10.257 2.494c-1.816 0-3.212 1.018-4.064 1.873-2.144 2.15-3.418 5.726-3.406 9.566.01 3.2.88 6.167 2.45 8.384 1.423 2.008 3.243 3.117 5.125 3.122h.014c1.07 0 2.154-.362 3.055-1.02 2.737-1.993 4.43-5.985 4.416-10.42-.01-3.2-.88-6.167-2.45-8.384C13.973 3.61 12.153 2.5 10.27 2.494h-.014m0-2c5.283.015 9.567 6.06 9.59 13.5.015 5.216-2.068 9.733-5.238 12.042-1.19.87-2.666 1.403-4.232 1.403-5.283-.015-9.567-6.06-9.59-13.5C.765 6.508 5.003.494 10.257.494z" class="S"/></g><path d="M9.275 2.653l-.124.001C5.577 2.716 2.617 5.45 2.553 8.75c-.03 1.456.524 2.84 1.557 3.892 1.16 1.182 2.77 1.833 4.535 1.833l.124-.001c3.573-.062 6.533-2.797 6.598-6.097.03-1.456-.524-2.84-1.557-3.892-1.16-1.182-2.77-1.833-4.535-1.833m0-2c4.568 0 8.177 3.446 8.092 7.765-.086 4.37-3.92 7.976-8.562 8.057l-.16.001C4.077 16.476.468 13.03.553 8.71.64 4.343 4.472.735 9.115.654l.16-.001z" transform="matrix(-.913545 -.406737 .406737 -.913545 7294.553 6128.335)" class="S"/><path d="M7304.833 6111.333a16.82 16.82 0 0 0-4.424.323c-1.258.333-2.447.9-3.507 1.645" class="Q R T V"/></g><g transform="matrix(.799 -.602 .602 .799 -9120.498 -236.917)"><g transform="matrix(-.573576 .819152 -.819152 -.573576 7293.522 6110.211)" class="P"><path d="M7.984 20.282c-1.31 0-2.525-.553-3.508-1.598-1.538-1.634-2.32-4.215-2.144-7.08.15-2.47.995-4.83 2.377-6.645 1.352-1.775 3.05-2.81 4.785-2.9l.277-.008c1.31 0 2.525.553 3.508 1.598 1.538 1.634 2.32 4.215 2.144 7.08-.212 3.468-1.83 6.71-4.22 8.457-.886.65-1.93 1.04-2.942 1.098l-.277.008z"/><path d="M9.77 2.54l-.248.007C7.937 2.64 6.37 3.604 5.107 5.262c-1.323 1.737-2.13 4-2.276 6.372-.164 2.688.587 5.195 2.01 6.707.887.943 1.974 1.44 3.144 1.44l.248-.007c.916-.054 1.867-.41 2.676-1.003 2.274-1.663 3.813-4.76 4.016-8.084.164-2.688-.587-5.195-2.01-6.707-.887-.943-1.974-1.44-3.144-1.44m0-1c3.735 0 6.467 4.04 6.152 9.21-.227 3.72-1.974 7.04-4.424 8.83-.924.677-2.045 1.126-3.208 1.194a5.26 5.26 0 0 1-.306.009c-3.735 0-6.467-4.04-6.152-9.21.324-5.308 3.74-9.796 7.632-10.024a5.26 5.26 0 0 1 .306-.009z" class="S"/></g><g transform="matrix(.173648 .984808 -.984808 .173648 7286.547 6106.174)" class="U"><path d="M7.308 10.836a8.16 8.16 0 0 1-.251-.004C3.428 10.72.386 8.214.276 5.246.23 4.033.674 2.908 1.56 2 2.698.807 4.44.13 6.338.13l.25.004c3.628.112 6.67 2.618 6.78 5.586.045 1.212-.398 2.338-1.283 3.256-1.14 1.183-2.882 1.86-4.78 1.86z"/><path d="M6.338.63c-1.763 0-3.374.623-4.42 1.708-.788.818-1.183 1.817-1.143 2.9.048 1.276.708 2.508 1.86 3.47 1.2 1.003 2.777 1.584 4.437 1.635l.236.004c1.763 0 3.374-.623 4.42-1.708.788-.818 1.183-1.817 1.143-2.9-.048-1.276-.708-2.508-1.86-3.47C9.8 1.264 8.234.684 6.574.632L6.338.63m0-1l.267.004c3.892.12 7.145 2.837 7.265 6.067.118 3.156-2.8 5.636-6.562 5.636a8.62 8.62 0 0 1-.267-.004C3.15 11.21-.103 8.495-.224 5.264-.34 2.108 2.575-.37 6.338-.37z" class="S"/></g><path d="M7272.363 6106.343a14.43 14.43 0 0 0 2.127 3.003c.744.73 1.62 1.31 2.58 1.71" class="Q R V"/><g class="P"><g transform="matrix(.990268 .139173 -.139173 .990268 7278.16 6106.505)"><path d="M6.26 20.144c-.022 0-.045 0-.067-.001-1.555-.03-3.052-1.06-4.214-2.906-1.207-1.916-1.896-4.455-1.94-7.15-.03-1.735.22-3.438.72-4.926.477-1.423 1.173-2.625 2.01-3.478C3.665.773 4.7.29 5.763.29l.067.001c1.555.03 3.052 1.06 4.214 2.906 1.207 1.916 1.896 4.455 1.94 7.15.062 3.77-1.182 7.17-3.246 8.87-.735.607-1.592.928-2.48.928z"/><path d="M5.763.79c-1.17 0-2.08.677-2.64 1.245-.786.8-1.44 1.935-1.893 3.286C.75 6.756.5 8.402.538 10.08c.043 2.604.705 5.052 1.864 6.89 1.07 1.698 2.42 2.647 3.8 2.672h.058c.77 0 1.516-.28 2.16-.814 1.95-1.606 3.124-4.854 3.064-8.476-.043-2.604-.705-5.052-1.864-6.89C8.552 1.766 7.202.817 5.82.79h-.058m0-1l.077.001c3.575.067 6.55 4.79 6.646 10.547.067 4.036-1.3 7.51-3.428 9.264-.783.647-1.756 1.042-2.797 1.042-.026 0-.05 0-.077-.001-3.575-.067-6.55-4.79-6.646-10.547C-.557 4.38 2.224-.21 5.763-.21z" class="S"/></g><g transform="matrix(.798636 -.601815 .601815 .798636 7272.805 6111.694)"><path d="M6.7 13.367c-1.363 0-2.608-.525-3.506-1.478-.957-1.016-1.433-2.415-1.342-3.938.194-3.238 2.9-6.03 6.008-6.224l.34-.01c1.363 0 2.608.525 3.506 1.478.957 1.016 1.433 2.415 1.342 3.938-.194 3.238-2.9 6.03-6.008 6.225l-.34.01z"/><path d="M8.2 2.215l-.308.01c-1.38.086-2.716.73-3.766 1.815C3.08 5.133 2.45 6.532 2.362 7.98c-.083 1.385.345 2.65 1.207 3.566.802.852 1.918 1.32 3.142 1.32l.308-.01c1.38-.086 2.716-.73 3.766-1.815 1.057-1.093 1.687-2.492 1.774-3.94.083-1.385-.345-2.65-1.207-3.566-.802-.852-1.918-1.32-3.142-1.32m0-1c3.183 0 5.55 2.588 5.347 5.947-.21 3.487-3.11 6.484-6.476 6.694l-.37.012c-3.183 0-5.55-2.588-5.347-5.947.21-3.487 3.11-6.484 6.476-6.694l.37-.012z" class="S"/></g></g><path d="M7281.937 6126.932a15.5 15.5 0 0 0 1.391-3.516 10.87 10.87 0 0 0 .171-3.388" class="Q R V"/><g transform="matrix(-.309017 -.951057 .951057 -.309017 7279.47 6120.964)" class="P"><path d="M7.23 17.553a5.31 5.31 0 0 1-.187-.003C3.3 17.416.1 13.335-.093 8.452-.2 5.748.634 3.268 2.193 1.646c1.095-1.14 2.44-1.74 3.893-1.74.063 0 .123.001.186.003 3.742.133 6.943 4.214 7.135 9.098.13 3.327-1.193 6.3-3.454 7.76a5 5 0 0 1-2.724.788z"/><path d="M6.086.405c-1.313 0-2.534.55-3.533 1.587C1.088 3.517.306 5.864.407 8.432c.1 2.28.86 4.44 2.166 6.083C3.827 16.09 5.42 16.99 7.06 17.05l.17.003c.888 0 1.736-.245 2.453-.708 2.114-1.363 3.35-4.167 3.226-7.32-.1-2.28-.86-4.44-2.166-6.083C9.488 1.367 7.895.466 6.255.408L6.086.405m0-1L6.3-.59c4.004.142 7.414 4.43 7.617 9.578.142 3.608-1.33 6.68-3.683 8.2-.837.54-1.875.868-2.995.868a5.76 5.76 0 0 1-.205-.004C3.02 17.907-.39 13.62-.592 8.47c-.2-5.06 2.775-9.066 6.68-9.066z" class="S"/></g><path d="M4.957.52C3.716.52 2.563 1 1.7 1.873.83 2.775.362 3.994.393 5.307c.066 2.765 2.322 5.072 5.03 5.144l.13.002c1.242 0 2.395-.48 3.247-1.354.88-.9 1.348-2.12 1.317-3.434C10.05 2.9 7.793.593 5.086.52h-.13m0-1h.155c3.237.086 5.924 2.826 6.002 6.12.077 3.24-2.4 5.812-5.564 5.812-.052 0-.103-.001-.155-.002C2.16 11.365-.528 8.625-.606 5.33-.683 2.1 1.794-.48 4.957-.48z" transform="matrix(-.913545 -.406737 .406737 -.913545 7285.366 6120.104)" class="S"/><path d="M7293.035 6108.7a10.25 10.25 0 0 0-3.02.249 7.11 7.11 0 0 0-2.399 1.265" class="Q R V"/></g><g transform="matrix(.799 -.602 .602 .799 -9431.847 -209.342)"><g transform="matrix(-.573576 .819152 -.819152 -.573576 7300.539 6116.049)" class="P"><path d="M7.987 26.264c-1.825 0-3.505-.767-4.857-2.22-1.007-1.08-1.805-2.526-2.307-4.178C.284 18.1.085 16.164.23 14.11c.25-3.52 1.492-6.89 3.497-9.49C5.675 2.094 8.096.612 10.546.447c.15-.01.302-.015.45-.015 1.825 0 3.505.767 4.857 2.22 1.007 1.08 1.805 2.526 2.307 4.178.538 1.767.736 3.704.59 5.756-.35 4.94-2.708 9.57-6.152 12.086-1.26.922-2.738 1.483-4.163 1.58a6.71 6.71 0 0 1-.45.015z"/><path d="M10.996 1.432l-.383.013C8.453 1.6 6.29 2.935 4.52 5.23 2.634 7.68 1.465 10.858 1.23 14.182c-.137 1.93.048 3.745.55 5.394.46 1.507 1.18 2.817 2.082 3.787 1.158 1.243 2.585 1.9 4.126 1.9l.383-.013c1.238-.084 2.53-.576 3.64-1.39 3.213-2.347 5.414-6.696 5.744-11.35.137-1.93-.048-3.745-.55-5.394-.46-1.507-1.18-2.817-2.082-3.787-1.158-1.243-2.585-1.9-4.126-1.9m0-2c5.398 0 9.28 5.783 8.753 13.224-.382 5.38-2.97 10.2-6.56 12.822-1.354.99-2.99 1.655-4.685 1.77a7.69 7.69 0 0 1-.518.018c-5.398 0-9.28-5.783-8.753-13.224C-.22 6.364 4.813-.168 10.48-.55a7.69 7.69 0 0 1 .518-.018z" class="U"/></g><g transform="matrix(.173648 .984808 -.984808 .173648 7295.174 6108.394)" class="U"><path d="M11.273 16.003a11.92 11.92 0 0 1-.401-.007c-2.538-.086-4.952-.967-6.798-2.48-1.79-1.47-2.823-3.356-2.904-5.312-.068-1.63.528-3.15 1.722-4.394 1.6-1.67 4.085-2.626 6.814-2.626l.4.007c2.538.086 4.952.967 6.798 2.48 1.79 1.47 2.823 3.356 2.904 5.312.068 1.63-.528 3.15-1.722 4.394-1.6 1.67-4.085 2.626-6.814 2.626z"/><path d="M9.707 2.182c-2.458 0-4.68.845-6.092 2.32-1 1.043-1.5 2.31-1.444 3.66.07 1.667.97 3.294 2.54 4.58 1.677 1.376 3.878 2.177 6.197 2.255l.367.006c2.458 0 4.68-.845 6.092-2.318 1-1.043 1.5-2.31 1.444-3.66-.07-1.667-.97-3.294-2.54-4.58-1.677-1.376-3.878-2.177-6.197-2.255l-.367-.006m0-2l.435.007c5.7.192 10.474 4.11 10.667 8.752.188 4.522-4.046 8.062-9.535 8.062-.144 0-.29-.002-.435-.007C5.14 16.804.364 12.885.172 8.244-.016 3.722 4.218.182 9.707.182z"/></g><path d="M7274.22 6109.227a21.16 21.16 0 0 0 3.053 4.399c1.063 1.066 2.32 1.917 3.704 2.51" class="Q R T W"/><g class="P"><g transform="matrix(.990268 .139173 -.139173 .990268 7281.761 6108.914)"><path d="M9.94 29.69c-.035 0-.07 0-.105-.001-2.134-.047-4.204-1.518-5.83-4.142C2.288 22.776 1.3 19.1 1.227 15.2c-.048-2.53.303-5.012 1.015-7.173C2.92 5.973 3.904 4.25 5.1 3.04 6.3 1.805 7.69 1.153 9.11 1.153l.104.001c2.134.047 4.204 1.518 5.83 4.142 1.717 2.772 2.704 6.447 2.778 10.348.103 5.444-1.632 10.336-4.53 12.767-.996.838-2.156 1.28-3.353 1.28z"/><path d="M9.11 2.153c-1.16 0-2.27.534-3.306 1.588-2.295 2.34-3.666 6.723-3.576 11.44.07 3.724 1.004 7.22 2.628 9.84.728 1.175 1.583 2.128 2.472 2.757.83.587 1.68.894 2.53.912l.083.001c1.21 0 2.14-.568 2.7-1.046 1.25-1.048 2.3-2.665 3.036-4.675.792-2.16 1.185-4.687 1.135-7.306-.07-3.724-1.004-7.22-2.628-9.84-.728-1.175-1.583-2.128-2.472-2.757-.83-.587-1.68-.894-2.53-.912H9.11m0-2l.126.001c5.135.112 9.427 7.04 9.587 15.47.112 5.91-1.836 10.993-4.886 13.552-1.118.94-2.508 1.514-3.996 1.514-.042 0-.084 0-.126-.001C4.68 30.577.387 23.65.227 15.22.07 6.856 4.035.153 9.11.153z" class="U"/></g><g transform="matrix(.798636 -.601815 .601815 .798636 7278.049 6117.377)"><path d="M7.063 16.9c-1.863 0-3.555-.715-4.767-2.013-1.3-1.405-1.95-3.354-1.802-5.49.154-2.22 1.133-4.372 2.758-6.06C4.867 1.66 6.92.65 9.03.5l.546-.02c1.863 0 3.555.715 4.767 2.013 1.3 1.405 1.95 3.354 1.802 5.49-.154 2.22-1.133 4.372-2.758 6.06C11.77 15.72 9.72 16.728 7.61 16.88l-.546.02z"/><path d="M9.575 1.48l-.474.017C7.238 1.63 5.416 2.53 3.973 4.03 2.51 5.55 1.63 7.48 1.492 9.466c-.13 1.857.417 3.54 1.536 4.74C4.048 15.298 5.48 15.9 7.063 15.9l.474-.017c1.863-.135 3.685-1.035 5.128-2.534 1.462-1.518 2.343-3.448 2.48-5.435.13-1.857-.417-3.54-1.536-4.74C12.59 2.08 11.158 1.48 9.575 1.48m0-2c4.56 0 7.903 3.715 7.566 8.573-.352 5.074-4.588 9.474-9.46 9.826-.208.015-.415.022-.618.022-4.56 0-7.903-3.715-7.566-8.573C-.15 4.253 4.084-.146 8.957-.5c.208-.015.415-.022.618-.022z" class="U"/></g></g><path d="M7287.965 6139.387a22.96 22.96 0 0 0 1.999-5.146c.336-1.634.418-3.3.244-4.968" class="Q R T W"/><g transform="matrix(-.309017 -.951057 .951057 -.309017 7283.736 6132.194)" class="P"><path d="M12.04 26.16c-.102 0-.206-.002-.31-.006-2.54-.104-5.006-1.476-6.942-3.864-1.986-2.45-3.165-5.655-3.32-9.024-.173-3.76.967-7.212 3.128-9.475 1.538-1.6 3.443-2.462 5.5-2.462l.308.006c2.54.104 5.006 1.476 6.942 3.864 1.986 2.45 3.165 5.655 3.32 9.024.216 4.68-1.642 8.846-4.85 10.868-1.105.7-2.415 1.068-3.787 1.068z"/><path d="M10.106 2.33c-1.787 0-3.442.744-4.787 2.152-1.973 2.066-3.012 5.25-2.852 8.738.145 3.158 1.246 6.156 3.098 8.44 1.752 2.162 3.956 3.403 6.206 3.495l.268.005c1.183 0 2.307-.316 3.253-.914 2.903-1.83 4.582-5.654 4.383-9.977-.145-3.158-1.246-6.156-3.098-8.44-1.752-2.162-3.956-3.403-6.206-3.495a6.56 6.56 0 0 0-.267-.005m0-2c.116 0 .23.002.348.007 5.855.24 10.878 6.436 11.22 13.842.24 5.19-1.886 9.598-5.314 11.76-1.206.763-2.703 1.222-4.32 1.222a8.57 8.57 0 0 1-.35-.007C5.834 26.913.81 20.716.47 13.31.136 6.054 4.423.33 10.106.33z" class="U"/></g><path d="M8.247 2.372c-1.598 0-3.08.62-4.172 1.747-1.162 1.198-1.77 2.838-1.716 4.617.057 1.828.803 3.574 2.1 4.915 1.284 1.326 2.946 2.09 4.68 2.15l.218.004c1.598 0 3.08-.62 4.172-1.746 1.162-1.198 1.77-2.838 1.716-4.616-.057-1.828-.803-3.574-2.1-4.915-1.284-1.326-2.946-2.09-4.68-2.15l-.218-.004m0-2l.287.005c4.663.16 8.564 4.2 8.713 9 .146 4.71-3.362 8.425-7.887 8.425a8.31 8.31 0 0 1-.287-.005c-4.663-.16-8.564-4.2-8.713-9C.214 4.086 3.722.372 8.247.372z" transform="matrix(-.913545 -.406737 .406737 -.913545 7293.544 6130.794)" class="U"/><path d="M7303.9 6112.68c-1.457-.1-2.92.025-4.34.366-1.256.388-2.425 1.016-3.442 1.85" class="Q R T W"/></g><g transform="matrix(.75471 .656059 -.656059 .75471 -1306.478 -9325.378)"><g transform="matrix(-.573576 .819152 -.819152 -.573576 7294.736 6114.839)" class="P"><path d="M6.853 21.228c-1.404 0-2.754-.616-3.905-1.78-1.9-1.934-3.025-5.13-2.982-8.55.036-2.854.85-5.536 2.29-7.552C3.624 1.432 5.39.365 7.227.342h.06c1.404 0 2.754.616 3.905 1.78 1.9 1.934 3.025 5.13 2.982 8.55-.05 3.994-1.662 7.635-4.205 9.503-.905.666-2 1.04-3.055 1.053h-.06z"/><path d="M7.288 1.342H7.24c-1.51.02-2.992.937-4.17 2.586C1.747 5.78 1 8.26.967 10.91c-.04 3.157.967 6.085 2.693 7.833.668.677 1.765 1.483 3.193 1.483H6.9c.858-.01 1.737-.315 2.476-.86 2.296-1.686 3.75-5.024 3.797-8.7.04-3.157-.967-6.085-2.693-7.833-.668-.677-1.765-1.483-3.193-1.483m0-2c4.44 0 7.965 5.057 7.886 11.342-.056 4.43-1.887 8.294-4.613 10.297-1.028.757-2.296 1.23-3.635 1.247h-.073c-4.44 0-7.965-5.057-7.886-11.342C-.954 4.566 2.74-.602 7.215-.658h.073z" class="S"/></g><g transform="matrix(.173648 .984808 -.984808 .173648 7291.516 6108.191)" class="U"><path d="M8.43 13.632a7.85 7.85 0 0 1-.125-.001c-3.8-.06-6.958-2.9-7.018-6.33-.026-1.505.558-2.943 1.645-4.05C4.178 1.986 5.988 1.26 7.898 1.26h.125c3.8.06 6.958 2.9 7.018 6.33.026 1.505-.558 2.943-1.645 4.05-1.245 1.267-3.055 1.994-4.965 1.994z"/><path d="M7.898 2.26c-1.644 0-3.194.618-4.252 1.695-.897.913-1.38 2.096-1.358 3.33.024 1.364.644 2.67 1.745 3.676 1.15 1.05 2.674 1.644 4.29 1.67l.11.001c1.644 0 3.194-.618 4.252-1.695.897-.913 1.38-2.096 1.358-3.33-.024-1.364-.644-2.67-1.745-3.676-1.15-1.05-2.674-1.644-4.29-1.67h-.11m0-2h.14c4.35.07 7.932 3.343 8.002 7.31.07 3.925-3.326 7.06-7.6 7.06-.047 0-.093 0-.14-.001-4.35-.07-7.932-3.343-8.002-7.31C.22 3.394 3.614.26 7.898.26z" class="S"/></g><path d="M7273.312 6109.166c.722 1.227 1.604 2.352 2.62 3.348.937.82 2.014 1.467 3.18 1.905" class="Q R T V"/><g class="P"><g transform="matrix(.990268 .139173 -.139173 .990268 7279.504 6108.613)"><path d="M8.338 22.548H8.32c-1.79-.007-3.502-1.07-4.822-2.997-1.4-2.04-2.176-4.768-2.187-7.68-.013-3.58 1.16-6.9 3.135-8.883 1.125-1.13 2.427-1.726 3.765-1.726h.017c1.79.007 3.502 1.07 4.822 2.997 1.4 2.04 2.176 4.768 2.187 7.68.015 4.067-1.507 7.746-3.97 9.6-.862.65-1.903 1.01-2.93 1.01z"/><path d="M8.212 2.263c-1.347 0-2.406.78-3.057 1.432-1.793 1.8-2.856 4.855-2.844 8.173.01 2.713.724 5.24 2.012 7.117 1.13 1.647 2.55 2.557 4.002 2.562h.012c.81 0 1.638-.286 2.33-.808 1.037-.78 1.918-1.972 2.547-3.446.677-1.587 1.032-3.438 1.025-5.352-.01-2.713-.724-5.24-2.012-7.117-1.13-1.647-2.55-2.557-4.003-2.562h-.012m0-2h.02c4.398.016 7.982 5.242 8.006 11.672.016 4.507-1.72 8.4-4.37 10.403-.993.75-2.224 1.2-3.53 1.2-.007 0-.014 0-.02 0C3.92 23.532.336 18.306.312 11.876.29 5.456 3.824.263 8.212.263z" class="S"/></g><g transform="matrix(.798636 -.601815 .601815 .798636 7277.526 6115.519)"><path d="M6.422 12.917c-1.633 0-3.158-.634-4.295-1.785C.977 9.967.355 8.406.376 6.736.42 3.255 3.265.388 6.716.343h.08c1.633 0 3.158.634 4.295 1.785 1.15 1.165 1.773 2.727 1.75 4.397-.044 3.48-2.888 6.348-6.34 6.393h-.08z"/><path d="M6.797 1.343h-.07C3.815 1.38 1.414 3.806 1.376 6.75c-.018 1.4.502 2.708 1.463 3.68.947.96 2.22 1.487 3.583 1.487h.07c2.914-.038 5.315-2.462 5.352-5.406.018-1.4-.502-2.708-1.463-3.68-.947-.96-2.22-1.487-3.583-1.487m0-2c3.95 0 7.097 3.202 7.046 7.194-.05 4.024-3.332 7.328-7.326 7.38h-.094c-3.95 0-7.097-3.202-7.046-7.194.05-4.024 3.332-7.328 7.326-7.38h.094z" class="S"/></g></g><path d="M7285.115 6132.112a16.39 16.39 0 0 0 1.711-3.919c.29-1.237.362-2.515.214-3.777" class="Q R T V"/><g transform="matrix(-.309017 -.951057 .951057 -.309017 7281.245 6127.59)" class="P"><path d="M9.1 22.247h-.04c-1.85-.014-3.623-1.066-4.99-2.96-1.437-1.993-2.24-4.65-2.263-7.482-.027-3.38 1.102-6.55 3.02-8.484C6 2.132 7.392 1.505 8.828 1.505h.04c1.85.014 3.623 1.066 4.99 2.96 1.437 1.993 2.24 4.65 2.263 7.482.03 3.954-1.507 7.525-4.014 9.32a5.2 5.2 0 0 1-3.004.979z"/><path d="M8.828 2.505c-1.47 0-2.6.827-3.287 1.52-1.734 1.748-2.755 4.654-2.73 7.772.02 2.626.758 5.08 2.074 6.905 1.175 1.63 2.66 2.533 4.185 2.545h.03c.85 0 1.71-.28 2.422-.792 2.247-1.61 3.625-4.866 3.596-8.5-.02-2.626-.758-5.08-2.074-6.905-1.175-1.63-2.66-2.533-4.185-2.545h-.03m0-2h.046C13.378.54 17.07 5.66 17.12 11.94c.035 4.402-1.73 8.206-4.43 10.142a6.17 6.17 0 0 1-3.586 1.166 5.96 5.96 0 0 1-.046 0C4.552 23.212.86 18.092.81 11.812.76 5.554 4.347.505 8.828.505z" class="S"/></g><path d="M7.843 2.673H7.78C4.938 2.706 2.6 4.89 2.564 7.54c-.016 1.19.443 2.318 1.292 3.178.938.95 2.23 1.474 3.635 1.474h.064c2.84-.032 5.18-2.216 5.216-4.867.016-1.19-.443-2.318-1.292-3.178-.938-.95-2.23-1.474-3.635-1.474m0-2c3.882 0 6.976 2.973 6.927 6.68-.05 3.733-3.27 6.795-7.193 6.84H7.5c-3.882 0-6.976-2.973-6.927-6.68C.613 3.78 3.833.718 7.756.674h.087z" transform="matrix(-.913545 -.406737 .406737 -.913545 7290.153 6126.44)" class="S"/><path d="M7298.797 6111.8a13.94 13.94 0 0 0-3.727.276 9.06 9.06 0 0 0-2.956 1.41" class="Q R T V"/></g><g transform="matrix(.799 -.602 .602 .799 -9247.215 -320.339)"><g transform="matrix(-.573576 .819152 -.819152 -.573576 7311.212 6116.489)" class="P"><path d="M14.114 33.636a6.98 6.98 0 0 1-.214-.003c-2.71-.083-5.33-1.74-7.382-4.664-2.126-3.03-3.367-7.025-3.494-11.248-.153-5.097 1.387-9.822 4.12-12.638 1.6-1.65 3.498-2.52 5.49-2.52a6.86 6.86 0 0 1 .213.003c2.71.083 5.33 1.74 7.382 4.664 2.126 3.03 3.367 7.025 3.494 11.248.177 5.89-1.903 11.167-5.43 13.77-1.23.91-2.674 1.39-4.178 1.39z"/><path d="M12.633 3.563c-2.165 0-3.8 1.205-4.77 2.217-2.548 2.626-3.983 7.08-3.838 11.91.12 4.03 1.298 7.832 3.313 10.704 1.866 2.66 4.208 4.165 6.594 4.238.06.002.122.003.183.003 1.29 0 2.528-.412 3.585-1.194 3.266-2.4 5.19-7.366 5.024-12.934-.12-4.03-1.298-7.832-3.313-10.704-1.866-2.66-4.208-4.165-6.594-4.24l-.182-.003m0-2c.08 0 .162.001.244.004 6.268.192 11.57 7.75 11.845 16.88.192 6.4-2.138 11.875-5.835 14.603-1.334.986-2.99 1.585-4.772 1.585-.08 0-.163-.001-.244-.004-6.268-.192-11.57-7.75-11.845-16.88-.27-9.012 4.46-16.188 10.608-16.188z" class="U"/></g><g transform="matrix(.173648 .984808 -.984808 .173648 7302.541 6109.279)" class="U"><path d="M10.378 19.854h-.01c-5.365-.006-9.734-4.346-9.74-9.676a9.55 9.55 0 0 1 2.815-6.802A9.67 9.67 0 0 1 10.332.527h.01c5.365.006 9.734 4.346 9.74 9.676a9.55 9.55 0 0 1-2.815 6.802 9.67 9.67 0 0 1-6.889 2.848z"/><path d="M10.332 1.527c-2.34 0-4.536.907-6.182 2.555-1.63 1.63-2.524 3.795-2.522 6.095.005 4.78 3.926 8.672 8.74 8.677h.012c2.34 0 4.536-.907 6.182-2.555 1.63-1.63 2.525-3.795 2.522-6.095-.005-4.78-3.926-8.672-8.74-8.677h-.008-.003m0-2c5.936.006 10.744 4.786 10.75 10.675s-4.785 10.652-10.704 10.652C4.442 20.848-.366 16.068-.372 10.18S4.413-.473 10.332-.473z"/></g><path d="M7276.01 6109.886a22.25 22.25 0 0 0 3.903 4.548 15.82 15.82 0 0 0 4.734 2.591" class="Q R T W"/><g class="P"><g transform="matrix(.990268 .139173 -.139173 .990268 7285.979 6109.801)"><path d="M11.025 30.35c-2.288 0-4.464-.976-6.294-2.823-1.322-1.334-2.414-3.094-3.158-5.09-.79-2.117-1.178-4.41-1.156-6.82.037-4.02 1.233-7.8 3.368-10.642C5.855 2.217 8.56.685 11.403.66h.07c2.288 0 4.464.976 6.294 2.823 1.322 1.334 2.414 3.094 3.158 5.09.79 2.117 1.178 4.41 1.156 6.82-.052 5.637-2.446 10.78-6.248 13.425-1.397.973-3.08 1.517-4.738 1.53h-.07z"/><path d="M11.472 1.66h-.06c-2.523.022-4.948 1.412-6.827 3.914-2.008 2.673-3.133 6.242-3.168 10.05-.02 2.253.357 4.487 1.093 6.46.695 1.865 1.71 3.503 2.932 4.737C7.08 28.475 9 29.35 11.025 29.35h.06a7.5 7.5 0 0 0 4.175-1.352c3.54-2.462 5.77-7.295 5.82-12.613.02-2.253-.357-4.487-1.093-6.46-.695-1.865-1.71-3.503-2.932-4.737-1.638-1.653-3.568-2.526-5.583-2.526m0-2c6.498 0 11.688 7.026 11.608 15.742-.056 6.134-2.708 11.476-6.678 14.236-1.497 1.043-3.346 1.693-5.3 1.7h-.078c-6.498 0-11.688-7.026-11.608-15.742.08-8.75 5.443-15.9 11.977-15.946h.078z" class="U"/></g><g transform="matrix(.798636 -.601815 .601815 .798636 7279.673 6118.182)"><path d="M12.475 20.814c-.1 0-.2-.002-.302-.005-5.227-.16-9.61-4.462-9.772-9.588-.074-2.37.77-4.59 2.378-6.25 1.65-1.702 3.918-2.64 6.39-2.64.1 0 .2.002.302.005 5.227.16 9.61 4.462 9.772 9.588.074 2.37-.77 4.59-2.378 6.25-1.65 1.702-3.918 2.64-6.39 2.64z"/><path d="M11.17 3.332c-2.198 0-4.212.83-5.67 2.335C4.08 7.13 3.335 9.09 3.4 11.2c.07 2.217 1.022 4.337 2.682 5.968 1.67 1.64 3.843 2.582 6.12 2.652l.27.004c2.198 0 4.212-.83 5.67-2.335 1.418-1.463 2.162-3.424 2.096-5.522-.07-2.217-1.022-4.337-2.682-5.968-1.67-1.64-3.843-2.582-6.12-2.652l-.27-.004m0-2l.332.005c5.755.177 10.563 4.904 10.74 10.557.174 5.544-4.17 9.92-9.766 9.92-.1 0-.22-.002-.332-.005-5.755-.177-10.563-4.904-10.74-10.557-.174-5.544 4.17-9.92 9.766-9.92z" class="U"/></g></g><path d="M7293.578 6141.062a21.39 21.39 0 0 0 2.552-5.324c.43-1.675.536-3.416.315-5.13" class="Q R T W"/><g transform="matrix(-.309017 -.951057 .951057 -.309017 7288.46 6132.938)" class="P"><path d="M9.69 31.745c-1.918 0-3.77-.852-5.352-2.465-2.83-2.884-4.462-7.773-4.364-13.08.08-4.29 1.26-8.335 3.322-11.388C5.278 1.88 7.83.236 10.48.184l.13-.001c1.918 0 3.77.852 5.352 2.465 2.83 2.884 4.462 7.773 4.364 13.08-.11 6.014-2.44 11.52-6.08 14.37-1.316 1.033-2.888 1.617-4.427 1.647l-.13.001z"/><path d="M10.61 1.183l-.11.001c-2.316.045-4.58 1.533-6.375 4.19C2.17 8.267 1.05 12.12.974 16.22c-.047 2.556.328 5.07 1.086 7.268.71 2.063 1.746 3.824 2.99 5.093.97.988 2.562 2.166 4.64 2.166l.11-.001c1.323-.026 2.683-.535 3.83-1.435 3.407-2.67 5.6-7.88 5.695-13.6.047-2.556-.328-5.07-1.086-7.268-.71-2.063-1.746-3.824-2.99-5.093-.97-.988-2.562-2.166-4.64-2.166m0-2c6.102 0 10.887 7.37 10.716 16.563-.12 6.496-2.683 12.178-6.462 15.138-1.425 1.118-3.18 1.824-5.024 1.86l-.148.001c-6.102 0-10.887-7.37-10.716-16.563C-.854 6.915 4.29-.695 10.46-.816l.148-.001z" class="U"/></g><path d="M10.525 1.162l-.428.01c-2.322.1-4.543 1.005-6.254 2.544-1.656 1.49-2.62 3.386-2.716 5.342-.084 1.705.494 3.26 1.672 4.497 1.388 1.457 3.495 2.293 5.78 2.293l.428-.01c2.322-.1 4.543-1.005 6.254-2.544 1.656-1.49 2.62-3.386 2.716-5.342.084-1.705-.494-3.26-1.672-4.497-1.388-1.457-3.495-2.293-5.78-2.293m0-2c5.505 0 9.695 3.89 9.45 8.888-.253 5.154-5.124 9.535-10.88 9.786-.173.008-.345.01-.515.01-5.505 0-9.695-3.89-9.45-8.888C-.618 3.805 4.253-.576 10-.827a11.83 11.83 0 0 1 .515-.011z" transform="matrix(-.913545 -.406737 .406737 -.913545 7300.421 6131.551)" class="U"/><path d="M7313.94 6113.458a22.7 22.7 0 0 0-5.548.376c-1.565.38-3.053 1.027-4.398 1.912" class="Q R T W"/></g><g transform="matrix(.574 -.819 .819 .574 -9165.077 2485.981)"><g transform="matrix(-.573576 .819152 -.819152 -.573576 7298.661 6112.473)" class="P"><path d="M8.865 23.288c-1.47 0-2.884-.644-4.1-1.864-2-2.022-3.168-5.36-3.127-8.932.034-2.977.878-5.774 2.377-7.875 1.426-2 3.27-3.113 5.192-3.134h.058c1.47 0 2.884.644 4.1 1.864 2 2.022 3.168 5.36 3.127 8.932-.048 4.166-1.724 7.963-4.374 9.9-.946.696-2.08 1.086-3.195 1.1h-.058z"/><path d="M9.275 2.483H9.23C7.634 2.5 6.075 3.466 4.84 5.2c-1.38 1.937-2.16 4.53-2.19 7.306-.038 3.31 1.023 6.38 2.84 8.218.707.715 1.866 1.567 3.38 1.567h.046c.907-.01 1.835-.33 2.615-.905 2.402-1.765 3.922-5.258 3.966-9.116.038-3.31-1.023-6.38-2.84-8.217-.707-.715-1.866-1.567-3.38-1.567m0-2c4.62 0 8.292 5.266 8.217 11.807-.053 4.608-1.95 8.625-4.782 10.705-1.068.786-2.385 1.277-3.776 1.293h-.07c-4.62 0-8.292-5.266-8.217-11.807C.723 5.908 4.555.536 9.206.484h.07z" class="U"/></g><g transform="matrix(.173648 .984808 -.984808 .173648 7293.042 6106.789)" class="U"><path d="M8.327 13.813c-.042 0-.084 0-.126-.001C4.224 13.75.94 10.778.878 7.188.85 5.606 1.465 4.096 2.607 2.935 3.908 1.61 5.797.852 7.79.852l.126.001c3.976.062 7.26 3.033 7.323 6.624.027 1.582-.587 3.092-1.728 4.253-1.3 1.324-3.2 2.083-5.182 2.083z"/><path d="M7.79 1.852c-1.725 0-3.354.65-4.47 1.784-.952.968-1.464 2.224-1.442 3.535.025 1.443.677 2.823 1.837 3.885 1.208 1.106 2.806 1.73 4.5 1.756l.11.001c1.725 0 3.354-.65 4.47-1.784.952-.968 1.464-2.224 1.442-3.535-.025-1.443-.677-2.823-1.837-3.885-1.208-1.106-2.806-1.73-4.5-1.756h-.11m0-2l.142.001c4.517.07 8.236 3.476 8.307 7.607.07 4.087-3.46 7.353-7.9 7.353a9.07 9.07 0 0 1-.142-.001C3.668 14.74-.05 11.336-.12 7.205-.19 3.118 3.338-.148 7.79-.148z"/></g><path d="M7274.426 6107.314a16.76 16.76 0 0 0 2.73 3.479c.976.854 2.097 1.524 3.31 1.98" class="Q R T W"/><g class="P"><g transform="matrix(.990268 .139173 -.139173 .990268 7281.319 6107.191)"><path d="M8.166 23.07H8.15c-1.876-.006-3.67-1.117-5.053-3.128-1.46-2.125-2.27-4.964-2.28-7.995C.805 8.225 2.028 4.768 4.1 2.7 5.272 1.514 6.64.888 8.047.888h.016c1.876.006 3.67 1.117 5.053 3.128 1.46 2.125 2.27 4.964 2.28 7.995.014 4.235-1.577 8.068-4.152 10.003-.906.682-2 1.057-3.078 1.057z"/><path d="M8.047 1.888c-1.435 0-2.56.826-3.25 1.518C2.92 5.3 1.806 8.482 1.817 11.944c.01 2.83.757 5.47 2.104 7.432 1.2 1.732 2.693 2.69 4.23 2.694h.014c.864 0 1.743-.304 2.477-.857 1.09-.82 2.017-2.07 2.678-3.612.7-1.658 1.08-3.6 1.075-5.588-.01-2.83-.757-5.47-2.104-7.432-1.2-1.732-2.693-2.69-4.23-2.694h-.014m0-2c4.598.015 8.327 5.44 8.35 12.12.015 4.68-1.795 8.735-4.55 10.805-1.035.78-2.317 1.258-3.68 1.258-4.598-.015-8.327-5.44-8.35-12.12C-.205 5.283 3.478-.112 8.047-.112z" class="U"/></g><g transform="matrix(.798636 -.601815 .601815 .798636 7277.292 6113.687)"><path d="M7.784 14.57c-1.713 0-3.313-.665-4.506-1.872-1.207-1.22-1.86-2.855-1.84-4.602C1.48 4.46 4.45 1.465 8.06 1.423h.077c1.713 0 3.313.665 4.506 1.872 1.207 1.22 1.86 2.855 1.84 4.602-.042 3.637-3.013 6.63-6.623 6.673h-.077z"/><path d="M8.138 2.422h-.066C5 2.46 2.474 5.01 2.438 8.108c-.017 1.478.534 2.858 1.55 3.888C4.993 13.01 6.34 13.57 7.784 13.57h.066c3.07-.036 5.6-2.586 5.635-5.685.017-1.478-.534-2.858-1.55-3.888C10.93 2.982 9.58 2.422 8.138 2.422m0-2c4.113 0 7.395 3.333 7.346 7.486-.05 4.183-3.456 7.613-7.61 7.662h-.09C3.67 15.57.4 12.237.438 8.084.486 3.902 3.894.47 8.05.423l.09-.001z" class="U"/></g></g><path d="M7286.714 6131.146a17 17 0 0 0 1.784-4.069 11.37 11.37 0 0 0 .221-3.923" class="Q R T W"/><g transform="matrix(-.309017 -.951057 .951057 -.309017 7283.064 6125.098)" class="P"><path d="M8.263 22.4h-.037c-1.935-.014-3.784-1.112-5.21-3.092-1.496-2.08-2.33-4.853-2.353-7.81-.025-3.534 1.157-6.85 3.164-8.87C5.06 1.396 6.505.74 8.005.74h.037c1.935.014 3.784 1.112 5.21 3.092 1.496 2.08 2.33 4.853 2.353 7.81.03 4.13-1.577 7.86-4.194 9.74a5.44 5.44 0 0 1-3.147 1.029z"/><path d="M8.005 1.74c-1.552 0-2.742.87-3.467 1.6C2.715 5.177 1.64 8.228 1.664 11.5c.02 2.75.788 5.32 2.165 7.232 1.233 1.715 2.797 2.665 4.404 2.676h.03c.9 0 1.81-.298 2.564-.84 2.357-1.692 3.804-5.1 3.777-8.92-.02-2.75-.788-5.32-2.165-7.233-1.233-1.715-2.797-2.665-4.404-2.676h-.03m0-2h.044c4.677.033 8.507 5.358 8.554 11.894.033 4.582-1.802 8.542-4.6 10.56-1.048.754-2.348 1.217-3.73 1.217-.015 0-.03 0-.044 0C3.54 23.377-.29 18.05-.336 11.515-.382 5 3.348-.26 8.005-.26z" class="U"/></g><path d="M7.31 1.725h-.073C4.234 1.763 1.76 4.07 1.72 6.867c-.018 1.253.464 2.442 1.358 3.348.99 1.003 2.352 1.555 3.837 1.555h.073c3.002-.037 5.476-2.343 5.516-5.14.018-1.253-.464-2.442-1.358-3.348-.99-1.003-2.352-1.555-3.837-1.555m0-2c4.037 0 7.25 3.084 7.194 6.932-.055 3.878-3.41 7.063-7.49 7.113h-.098c-4.037 0-7.25-3.084-7.194-6.932.055-3.878 3.41-7.063 7.49-7.113l.098-.001z" transform="matrix(-.913545 -.406737 .406737 -.913545 7291.568 6124.024)" class="U"/><path d="M7300.958 6110.044c-1.3-.08-2.605.018-3.88.287a9.44 9.44 0 0 0-3.077 1.464" class="Q R T W"/></g><g transform="matrix(-.995 .105 -.105 -.995 8305.434 4353.647)"><g class="P"><g transform="matrix(.990268 .139173 -.139173 .990268 7714.715 5003.089)"><path d="M8.22 23.058h-.035c-1.787-.014-3.505-1.12-4.838-3.112C1.933 17.83 1.14 15.01 1.12 12 1.1 8.255 2.277 4.806 4.292 2.775c1.098-1.106 2.364-1.69 3.66-1.69h.035c1.787.014 3.505 1.12 4.838 3.112 1.415 2.115 2.206 4.937 2.23 7.946.032 4.2-1.478 7.99-3.94 9.894-.85.66-1.88 1.022-2.895 1.022z"/><path d="M7.953 2.085c-1.295 0-2.32.76-2.952 1.395-.853.86-1.57 2.06-2.073 3.473-.543 1.525-.823 3.267-.8 5.04.02 2.816.753 5.443 2.06 7.398.662 1 2.063 2.652 4.015 2.668h.027c.795 0 1.605-.288 2.283-.813 1.036-.8 1.915-2.03 2.54-3.55.676-1.642 1.025-3.56 1-5.545-.02-2.816-.753-5.443-2.06-7.398-.662-1-2.063-2.652-4.015-2.668h-.027m0-2h.043c4.4.035 8.01 5.43 8.06 12.05.035 4.64-1.688 8.65-4.328 10.692-.985.763-2.207 1.23-3.506 1.23a5.35 5.35 0 0 1-.043 0c-4.4-.035-8.01-5.43-8.06-12.05C.07 5.4 3.573.085 7.953.085z" class="S"/></g><g transform="matrix(.798636 -.601815 .601815 .798636 7711.788 5010.558)"><path d="M6.654 13.598c-1.617 0-3.117-.626-4.223-1.76C1.295 10.67.694 9.09.74 7.393.836 3.82 3.77.834 7.28.738l.173-.002c1.617 0 3.117.626 4.223 1.76 1.137 1.168 1.737 2.745 1.692 4.443-.096 3.574-3.03 6.56-6.54 6.655l-.173.002z"/><path d="M7.453 1.736l-.145.002c-1.434.04-2.805.65-3.86 1.72-1.062 1.078-1.67 2.485-1.71 3.96-.038 1.426.462 2.746 1.41 3.72.916.94 2.16 1.46 3.506 1.46l.145-.002c1.434-.04 2.805-.65 3.86-1.72 1.062-1.078 1.67-2.485 1.71-3.96.038-1.426-.462-2.746-1.41-3.72-.916-.94-2.16-1.46-3.506-1.46m0-2c3.944 0 7.023 3.197 6.914 7.23-.1 4.102-3.474 7.518-7.513 7.628l-.2.003C2.7 14.598-.368 11.4-.26 7.366-.15 3.264 3.214-.15 7.253-.26l.2-.003z" class="S"/></g></g><path d="M7720.13 5027.045a17.13 17.13 0 0 0 1.715-4.038c.288-1.276.36-2.59.21-3.9" class="Q R T V"/></g><g transform="matrix(.190809 -.981627 .981627 .190809 -5959.835 6643.304)"><g class="P"><g transform="matrix(.990268 .139173 -.139173 .990268 7714.41 5002.874)"><path d="M6.603 18.514H6.6c-1.63 0-3.174-.917-4.347-2.582C1.043 14.214.378 11.92.38 9.473.383 4.485 3.18.425 6.617.422c1.633 0 3.177.917 4.35 2.582 1.2 1.718 1.876 4.012 1.874 6.46-.002 3.432-1.353 6.552-3.526 8.143-.797.585-1.76.908-2.712.908z"/><path d="M6.617.922c-1.464.001-2.865.845-3.945 2.376C1.518 4.935.88 7.128.88 9.473s.632 4.536 1.783 6.17c1.077 1.528 2.475 2.37 3.94 2.37a4.13 4.13 0 0 0 2.417-.812c2.046-1.498 3.32-4.464 3.32-7.74.002-2.345-.632-4.536-1.783-6.17C9.48 1.764 8.083.922 6.62.922h-.003m.003-1c3.716 0 6.725 4.27 6.72 9.54-.003 3.696-1.486 6.902-3.73 8.546-.847.62-1.895 1.004-3.007 1.005-3.72 0-6.728-4.27-6.724-9.54S2.9-.075 6.617-.078z" class="S"/></g><g transform="matrix(.798636 -.601815 .601815 .798636 7711.372 5008.649)"><path d="M6.355 11.85h-.014C3.28 11.843.786 9.352.78 6.296a5.47 5.47 0 0 1 1.607-3.904c1.042-1.045 2.43-1.62 3.91-1.62H6.3c3.06.007 5.556 2.5 5.563 5.555a5.47 5.47 0 0 1-1.607 3.904c-1.042 1.045-2.43 1.62-3.91 1.62z"/><path d="M6.297 1.272A4.99 4.99 0 0 0 2.74 2.745c-.945.948-1.464 2.208-1.46 3.55.007 2.78 2.278 5.05 5.065 5.056h.01a4.99 4.99 0 0 0 3.557-1.473c.945-.948 1.464-2.208 1.46-3.55-.007-2.78-2.278-5.05-5.065-5.056h-.01m0-1c3.355.008 6.07 2.718 6.077 6.054a6.01 6.01 0 0 1-6.018 6.025C3 12.343.287 9.632.28 6.297A6.01 6.01 0 0 1 6.297.272z" class="S"/></g></g><path d="M7718.866 5021.822c.624-1 1.112-2.08 1.45-3.21.244-1.013.305-2.06.18-3.095" class="Q R V"/></g><g transform="matrix(.951057 .309017 -.309017 .951057 -5731.429 -7093.465)"><g class="P"><g transform="matrix(.990268 .139173 -.139173 .990268 7713.494 5002.272)"><path d="M4.958 13.638H4.95c-1.13-.003-2.207-.66-3.033-1.855-.864-1.25-1.343-2.92-1.347-4.7-.005-2.18.72-4.213 1.94-5.436C3.225.932 4.054.554 4.91.554h.007c1.13.003 2.207.66 3.033 1.855.864 1.25 1.343 2.92 1.347 4.7.006 2.492-.943 4.75-2.475 5.894-.548.4-1.21.635-1.863.635z"/><path d="M4.91 1.054c-.91 0-1.613.515-2.044.947-1.128 1.13-1.798 3.03-1.793 5.08.004 1.68.45 3.25 1.258 4.416.73 1.055 1.66 1.637 2.623 1.64h.006c.546 0 1.1-.2 1.564-.536C7.93 11.55 8.8 9.446 8.796 7.11c-.004-1.68-.45-3.25-1.258-4.416-.73-1.055-1.66-1.637-2.624-1.64H4.91m0-1C7.603.06 9.787 3.218 9.796 7.107c.006 2.726-1.058 5.088-2.676 6.296-.608.455-1.362.735-2.162.735C2.265 14.13.08 10.973.072 7.084S2.228.054 4.91.054z" class="S"/></g><g transform="matrix(.798636 -.601815 .601815 .798636 7711.855 5006.709)"><path d="M4.175 8.188c-1.03 0-1.994-.4-2.715-1.127C.733 6.328.338 5.35.346 4.306.364 2.14 2.132.36 4.288.344h.032c1.03 0 1.994.4 2.715 1.127.727.732 1.122 1.71 1.113 2.755-.018 2.167-1.786 3.944-3.94 3.962h-.032z"/><path d="M4.32.844h-.028C2.407.86.862 2.414.846 4.3a3.34 3.34 0 0 0 .969 2.399 3.3 3.3 0 0 0 2.36.979h.028c1.884-.015 3.43-1.57 3.446-3.466a3.34 3.34 0 0 0-.969-2.399A3.3 3.3 0 0 0 4.32.844m0-1c2.414 0 4.35 1.956 4.33 4.386-.02 2.442-2.007 4.438-4.437 4.458h-.037c-2.414 0-4.35-1.956-4.33-4.386.02-2.442 2.007-4.438 4.437-4.458h.037z" class="S"/></g></g><path d="M7716.838 5016.37c.45-.74.8-1.536 1.043-2.368a6.58 6.58 0 0 0 .13-2.284" class="Q R V"/></g><g transform="matrix(.602 -.799 .799 .602 -8204.935 3430.312)"><g class="P"><g transform="matrix(.990268 .139173 -.139173 .990268 7714.579 5002.991)"><path d="M7.81 21.708h-.026C6.1 21.698 4.462 20.665 3.2 18.8c-1.342-1.985-2.1-4.636-2.107-7.464C1.073 7.833 2.197 4.6 4.1 2.686c1.053-1.06 2.268-1.62 3.513-1.62h.026c1.695.01 3.323 1.043 4.584 2.91 1.342 1.985 2.1 4.636 2.107 7.464.023 3.948-1.42 7.513-3.763 9.305-.81.62-1.8.963-2.756.963z"/><path d="M7.613 2.067c-1.23 0-2.204.72-2.804 1.324-.8.805-1.474 1.927-1.948 3.242-.512 1.422-.777 3.046-.768 4.696.015 2.595.72 5.113 1.935 6.9.62.917 1.933 2.458 3.763 2.47h.02c.748 0 1.51-.27 2.15-.757.98-.748 1.81-1.895 2.405-3.316.643-1.537.977-3.33.966-5.19-.015-2.595-.72-5.113-1.935-6.9-.62-.917-1.933-2.458-3.763-2.47h-.02m0-2h.032c4.207.026 7.648 5.115 7.685 11.367.026 4.383-1.628 8.174-4.156 10.106-.945.724-2.117 1.168-3.364 1.168-.01 0-.02 0-.032 0C3.57 22.682.13 17.593.094 11.34.057 5.105 3.42.067 7.613.067z" class="S"/></g><g transform="matrix(.798636 -.601815 .601815 .798636 7711.78 5010.042)"><path d="M6.462 12.886a5.6 5.6 0 0 1-4.037-1.681C1.34 10.098.762 8.607.795 7.007.865 3.65 3.614.864 6.924.794L7.05.793a5.6 5.6 0 0 1 4.037 1.681c1.084 1.107 1.663 2.598 1.63 4.198-.07 3.356-2.82 6.143-6.13 6.213l-.127.001z"/><path d="M7.05 1.793l-.106.001c-2.78.06-5.092 2.407-5.15 5.234-.028 1.33.45 2.564 1.345 3.478.872.9 2.052 1.38 3.323 1.38l.106-.001c2.78-.06 5.092-2.407 5.15-5.234.028-1.33-.45-2.564-1.345-3.478-.872-.9-2.052-1.38-3.323-1.38m0-2c3.775 0 6.747 3.06 6.667 6.9-.08 3.89-3.263 7.11-7.108 7.192l-.148.002c-3.775 0-6.747-3.06-6.667-6.9.08-3.89 3.263-7.11 7.108-7.192l.148-.002z" class="S"/></g></g><path d="M7719.76 5025.615c.708-1.194 1.258-2.475 1.637-3.8a10.86 10.86 0 0 0 .203-3.679" class="Q R T V"/></g><g transform="matrix(.190809 -.981627 .981627 .190809 -6362.523 6852.845)"><g class="P"><g transform="matrix(.990268 .139173 -.139173 .990268 7715.517 5003.318)"><path d="M9.796 26.117c-1.873 0-3.663-.806-5.177-2.33-1.12-1.13-2.05-2.627-2.686-4.333-.666-1.786-1.01-3.806-.996-5.842.025-3.417 1.02-6.626 2.804-9.035C5.458 2.257 7.7.97 10.05.955h.045c1.873 0 3.663.806 5.177 2.33 1.12 1.13 2.05 2.627 2.686 4.333.666 1.786 1.01 3.806.996 5.842-.034 4.787-2.027 9.15-5.2 11.382-1.153.813-2.542 1.266-3.91 1.275h-.045z"/><path d="M10.094 1.955h-.038C8.028 1.97 6.07 3.11 4.545 5.17c-1.66 2.24-2.585 5.24-2.608 8.448-.027 3.76 1.24 7.297 3.392 9.463.922.928 2.445 2.035 4.467 2.035h.038c1.167-.008 2.354-.396 3.343-1.093 2.914-2.05 4.744-6.1 4.776-10.57.027-3.76-1.24-7.297-3.392-9.463-.922-.928-2.445-2.035-4.467-2.035m0-2c5.504 0 9.912 6.035 9.86 13.513-.038 5.258-2.272 9.833-5.625 12.192-1.265.892-2.827 1.446-4.48 1.457h-.05c-5.504 0-9.912-6.035-9.86-13.513.054-7.5 4.578-13.612 10.105-13.65h.05z" class="S"/></g><g transform="matrix(.798636 -.601815 .601815 .798636 7711.833 5011.763)"><path d="M9.428 16.602a8.11 8.11 0 0 1-.198-.002c-4.357-.106-7.988-3.68-8.093-7.97-.05-2 .677-3.872 2.045-5.274 1.397-1.43 3.305-2.22 5.373-2.22l.198.002c4.357.106 7.988 3.68 8.093 7.97.05 2-.677 3.872-2.045 5.274-1.397 1.43-3.305 2.22-5.373 2.22z"/><path d="M8.555 2.135c-1.796 0-3.45.68-4.657 1.918-1.178 1.207-1.803 2.823-1.76 4.55.093 3.764 3.286 6.902 7.118 6.995l.173.002c1.796 0 3.45-.68 4.657-1.918 1.178-1.207 1.803-2.823 1.76-4.55-.093-3.764-3.286-6.902-7.118-6.995l-.173-.002m0-2l.222.003c4.9.12 8.95 4.124 9.068 8.945.117 4.748-3.633 8.52-8.417 8.52a9.13 9.13 0 0 1-.222-.003c-4.9-.12-8.95-4.124-9.068-8.945C.02 3.906 3.77.135 8.555.135z" class="S"/></g></g><path d="M7722.33 5030.405c.925-1.415 1.65-2.95 2.157-4.565.363-1.437.453-2.93.266-4.4" class="Q R T V"/></g><g transform="matrix(.927184 -.374607 .374607 .927184 -9008.349 -1421.944)"><g class="P"><g transform="matrix(.990268 .139173 -.139173 .990268 7716.2 5003.76)"><use xlink:href="#j"/><use xlink:href="#k" class="S"/></g><g transform="matrix(.798636 -.601815 .601815 .798636 7711.744 5013.881)"><use xlink:href="#l"/><use xlink:href="#m" class="S"/></g></g><path d="M7724.11 5036.356a22.53 22.53 0 0 0 2.515-5.499 14.75 14.75 0 0 0 .31-5.3" class="Q R T V"/></g><g transform="matrix(-.829038 .559193 -.559193 -.829038 9386.131 -27.83)"><g class="P"><g transform="matrix(.990268 .139173 -.139173 .990268 7714.918 5003.214)"><path d="M8.785 24.784h-.042c-1.926-.017-3.777-1.213-5.212-3.37-1.517-2.28-2.368-5.32-2.395-8.558-.034-4.043 1.24-7.762 3.407-9.947C5.72 1.725 7.078 1.097 8.47 1.097h.042c1.926.017 3.777 1.213 5.212 3.37 1.517 2.28 2.368 5.32 2.395 8.558.038 4.522-1.578 8.605-4.217 10.655-.916.713-2.023 1.106-3.117 1.106z"/><path d="M8.47 2.097c-1.415 0-2.53.825-3.217 1.518-.925.933-1.702 2.238-2.246 3.773-.586 1.652-.887 3.54-.87 5.462.025 3.046.816 5.892 2.227 8.012 1.245 1.87 2.804 2.91 4.388 2.923h.033c.873 0 1.762-.318 2.504-.895 1.122-.872 2.072-2.206 2.747-3.858.726-1.777 1.1-3.852 1.083-6-.025-3.046-.816-5.892-2.227-8.012-1.245-1.87-2.804-2.91-4.388-2.923H8.47m0-2h.05c4.7.04 8.54 5.825 8.598 12.918.04 4.972-1.79 9.268-4.603 11.453-1.048.816-2.348 1.316-3.73 1.316-.017 0-.034 0-.05 0-4.7-.04-8.54-5.825-8.598-12.918C.078 5.8 3.805.097 8.47.097z" class="S"/></g><g transform="matrix(.798636 -.601815 .601815 .798636 7711.799 5011.218)"><path d="M7.04 14.59c-1.738 0-3.347-.672-4.53-1.892C1.29 11.442.646 9.74.7 7.908.814 4.046 3.988.813 7.775.7c.068-.002.137-.003.205-.003 1.738 0 3.347.672 4.53 1.892 1.22 1.257 1.863 2.96 1.81 4.792-.114 3.86-3.288 7.095-7.075 7.21-.068.002-.137.003-.205.003z"/><path d="M7.98 1.696l-.175.003c-1.568.047-3.07.72-4.225 1.896C2.415 4.78 1.748 6.32 1.7 7.937c-.046 1.56.496 3.004 1.527 4.065.994 1.024 2.35 1.588 3.814 1.588l.175-.003c1.568-.047 3.07-.72 4.225-1.896 1.165-1.184 1.832-2.726 1.88-4.343.046-1.56-.496-3.004-1.527-4.065C10.8 2.26 9.445 1.696 7.98 1.696m0-2c4.2 0 7.467 3.405 7.34 7.713-.13 4.387-3.73 8.05-8.044 8.18l-.235.004c-4.2 0-7.467-3.405-7.34-7.713C-.17 3.49 3.432-.17 7.745-.3a7.83 7.83 0 0 1 .235-.004z" class="S"/></g></g><path d="M7720.69 5028.89a18.41 18.41 0 0 0 1.823-4.329 12.55 12.55 0 0 0 .225-4.17" class="Q R T V"/></g><g transform="matrix(.190809 -.981627 .981627 .190809 -5999.47 6744.426)"><g class="P"><g transform="matrix(.990268 .139173 -.139173 .990268 7714.664 5002.882)"><path d="M7.652 20.172c-1.405 0-2.75-.608-3.892-1.757C1.978 16.62.927 13.7.95 10.63c.02-2.622.782-5.082 2.15-6.926C4.4 1.95 6.088.976 7.855.964h.034c1.405 0 2.75.608 3.892 1.757 1.782 1.795 2.833 4.706 2.8 7.785-.027 3.668-1.55 7.006-3.972 8.71a5.21 5.21 0 0 1-2.933.956h-.034z"/><path d="M7.89 1.964h-.027c-1.445.01-2.85.84-3.96 2.335-1.24 1.675-1.935 3.926-1.952 6.338-.02 2.82.92 5.463 2.52 7.073.662.667 1.75 1.462 3.182 1.462h.027c.824-.006 1.663-.28 2.365-.774 2.164-1.52 3.523-4.548 3.547-7.9.02-2.82-.92-5.463-2.52-7.073-.662-.667-1.75-1.462-3.182-1.462m0-2c4.3 0 7.745 4.712 7.702 10.55-.03 4.105-1.776 7.678-4.397 9.52-.988.696-2.2 1.13-3.5 1.138h-.04c-4.3 0-7.745-4.712-7.702-10.55C-.007 4.766 3.53-.006 7.848-.036h.04z" class="S"/></g><g transform="matrix(.798636 -.601815 .601815 .798636 7711.785 5009.476)"><path d="M7.373 12.75a6.14 6.14 0 0 1-.152-.002c-3.29-.08-6.03-2.78-6.112-6.015-.038-1.5.507-2.907 1.532-3.958C3.7 1.7 5.124 1.11 6.68 1.11l.152.002c3.29.08 6.03 2.78 6.112 6.015.038 1.5-.507 2.907-1.532 3.958-1.048 1.075-2.483 1.667-4.038 1.667z"/><path d="M6.68 2.11c-1.284 0-2.464.485-3.322 1.365C2.522 4.33 2.08 5.48 2.1 6.71c.033 1.3.583 2.543 1.55 3.498.975.962 2.25 1.51 3.586 1.542h.127c1.284 0 2.464-.485 3.322-1.365.836-.857 1.28-2.006 1.248-3.235-.033-1.3-.583-2.543-1.55-3.498-.975-.962-2.25-1.51-3.586-1.542L6.68 2.11m0-2h.176c3.82.094 6.993 3.223 7.087 6.99.093 3.708-2.834 6.65-6.57 6.65-.06 0-.117-.001-.176-.002C3.377 13.654.204 10.525.1 6.76.017 3.05 2.944.11 6.68.11z" class="S"/></g></g><path d="M7719.99 5024.032a14.4 14.4 0 0 0 1.686-3.564 9.25 9.25 0 0 0 .209-3.436" class="Q R T V"/></g><g transform="matrix(.875 -.485 .485 .875 -8888.248 -625.595)"><g class="P"><g transform="matrix(.990268 .139173 -.139173 .990268 7714.886 5003.298)"><path d="M8.942 25.965a4.44 4.44 0 0 1-.074-.001c-1.902-.032-3.744-1.297-5.185-3.562-1.53-2.403-2.4-5.598-2.452-8.994-.033-2.178.285-4.317.918-6.185.6-1.772 1.472-3.27 2.52-4.334C5.78 1.76 7.056 1.164 8.36 1.164l.074.001c1.902.032 3.744 1.297 5.185 3.562 1.53 2.403 2.4 5.598 2.452 8.994.07 4.738-1.504 9-4.11 11.124-.898.733-1.94 1.12-3.017 1.12z"/><path d="M8.36 2.164c-1.044 0-2.046.48-2.978 1.427-2.003 2.033-3.2 5.79-3.15 9.802.048 3.214.863 6.223 2.295 8.472 1.256 1.972 2.803 3.073 4.36 3.1h.057c1.065 0 1.884-.486 2.385-.896 1.107-.902 2.042-2.293 2.703-4.022.714-1.867 1.073-4.05 1.04-6.31-.048-3.214-.863-6.223-2.295-8.472-1.256-1.972-2.803-3.073-4.36-3.1H8.36m0-2l.1.001c4.65.078 8.51 6.14 8.62 13.54.078 5.188-1.707 9.656-4.48 11.914-1.023.835-2.292 1.345-3.65 1.345a5.4 5.4 0 0 1-.091-.001c-4.65-.078-8.51-6.14-8.62-13.54C.12 6.072 3.752.164 8.36.164z" class="X"/></g><g transform="matrix(.798636 -.601815 .601815 .798636 7711.797 5011.656)"><path d="M6.5 14.798c-1.685 0-3.226-.648-4.34-1.824C.986 11.724.39 10.006.492 8.135.7 4.136 4.026.706 7.886.5a6.79 6.79 0 0 1 .379-.011c1.685 0 3.226.648 4.34 1.824 1.183 1.25 1.78 2.967 1.677 4.838-.217 4-3.534 7.43-7.393 7.646a6.79 6.79 0 0 1-.379.011z"/><path d="M8.264 1.48l-.323.01c-1.606.1-3.164.834-4.388 2.095C2.316 4.86 1.583 6.495 1.49 8.2c-.087 1.594.412 3.048 1.405 4.096.923.975 2.207 1.512 3.614 1.512l.323-.01c1.606-.1 3.164-.834 4.388-2.095 1.238-1.276 1.97-2.912 2.063-4.606.087-1.594-.412-3.048-1.405-4.096-.923-.975-2.207-1.512-3.614-1.512m0-2c4.144 0 7.252 3.368 7.016 7.717-.245 4.5-3.977 8.345-8.336 8.6a7.77 7.77 0 0 1-.435.012c-4.144 0-7.252-3.368-7.016-7.717.245-4.5 3.977-8.345 8.336-8.6a7.77 7.77 0 0 1 .435-.012z" class="X"/></g></g><path d="M7720.6 5030.106c.786-1.426 1.394-2.943 1.808-4.518.305-1.43.38-2.9.224-4.354" class="Q R T Y"/></g><g transform="matrix(.966 .259 -.259 .966 -6120.668 -6735.499)"><g class="P"><g transform="matrix(.990268 .139173 -.139173 .990268 7716.2 5003.76)"><use xlink:href="#j"/><use xlink:href="#k" class="S"/></g><g transform="matrix(.798636 -.601815 .601815 .798636 7711.744 5013.881)"><use xlink:href="#l"/><use xlink:href="#m" class="S"/></g></g><path d="M7724.11 5036.356a22.53 22.53 0 0 0 2.515-5.499 14.75 14.75 0 0 0 .31-5.3" class="Q R T V"/></g><g transform="matrix(.208 -.978 .978 .208 -6208.596 6586.964)"><g class="P"><g transform="matrix(.990268 .139173 -.139173 .990268 7715.614 5003.578)"><path d="M8.51 24.945h-.04c-1.98-.016-3.878-1.234-5.347-3.43-1.552-2.32-2.42-5.412-2.445-8.708C.647 8.702 1.95 4.92 4.163 2.7 5.377 1.467 6.78.82 8.218.82h.04c1.98.016 3.878 1.234 5.347 3.43 1.552 2.32 2.42 5.412 2.445 8.708.035 4.604-1.624 8.763-4.33 10.853-.944.73-2.084 1.133-3.21 1.133z"/><path d="M8.218 1.82c-1.474 0-2.633.856-3.346 1.574-.948.955-1.744 2.287-2.3 3.85-.6 1.68-.908 3.6-.893 5.553.023 3.103.832 6 2.276 8.16 1.28 1.913 2.886 2.974 4.523 2.987h.032c.907 0 1.83-.328 2.6-.924 1.154-.892 2.132-2.255 2.826-3.942.746-1.812 1.13-3.925 1.115-6.112-.023-3.103-.832-6-2.276-8.16-1.28-1.913-2.886-2.974-4.524-2.987h-.03m0-2h.047c4.797.038 8.73 5.917 8.784 13.13.038 5.057-1.84 9.428-4.718 11.652-1.074.83-2.405 1.34-3.822 1.34a5.91 5.91 0 0 1-.047 0c-4.797-.038-8.73-5.917-8.784-13.13C-.376 5.624 3.444-.18 8.218-.18z" class="S"/></g><g transform="matrix(.798636 -.601815 .601815 .798636 7710.492 5011.204)"><path d="M8.363 15.97c-1.787 0-3.445-.692-4.668-1.947-1.256-1.3-1.92-3.033-1.87-4.908.105-3.94 3.342-7.234 7.215-7.34l.2-.003c1.787 0 3.445.692 4.668 1.947 1.256 1.3 1.92 3.033 1.87 4.908-.105 3.94-3.342 7.234-7.215 7.34h-.2z"/><path d="M9.23 2.775l-.163.002c-1.6.044-3.147.73-4.33 1.928-1.2 1.208-1.87 2.784-1.913 4.438-.043 1.602.52 3.088 1.587 4.183a5.46 5.46 0 0 0 3.951 1.645l.163-.002c1.6-.044 3.147-.73 4.33-1.928 1.2-1.208 1.87-2.784 1.913-4.438.043-1.602-.52-3.088-1.587-4.183A5.46 5.46 0 0 0 9.23 2.775m0-2c4.3 0 7.655 3.485 7.538 7.882-.12 4.47-3.785 8.192-8.188 8.312l-.217.003c-4.3 0-7.655-3.485-7.538-7.882C.945 4.62 4.61.897 9.013.778L9.23.775z" class="S"/></g></g><path d="M7721.108 5029.352c.81-1.38 1.437-2.86 1.87-4.4a12.69 12.69 0 0 0 .23-4.24" class="Q R T V"/></g><g transform="matrix(.190809 -.981627 .981627 .190809 -6246.924 6656.761)"><g class="P"><g transform="matrix(.990268 .139173 -.139173 .990268 7715.031 5002.985)"><path d="M8.36 21.536c-1.67 0-3.245-.704-4.556-2.035-1.916-1.944-2.988-4.915-2.94-8.15.04-2.806.92-5.447 2.47-7.436C4.83 2 6.77.93 8.8.903l.08-.001c1.67 0 3.245.704 4.556 2.035 1.916 1.944 2.988 4.915 2.94 8.15-.058 3.93-1.802 7.524-4.552 9.378-1 .675-2.2 1.054-3.382 1.07h-.08z"/><path d="M8.878 1.902h-.065c-1.72.023-3.385.956-4.69 2.628-1.42 1.818-2.22 4.245-2.26 6.835-.022 1.52.218 2.966.713 4.297.458 1.23 1.128 2.314 1.94 3.137.78.792 2.082 1.737 3.844 1.737h.065c1-.013 1.997-.332 2.837-.9 2.483-1.673 4.058-4.954 4.11-8.563.022-1.52-.218-2.966-.713-4.297-.458-1.23-1.128-2.314-1.94-3.137-.78-.792-2.082-1.737-3.844-1.737m0-2c4.792 0 8.588 5 8.497 11.2-.064 4.38-2.046 8.206-4.993 10.192-1.112.75-2.482 1.222-3.928 1.24H8.36c-4.792 0-8.588-5-8.497-11.2.092-6.25 4.086-11.37 8.92-11.433l.092-.001z" class="S"/></g><g transform="matrix(.798636 -.601815 .601815 .798636 7711.806 5010.014)"><path d="M8.664 14.125a6.98 6.98 0 0 1-.334-.008c-3.7-.178-6.856-3.24-7.034-6.825-.08-1.603.46-3.1 1.518-4.2C3.914 1.927 5.46 1.3 7.168 1.3l.334.008c3.7.178 6.856 3.24 7.034 6.825.08 1.603-.46 3.1-1.518 4.2-1.1 1.156-2.646 1.792-4.354 1.792z"/><path d="M7.168 2.3c-1.43 0-2.72.526-3.63 1.48-.867.91-1.31 2.144-1.243 3.47.073 1.472.743 2.897 1.888 4.012 1.158 1.128 2.648 1.8 4.195 1.864l.286.007c1.43 0 2.72-.526 3.63-1.48.867-.91 1.31-2.144 1.243-3.47-.073-1.472-.743-2.897-1.888-4.012C10.49 3.034 9 2.372 7.454 2.297L7.168 2.3m0-2h.382c4.207.202 7.782 3.683 7.984 7.774.196 3.967-2.85 7.05-6.87 7.05a7.94 7.94 0 0 1-.382-.009C4.075 14.914.5 11.433.298 7.342.102 3.375 3.148.3 7.168.3z" class="S"/></g></g><path d="M7721 5025.532c.807-1.172 1.445-2.452 1.893-3.803a9.39 9.39 0 0 0 .229-3.659" class="Q R T V"/></g><g transform="matrix(-1 0 0 -1 8151.42 5077.94)"><g class="P"><g transform="matrix(.990268 .139173 -.139173 .990268 7714.725 5002.775)"><path d="M6.578 16.055c-1.13 0-2.202-.482-3.102-1.394-1.365-1.383-2.13-3.513-2.1-5.844.026-2.01.642-3.895 1.734-5.312C4.14 2.165 5.475 1.42 6.864 1.402h.047c1.13 0 2.202.482 3.102 1.394 1.365 1.383 2.13 3.513 2.1 5.844-.036 2.808-1.256 5.368-3.184 6.68a4.23 4.23 0 0 1-2.306.735h-.047z"/><path d="M6.91 2.402h-.035C4.48 2.43 2.42 5.374 2.375 8.83c-.026 2.035.65 3.952 1.813 5.128.494.5 1.3 1.097 2.39 1.097h.035a3.22 3.22 0 0 0 1.755-.562c1.662-1.13 2.714-3.38 2.747-5.866.026-2.035-.65-3.952-1.813-5.128-.494-.5-1.3-1.097-2.39-1.097m0-2c3.5 0 6.262 3.678 6.203 8.25-.042 3.223-1.48 6.036-3.62 7.493a5.21 5.21 0 0 1-2.856.908h-.06c-3.5 0-6.262-3.678-6.203-8.25.06-4.598 2.96-8.36 6.477-8.402h.06z" class="S"/></g><g transform="matrix(.798636 -.601815 .601815 .798636 7713.931 5008.694)"><path d="M5.443 9.172a4.83 4.83 0 0 1-.204-.004C2.676 9.058.503 6.945.394 4.458c-.048-1.1.33-2.144 1.067-2.914.765-.8 1.835-1.24 3.014-1.24L4.68.3c2.563.11 4.736 2.222 4.844 4.71.048 1.1-.33 2.144-1.067 2.914-.765.8-1.835 1.24-3.014 1.24z"/><path d="M4.475 1.305c-.904 0-1.718.33-2.292.93-.546.57-.826 1.344-.8 2.178.04.94.466 1.85 1.196 2.564.743.725 1.698 1.148 2.69 1.2l.162.003c.904 0 1.718-.33 2.292-.93.546-.57.826-1.344.8-2.178-.04-.94-.466-1.85-1.196-2.564-.743-.725-1.698-1.148-2.69-1.2l-.162-.003m0-2l.247.005c3.073.13 5.67 2.667 5.8 5.665.127 2.917-2.127 5.196-5.08 5.196-.082 0-.164-.002-.247-.005-3.073-.13-5.67-2.667-5.8-5.665-.127-2.917 2.127-5.196 5.08-5.196z" class="S"/></g></g><path d="M7719.457 5019.9c.587-.863 1.05-1.804 1.374-2.796a6.99 6.99 0 0 0 .167-2.693" class="Q R T V"/></g><g transform="matrix(.190809 -.981627 .981627 .190809 -6231.094 6968.633)"><g class="P"><g transform="matrix(.990268 .139173 -.139173 .990268 7715.168 5003.138)"><path d="M8.914 23.653c-1.684 0-3.294-.725-4.656-2.098-1-1.017-1.847-2.368-2.42-3.905-.6-1.612-.912-3.436-.898-5.274.023-3.088.924-5.986 2.538-8.162C5.025 2.13 7.04.972 9.153.957h.042c1.684 0 3.294.725 4.656 2.098 1 1.018 1.847 2.368 2.42 3.905.6 1.612.912 3.436.898 5.274-.032 4.324-1.833 8.26-4.7 10.276-1.036.73-2.283 1.135-3.513 1.144h-.042z"/><path d="M9.195 1.957H9.16C7.37 1.97 5.636 2.983 4.28 4.81c-1.488 2.006-2.32 4.696-2.34 7.573-.025 3.366 1.107 6.53 3.028 8.466.816.822 2.163 1.802 3.946 1.802h.034c1.028-.007 2.073-.35 2.945-.962 2.607-1.832 4.246-5.46 4.276-9.465.025-3.366-1.107-6.53-3.028-8.466-.816-.822-2.163-1.802-3.946-1.802m0-2c5.01 0 9.025 5.486 8.974 12.283-.036 4.78-2.072 8.94-5.126 11.086-1.152.81-2.575 1.315-4.08 1.326h-.05c-5.01 0-9.025-5.486-8.974-12.283C-.01 5.55 4.113-.007 9.146-.043h.05z" class="S"/></g><g transform="matrix(.798636 -.601815 .601815 .798636 7711.813 5010.815)"><path d="M8.602 15.02a7.3 7.3 0 0 1-.184-.002c-3.92-.098-7.188-3.315-7.286-7.17-.046-1.792.603-3.47 1.828-4.727 1.25-1.284 2.963-1.99 4.82-1.99l.184.002c3.92.098 7.188 3.315 7.286 7.17.046 1.792-.603 3.47-1.828 4.727-1.252 1.284-2.963 1.99-4.82 1.99z"/><path d="M7.78 2.13c-1.585 0-3.042.6-4.104 1.69C2.64 4.88 2.092 6.302 2.13 7.822c.04 1.6.718 3.13 1.908 4.302 1.197 1.18 2.76 1.853 4.404 1.894h.16c1.585 0 3.042-.6 4.104-1.69 1.034-1.06 1.583-2.483 1.544-4.003-.04-1.6-.718-3.13-1.908-4.302-1.197-1.18-2.76-1.853-4.404-1.894l-.16-.002m0-2l.21.003c4.45.112 8.15 3.758 8.26 8.145.1 4.318-3.296 7.743-7.648 7.743-.07 0-.14-.001-.21-.003-4.45-.112-8.15-3.758-8.26-8.145C.022 3.555 3.428.13 7.78.13z" class="S"/></g></g><path d="M7721.375 5027.764c.842-1.287 1.504-2.683 1.965-4.15a10.76 10.76 0 0 0 .243-4" class="Q R T V"/></g><g transform="matrix(.190809 -.981627 .981627 .190809 -6193.712 6844.813)"><g class="P"><g transform="matrix(.990268 .139173 -.139173 .990268 7715.669 5003.062)"><path d="M9.313 22.485c-2.184 0-4.255-.9-5.832-2.533C1.554 17.956.51 15.033.62 11.93.83 5.9 5.232.874 10.43.728l.23-.003c2.184 0 4.255.9 5.832 2.533 1.927 1.996 2.97 4.92 2.862 8.02-.145 4.13-2.3 7.95-5.628 9.97-1.24.754-2.726 1.192-4.184 1.233l-.23.003z"/><path d="M10.663 1.725l-.203.003C8.25 1.8 6.114 2.86 4.447 4.74c-1.73 1.95-2.734 4.518-2.828 7.227-.1 2.832.842 5.49 2.582 7.29 1.407 1.457 3.175 2.227 5.113 2.227l.203-.003c1.286-.036 2.597-.422 3.693-1.088 3.042-1.846 5.015-5.352 5.148-9.15.1-2.832-.842-5.49-2.582-7.29-1.407-1.457-3.175-2.227-5.113-2.227m0-2c5.6 0 9.92 5.13 9.693 11.588-.16 4.598-2.58 8.65-6.11 10.8-1.33.81-2.962 1.33-4.674 1.378a9.22 9.22 0 0 1-.259.004c-5.6 0-9.92-5.13-9.693-11.588C-.15 5.337 4.677-.11 10.403-.272l.26-.004z" class="U"/></g><g transform="matrix(.798636 -.601815 .601815 .798636 7711.841 5010.418)"><path d="M11.4 16.196a8.31 8.31 0 0 1-.868-.046c-2.1-.222-4.17-1.204-5.822-2.767-1.64-1.55-2.664-3.475-2.882-5.418-.187-1.67.26-3.207 1.263-4.327 1.067-1.194 2.678-1.852 4.534-1.852a8.31 8.31 0 0 1 .868.046c2.1.222 4.17 1.204 5.822 2.767 1.64 1.55 2.664 3.475 2.882 5.418.187 1.67-.26 3.207-1.263 4.327-1.067 1.194-2.678 1.85-4.534 1.85z"/><path d="M7.624 2.786c-1.568 0-2.913.54-3.788 1.518-.82.92-1.172 2.146-1.015 3.55.192 1.71 1.106 3.414 2.575 4.803 1.495 1.413 3.356 2.3 5.24 2.5a7.31 7.31 0 0 0 .763.041c1.568 0 2.913-.54 3.788-1.518.82-.92 1.172-2.146 1.015-3.55-.192-1.71-1.106-3.414-2.575-4.803-1.495-1.413-3.356-2.3-5.24-2.5a7.31 7.31 0 0 0-.763-.041m0-2a9.27 9.27 0 0 1 .973.052c4.793.505 9.088 4.565 9.593 9.068.47 4.192-2.5 7.3-6.8 7.3a9.27 9.27 0 0 1-.973-.052C5.634 16.64 1.34 12.58.833 8.076c-.47-4.192 2.5-7.3 6.8-7.3z" class="U"/></g></g><path d="M7722.75 5026.656a15.18 15.18 0 0 0 2.241-3.977 8.7 8.7 0 0 0 .278-3.83" class="Q R T W"/></g><g transform="matrix(-.93358 -.358368 .358368 -.93358 5819.496 7790.399)"><g class="P"><g transform="matrix(.990268 .139173 -.139173 .990268 7714.52 5002.962)"><path d="M7.666 21.32H7.64c-1.654-.01-3.245-1.024-4.478-2.852-1.314-1.95-2.048-4.55-2.065-7.328-.02-3.44 1.08-6.616 2.944-8.493 1.026-1.032 2.208-1.578 3.42-1.578h.027c1.654.01 3.245 1.024 4.478 2.852 1.315 1.95 2.048 4.55 2.065 7.328.024 3.875-1.385 7.373-3.678 9.13-.79.607-1.744.94-2.686.94z"/><path d="M7.46 2.068c-1.187 0-2.13.697-2.71 1.282-.782.787-1.44 1.884-1.903 3.173-.5 1.395-.76 2.99-.75 4.61.016 2.544.706 5.014 1.894 6.775.604.896 1.882 2.4 3.655 2.41h.02c.723 0 1.46-.26 2.078-.735.954-.73 1.765-1.852 2.344-3.243.628-1.506.953-3.265.942-5.087-.016-2.544-.706-5.014-1.894-6.775-.604-.896-1.882-2.4-3.655-2.41h-.02m0-2h.033c4.124.027 7.498 5.03 7.537 11.174.027 4.307-1.593 8.032-4.07 9.93-.926.71-2.074 1.147-3.294 1.147a5.16 5.16 0 0 1-.033 0C3.51 22.293.134 17.3.096 11.145.058 5.018 3.352.068 7.46.068z" class="S"/></g><g transform="matrix(.798636 -.601815 .601815 .798636 7711.777 5009.893)"><path d="M6.313 12.626c-1.504 0-2.902-.582-3.936-1.64C1.32 9.905.755 8.447.8 6.882.863 3.595 3.557.86 6.795.79l.132-.001c1.504 0 2.902.582 3.936 1.64 1.058 1.08 1.62 2.54 1.587 4.104-.073 3.287-2.767 6.02-6.005 6.093l-.132.001z"/><path d="M6.927 1.787l-.11.001C4.106 1.85 1.85 4.144 1.8 6.904c-.03 1.294.434 2.495 1.302 3.383.845.863 1.99 1.34 3.22 1.34l.11-.001c2.71-.06 4.967-2.355 5.028-5.115.03-1.294-.434-2.495-1.302-3.383-.845-.863-1.99-1.34-3.22-1.34m0-2c3.7 0 6.606 2.998 6.523 6.766-.085 3.82-3.21 6.986-6.983 7.07l-.154.002c-3.7 0-6.606-2.998-6.523-6.766C-.125 3.04 3-.126 6.773-.21l.154-.002z" class="S"/></g></g><path d="M7719.596 5025.193a15.82 15.82 0 0 0 1.609-3.748 10.7 10.7 0 0 0 .195-3.609" class="Q R T V"/></g><defs ><path id="B" d="M6.898 15.56c-.06 0-.118-.001-.177-.004-1.403-.064-2.77-.877-3.847-2.3-1.11-1.453-1.772-3.353-1.868-5.35-.11-2.316.555-4.4 1.83-5.747.823-.864 1.83-1.32 2.9-1.32l.176.004c1.403.064 2.77.877 3.847 2.3 1.11 1.453 1.772 3.353 1.868 5.35.133 2.777-.886 5.246-2.66 6.44-.606.41-1.325.626-2.078.626z"/><path id="C" d="M5.745 1.348c-.94 0-1.822.403-2.548 1.165-1.162 1.22-1.795 3.23-1.69 5.378.09 1.896.718 3.697 1.766 5.07.987 1.293 2.22 2.037 3.472 2.094l.155.004c.653 0 1.275-.187 1.8-.54 1.63-1.1 2.565-3.4 2.44-6.003-.09-1.896-.718-3.697-1.766-5.07C8.385 2.152 7.15 1.41 5.9 1.352l-.154-.004m0-1l.2.005c3.21.146 5.984 3.78 6.192 8.115.146 3.04-1.007 5.617-2.88 6.88a4.21 4.21 0 0 1-2.357.711 4.4 4.4 0 0 1-.2-.005C3.487 15.908.715 12.275.506 7.94.303 3.693 2.633.348 5.745.348z"/><path id="D" d="M5.303 10.355a3.98 3.98 0 0 1-.113-.002C2.772 10.285.75 8.05.68 5.37c-.034-1.337.44-2.61 1.298-3.5A3.88 3.88 0 0 1 4.773.683l.113.002c2.418.068 4.44 2.304 4.5 4.985.034 1.337-.44 2.61-1.298 3.5a3.88 3.88 0 0 1-2.795 1.195z"/><path id="E" d="M4.773 1.183c-.916 0-1.78.37-2.437 1.044-.766.786-1.187 1.926-1.156 3.13.062 2.42 1.867 4.437 4.024 4.498l.1.001c.916 0 1.78-.37 2.437-1.044.766-.786 1.187-1.926 1.156-3.13-.062-2.42-1.867-4.437-4.024-4.498l-.1-.001m0-1L4.9.185C7.583.26 9.82 2.71 9.896 5.657c.075 2.9-1.97 5.198-4.593 5.198-.042 0-.085-.001-.127-.002C2.492 10.777.256 8.328.18 5.382.105 2.483 2.15.183 4.773.183z"/><path id="F" d="M8.443 21.514a4.64 4.64 0 0 1-.057 0c-1.793-.02-3.515-1.057-4.848-2.915-1.405-1.96-2.198-4.566-2.23-7.34-.04-3.316 1.047-6.42 2.906-8.3 1.126-1.14 2.45-1.743 3.824-1.743h.057c1.793.02 3.515 1.057 4.848 2.915 1.405 1.96 2.198 4.566 2.23 7.34.047 3.87-1.43 7.358-3.854 9.103-.842.607-1.863.94-2.877.94z"/><path id="G" d="M8.038 2.213c-1.393 0-2.462.786-3.113 1.446C3.25 5.355 2.27 8.19 2.307 11.245c.03 2.572.757 4.976 2.044 6.77 1.143 1.594 2.58 2.48 4.048 2.498h.045c.805 0 1.62-.267 2.292-.753 2.164-1.557 3.48-4.73 3.438-8.28-.03-2.572-.757-4.976-2.044-6.77-1.143-1.594-2.58-2.48-4.047-2.498h-.045m0-2h.068c4.38.052 7.993 5.086 8.068 11.244.052 4.317-1.648 8.04-4.27 9.927a5.93 5.93 0 0 1-3.461 1.13c-.023 0-.046 0-.07 0C3.993 22.46.38 17.427.307 11.27.233 5.144 3.69.213 8.038.213z"/><path id="H" d="M7.213 13.464H7.17c-3.32-.023-6.04-2.82-6.062-6.232-.01-1.67.617-3.23 1.77-4.39 1.107-1.115 2.577-1.73 4.14-1.73h.042c3.32.023 6.04 2.82 6.062 6.232.01 1.67-.617 3.23-1.77 4.39-1.107 1.115-2.577 1.73-4.14 1.73z"/><path id="I" d="M7.017 2.112c-1.293 0-2.51.51-3.43 1.434-.963.97-1.488 2.277-1.48 3.68.02 2.87 2.294 5.22 5.07 5.238h.035c1.293 0 2.51-.51 3.43-1.434.963-.97 1.488-2.277 1.48-3.68-.02-2.87-2.294-5.22-5.07-5.238h-.035m0-2h.05c3.87.027 7.028 3.262 7.055 7.225.027 3.946-3.062 7.127-6.908 7.127-.016 0-.033 0-.05 0C3.295 14.437.136 11.202.11 7.24.082 3.292 3.17.112 7.017.112z"/><path id="J" d="M7395.307 6088.346c-.152-1.36-.49-2.695-1.002-3.965-.52-1.104-1.232-2.105-2.105-2.957"/><path id="K" d="M12.295 31.098c-.095 0-.19-.002-.286-.005-2.873-.104-5.656-1.762-7.836-4.668-2.244-2.99-3.566-6.92-3.723-11.06-.093-2.467.228-4.806.956-6.952.684-2.018 1.722-3.787 3-5.115 1.72-1.785 3.8-2.73 6.016-2.73.094 0 .2.002.285.005 2.873.104 5.656 1.762 7.836 4.668 2.244 2.99 3.566 6.92 3.723 11.06.218 5.772-1.93 10.925-5.606 13.45a7.66 7.66 0 0 1-4.365 1.345z"/><path id="L" d="M10.422 1.57c-1.938 0-3.77.838-5.296 2.423C3.95 5.214 3 6.854 2.352 8.734c-.678 2-.99 4.28-.904 6.593.15 3.94 1.4 7.668 3.523 10.498 1.995 2.66 4.507 4.175 7.072 4.268a6.96 6.96 0 0 0 .25.005c1.373 0 2.686-.404 3.8-1.17 3.396-2.332 5.378-7.156 5.173-12.588-.15-3.94-1.4-7.668-3.523-10.498-1.995-2.66-4.507-4.176-7.072-4.268a6.93 6.93 0 0 0-.249-.005m0-2a8.88 8.88 0 0 1 .321.006c6.576.238 12.182 7.7 12.522 16.69.238 6.294-2.176 11.66-6.04 14.312a8.7 8.7 0 0 1-4.931 1.521c-.107 0-.215-.002-.323-.006C5.396 31.854-.2 24.382-.55 15.402-.883 6.57 4.003-.43 10.422-.43z"/><path id="M" d="M10.294 20.554a8.55 8.55 0 0 1-.19-.002C5.06 20.44.866 15.897.754 10.426a10.26 10.26 0 0 1 .69-3.966C1.9 5.265 2.588 4.21 3.457 3.322 5.058 1.688 7.176.788 9.422.788l.2.002c5.043.112 9.238 4.654 9.35 10.125a10.26 10.26 0 0 1-.69 3.966c-.467 1.195-1.144 2.25-2.014 3.138-1.6 1.634-3.72 2.534-5.965 2.534z"/><path id="N" d="M9.422 1.788c-1.975 0-3.84.793-5.25 2.233-1.6 1.644-2.47 3.91-2.418 6.384.102 4.943 3.858 9.046 8.373 9.146l.168.002c1.975 0 3.84-.793 5.25-2.233 1.6-1.644 2.47-3.91 2.418-6.384C17.86 5.993 14.105 1.9 9.6 1.8l-.168-.002m0-2l.212.002c5.58.124 10.205 5.095 10.328 11.104.122 5.932-4.19 10.66-9.668 10.66a9.53 9.53 0 0 1-.212-.002C4.502 21.427-.122 16.456-.246 10.447-.368 4.514 3.943-.212 9.422-.212z"/><path id="O" d="M8.404 24.015h-.01c-2.056-.004-4.016-1.18-5.518-3.314C1.298 18.46.426 15.47.42 12.275.412 8.403 1.715 4.78 3.906 2.586 5.22 1.27 6.75.574 8.33.574h.01c2.056.004 4.016 1.18 5.518 3.314 1.577 2.24 2.45 5.232 2.456 8.426.01 4.468-1.723 8.517-4.52 10.566-.997.732-2.2 1.135-3.4 1.135z"/><path id="P" d="M8.33 1.574c-1.653 0-2.933.934-3.715 1.718-2.007 2.01-3.2 5.368-3.194 8.98.006 2.99.813 5.78 2.273 7.852 1.3 1.86 2.98 2.886 4.703 2.9h.008c.978 0 1.97-.334 2.8-.942 2.544-1.864 4.12-5.603 4.11-9.757-.006-2.99-.813-5.78-2.273-7.852-1.3-1.86-2.98-2.886-4.703-2.9H8.33m0-2c4.954.01 8.97 5.713 8.984 12.738.01 4.925-1.95 9.192-4.928 11.375-1.12.822-2.508 1.328-3.98 1.328-4.954-.01-8.97-5.713-8.985-12.738C-.594 5.257 3.393-.426 8.33-.426z"/><path id="Q" d="M7.808 14.904H7.8C3.924 14.9.767 11.73.763 7.835a7.01 7.01 0 0 1 2.06-4.996A6.95 6.95 0 0 1 7.772.787h.008c3.876.004 7.033 3.176 7.038 7.07a7.01 7.01 0 0 1-2.06 4.996 6.95 6.95 0 0 1-4.949 2.053z"/><path id="R" d="M7.772 1.787c-1.602 0-3.108.625-4.24 1.76C2.39 4.69 1.76 6.212 1.763 7.834c.004 3.343 2.713 6.066 6.036 6.07h.01c1.602 0 3.108-.625 4.24-1.76 1.142-1.143 1.77-2.666 1.768-4.288-.004-3.343-2.713-6.066-6.036-6.07h-.01m0-2c4.443.005 8.04 3.617 8.046 8.068s-3.58 8.05-8.01 8.05C3.366 15.9-.232 12.287-.237 7.836s3.58-8.05 8.01-8.05z"/><path id="S" d="M8.95 22.78c-.028 0-.057 0-.085-.001-1.936-.032-3.798-1.15-5.243-3.147-1.515-2.095-2.377-4.875-2.427-7.83-.06-3.51 1.08-6.797 3.043-8.794 1.205-1.225 2.627-1.873 4.114-1.873h.085c1.936.032 3.798 1.15 5.243 3.147 1.515 2.095 2.377 4.875 2.427 7.83.07 4.12-1.496 7.825-4.083 9.672a5.33 5.33 0 0 1-3.074.995z"/><path id="T" d="M8.353 2.137c-1.53 0-2.695.856-3.4 1.574-1.78 1.8-2.81 4.83-2.756 8.076.046 2.752.84 5.33 2.237 7.26 1.256 1.736 2.836 2.707 4.45 2.733h.068c.878 0 1.763-.287 2.493-.81 2.324-1.658 3.728-5.046 3.664-8.84-.046-2.752-.84-5.33-2.237-7.26-1.256-1.736-2.836-2.707-4.45-2.733h-.068m0-2l.1.001c4.67.077 8.544 5.43 8.653 11.96.076 4.577-1.717 8.515-4.502 10.503-1.025.733-2.296 1.18-3.654 1.18a6.16 6.16 0 0 1-.101-.001C4.18 23.703.305 18.35.196 11.82.088 5.34 3.73.137 8.353.137z"/><path id="U" d="M7.628 14.397c-.02 0-.04 0-.06 0-3.547-.034-6.46-3.06-6.495-6.744-.017-1.812.655-3.498 1.893-4.747C4.136 1.723 5.69 1.07 7.342 1.07h.06c3.547.034 6.46 3.06 6.495 6.744.017 1.812-.655 3.498-1.893 4.747-1.172 1.183-2.726 1.834-4.377 1.834z"/><path id="V" d="M7.342 2.07a5.13 5.13 0 0 0-3.667 1.538C2.626 4.667 2.057 6.1 2.07 7.643c.03 3.143 2.5 5.724 5.505 5.754h.052a5.13 5.13 0 0 0 3.667-1.538c1.048-1.058 1.618-2.49 1.603-4.034-.03-3.143-2.5-5.724-5.505-5.754h-.052m0-2h.07c4.094.04 7.445 3.503 7.485 7.735.04 4.207-3.21 7.59-7.27 7.59-.024 0-.047 0-.07 0C3.463 15.357.11 11.894.07 7.662.032 3.455 3.28.07 7.342.07z"/><path id="W" d="M7.522 17.825a4.39 4.39 0 0 1-.209-.005c-1.59-.076-3.153-1.013-4.398-2.638C1.6 13.477.825 11.248.707 8.904.637 7.53.8 6.23 1.188 5.04c.362-1.105.917-2.072 1.606-2.797.922-.97 2.046-1.482 3.25-1.482l.208.005c1.59.076 3.153 1.013 4.398 2.638 1.305 1.704 2.1 3.933 2.208 6.277.164 3.23-1.002 6.09-3.042 7.456-.668.45-1.462.686-2.296.686z"/><path id="X" d="M6.046 1.762c-1.168 0-2.02.637-2.526 1.17-1.257 1.322-1.935 3.535-1.814 5.92.11 2.144.82 4.175 2.003 5.72C4.772 15.96 6.07 16.76 7.36 16.82l.16.004a3.1 3.1 0 0 0 1.739-.517c1.75-1.173 2.746-3.693 2.6-6.575-.11-2.144-.82-4.175-2.003-5.72-1.063-1.388-2.36-2.186-3.652-2.248l-.16-.004m0-2l.255.006c3.907.187 7.29 4.603 7.557 9.864.187 3.688-1.208 6.812-3.484 8.338-.795.534-1.783.856-2.853.856a5.37 5.37 0 0 1-.257-.006c-3.907-.187-7.29-4.603-7.557-9.864C-.552 3.8 2.266-.238 6.046-.238z"/><path id="Y" d="M6.088 11.88a4.44 4.44 0 0 1-.132-.002c-2.726-.08-5-2.638-5.093-5.7-.04-1.527.492-2.975 1.462-3.972.83-.854 1.927-1.324 3.088-1.324l.132.002c2.726.08 5 2.638 5.093 5.7.04 1.527-.492 2.975-1.462 3.972-.83.854-1.927 1.324-3.088 1.324z"/><path id="Z" d="M5.412 1.883c-1.138 0-1.918.555-2.37 1.02-.783.805-1.213 1.99-1.18 3.248a5.19 5.19 0 0 0 1.33 3.354c.777.855 1.77 1.342 2.794 1.373h.103c1.138 0 1.918-.555 2.37-1.02.783-.805 1.213-1.99 1.18-3.248a5.19 5.19 0 0 0-1.33-3.354c-.777-.855-1.77-1.342-2.794-1.373l-.103-.002m0-2l.162.002c3.25.097 5.966 3.084 6.063 6.672.095 3.528-2.376 6.323-5.55 6.323-.054 0-.108-.001-.162-.002C2.675 12.78-.04 9.794-.137 6.206-.232 2.68 2.24-.117 5.412-.117z"/><path id="a" d="M10.98 30.043c-1.895 0-3.72-.833-5.282-2.41-2.63-2.656-4.173-7.07-4.126-11.803.038-3.895 1.118-7.555 3.04-10.306C6.46 2.882 8.86 1.412 11.368 1.387h.065c1.895 0 3.72.833 5.282 2.41 2.63 2.656 4.173 7.07 4.126 11.803-.054 5.456-2.207 10.432-5.62 12.985-1.235.926-2.718 1.443-4.176 1.458h-.065z"/><path id="b" d="M11.433 2.387h-.055c-2.176.022-4.287 1.34-5.944 3.7-1.808 2.588-2.824 6.048-2.86 9.743-.044 4.473 1.4 8.62 3.837 11.1.954.964 2.522 2.112 4.57 2.112h.055c1.247-.012 2.52-.46 3.587-1.26 3.168-2.37 5.167-7.043 5.218-12.194.044-4.473-1.4-8.62-3.837-11.1-.954-.964-2.522-2.112-4.57-2.112m0-2c5.838 0 10.49 6.792 10.408 15.222-.058 5.934-2.45 11.104-6.02 13.776-1.347 1-3.01 1.64-4.765 1.657h-.075C5.143 31.043.5 24.25.573 15.82.657 7.356 5.485.446 11.358.387h.075z"/><path id="c" d="M9.798 18.267c-2.353 0-4.547-.903-6.178-2.544A8.28 8.28 0 0 1 1.19 9.798c.027-4.7 3.967-8.564 8.782-8.59h.052c2.353 0 4.547.903 6.178 2.544a8.28 8.28 0 0 1 2.43 5.926c-.027 4.7-3.967 8.564-8.782 8.59h-.052z"/><path id="d" d="M10.023 2.207h-.046C5.707 2.23 2.214 5.64 2.2 9.803a7.29 7.29 0 0 0 2.14 5.215c1.442 1.45 3.384 2.25 5.47 2.25h.046c4.27-.024 7.763-3.432 7.787-7.597a7.29 7.29 0 0 0-2.14-5.215c-1.442-1.45-3.384-2.25-5.47-2.25m0-2c5.342 0 9.64 4.23 9.608 9.475-.03 5.263-4.407 9.555-9.776 9.585h-.057c-5.342 0-9.64-4.23-9.608-9.475C.22 4.53 4.597.237 9.965.207h.057z"/><path id="e" d="M14.21 30.708c-.176 0-.355-.006-.532-.017-2.877-.187-5.7-1.87-7.976-4.74C3.382 23.014 1.95 19.2 1.67 15.24c-.316-4.48.89-8.54 3.31-11.135 1.615-1.733 3.636-2.65 5.843-2.65a8.16 8.16 0 0 1 .528.017c2.877.187 5.7 1.87 7.976 4.74 2.32 2.937 3.753 6.742 4.033 10.712.388 5.503-1.572 10.342-5.115 12.63-1.167.755-2.562 1.154-4.035 1.154z"/><path id="f" d="M10.823 2.455c-1.922 0-3.7.806-5.11 2.33-1.047 1.124-1.88 2.62-2.41 4.33-.574 1.856-.788 3.893-.636 6.052.266 3.772 1.622 7.38 3.82 10.162 2.09 2.643 4.666 4.192 7.257 4.36.156.01.313.015.467.015 1.28 0 2.487-.343 3.492-.994 3.236-2.1 5.022-6.58 4.66-11.72-.266-3.772-1.622-7.38-3.82-10.162-2.09-2.643-4.666-4.192-7.257-4.36-.155-.01-.3-.015-.463-.015m0-2c.196 0 .393.006.593.02 6.54.426 12.335 7.76 12.942 16.378.426 6.042-1.81 11.113-5.57 13.54-1.272.824-2.853 1.314-4.577 1.314a9.18 9.18 0 0 1-.597-.019C7.073 31.262 1.28 23.93.672 15.3.084 6.954 4.588.455 10.823.455z"/><path id="g" d="M10.574 21.153a7.54 7.54 0 0 1-.314-.007c-4.764-.2-8.805-4.86-9.007-10.4-.103-2.812.83-5.454 2.56-7.25C5.228 2.04 7.09 1.234 9.06 1.234a7.54 7.54 0 0 1 .314.007c4.764.2 8.805 4.86 9.007 10.4.103 2.812-.83 5.454-2.56 7.25-1.413 1.466-3.277 2.273-5.247 2.273z"/><path id="h" d="M9.06 2.234c-1.72 0-3.286.68-4.527 1.967-1.543 1.6-2.375 3.976-2.282 6.518.1 2.467 1 4.816 2.59 6.615 1.518 1.73 3.457 2.728 5.46 2.812l.272.006c1.72 0 3.286-.68 4.527-1.967 1.543-1.6 2.375-3.976 2.282-6.518-.1-2.467-1-4.816-2.59-6.615-1.518-1.73-3.457-2.728-5.46-2.812l-.272-.006m0-2l.356.007c5.282.22 9.743 5.304 9.964 11.353.216 5.912-3.698 10.56-8.807 10.56a8.49 8.49 0 0 1-.356-.007C4.937 21.924.476 16.84.254 10.793.038 4.88 3.952.234 9.06.234z"/><path id="i" d="M7408.363 6097.802a18.32 18.32 0 0 0-1.542-5.363c-.825-1.52-1.924-2.876-3.242-3.998"/><path id="j" d="M11.57 31.67c-2.174 0-4.266-.946-6.05-2.735C2.652 26.06.947 21.356.96 16.352c.01-4.16 1.17-8.064 3.26-11C6.24 2.537 8.89.978 11.676.97h.018c2.174 0 4.266.946 6.05 2.735 2.87 2.876 4.574 7.58 4.56 12.583-.015 5.83-2.345 11.135-6.083 13.84-1.364.99-3 1.536-4.634 1.54h-.018z"/><path id="k" d="M11.695 1.97h-.016c-2.457.006-4.817 1.417-6.645 3.973C3.06 8.702 1.97 12.4 1.96 16.355c-.012 4.744 1.584 9.183 4.27 11.875 1.593 1.597 3.44 2.44 5.343 2.44h.016c1.416-.003 2.854-.483 4.05-1.35 3.483-2.522 5.655-7.516 5.67-13.033.012-4.744-1.584-9.183-4.27-11.875-1.593-1.597-3.44-2.44-5.343-2.44m0-2c6.438 0 11.634 7.3 11.612 16.32-.016 6.33-2.598 11.826-6.496 14.648-1.47 1.067-3.29 1.725-5.218 1.73h-.02c-6.438 0-11.634-7.3-11.612-16.32C-.018 7.32 5.226-.013 11.674-.03h.02z"/><path id="l" d="M10.715 19.87a9.83 9.83 0 0 1-.084 0c-5.216-.045-9.496-4.302-9.54-9.49-.022-2.48.922-4.81 2.656-6.56C5.493 2.06 7.838 1.1 10.35 1.1h.084c5.216.045 9.496 4.302 9.54 9.49.02 2.48-.922 4.81-2.656 6.56-1.747 1.763-4.093 2.733-6.604 2.733z"/><path id="m" d="M10.35 2.1c-2.242 0-4.335.866-5.894 2.438a8.14 8.14 0 0 0-2.366 5.846c.04 4.645 3.876 8.458 8.55 8.498h.075c2.242 0 4.335-.866 5.894-2.438a8.14 8.14 0 0 0 2.366-5.846c-.04-4.645-3.876-8.458-8.55-8.498h-.075m0-2h.092c5.767.05 10.482 4.742 10.532 10.48.05 5.708-4.536 10.3-10.26 10.3-.03 0-.06 0-.092 0C4.855 20.82.14 16.13.1 10.4.04 4.683 4.626.1 10.35.1z"/></defs></svg>