<svg xmlns="http://www.w3.org/2000/svg" width="1512" height="56" viewBox="0 0 1512 56">
  <defs>
    <style>
      .cls-1 {
        fill: rgba(16,146,114,0.32);
      }
    </style>
  </defs>
  <g id="Component_50_1" data-name="Component 50 – 1" transform="translate(0)">
    <g id="Component_48_2" data-name="Component 48 – 2">
      <path id="endless-clouds" class="cls-1" d="M56,26v2H48.25A15.985,15.985,0,0,1,56,26ZM30,28a2,2,0,0,0-4,0H21.91A25.98,25.98,0,0,0,0,16V14c.67,0,1.34.02,2,.07V14a2,2,0,0,0-2-2V10a4,4,0,0,1,3.98,3.6,28.091,28.091,0,0,1,2.8-3.86A8,8,0,0,0,0,6V4A9.99,9.99,0,0,1,8.17,8.23,27.07,27.07,0,0,1,11.2,5.6,13.98,13.98,0,0,0,0,0H7.75a16.141,16.141,0,0,1,5.1,4.45,27.968,27.968,0,0,1,3.53-1.93A20.1,20.1,0,0,0,14.28,0h2.7q.675.84,1.29,1.74a27.333,27.333,0,0,1,4-1.15c-.11-.2-.23-.4-.36-.59H26V.07a28.4,28.4,0,0,1,4,0V0h4.09l-.37.59a26.764,26.764,0,0,1,4.01,1.15c.4-.6.84-1.18,1.3-1.74h2.69a20.1,20.1,0,0,0-2.1,2.52,27.526,27.526,0,0,1,3.54,1.93A16.08,16.08,0,0,1,48.25,0H56A13.972,13.972,0,0,0,44.8,5.6a27.07,27.07,0,0,1,3.03,2.63A9.99,9.99,0,0,1,56,4V6a8,8,0,0,0-6.769,3.739A28.851,28.851,0,0,1,52.02,13.6,4,4,0,0,1,56,10v2a2,2,0,0,0-2,2.07Q55,14,56,14v2A25.96,25.96,0,0,0,34.09,28ZM7.75,28H0V26A15.956,15.956,0,0,1,7.75,28ZM56,20v2a19.935,19.935,0,0,0-14.28,6h-2.7A21.97,21.97,0,0,1,56,20ZM16.97,28H14.28A19.935,19.935,0,0,0,0,22V20a21.935,21.935,0,0,1,16.97,8Zm15.01-.4a28.09,28.09,0,0,1,2.8-3.86,8,8,0,0,0-13.55,0,28.7,28.7,0,0,1,2.79,3.86,4,4,0,0,1,7.96,0ZM46.27,15.74a27.333,27.333,0,0,1,4-1.15,25.99,25.99,0,0,0-44.55,0,26.765,26.765,0,0,1,4.01,1.15,21.98,21.98,0,0,1,36.54,0Zm-5.43,2.71a28.093,28.093,0,0,1,3.54-1.93,19.98,19.98,0,0,0-32.76,0,27.526,27.526,0,0,1,3.54,1.93,15.98,15.98,0,0,1,25.68,0Zm-4.67,3.78A27.07,27.07,0,0,1,39.2,19.6a13.98,13.98,0,0,0-22.4,0,27.07,27.07,0,0,1,3.03,2.63,9.99,9.99,0,0,1,16.34,0Z" transform="translate(0 0)"/>
      <path id="endless-clouds-2" data-name="endless-clouds" class="cls-1" d="M56,26v2H48.25A15.985,15.985,0,0,1,56,26ZM30,28a2,2,0,0,0-4,0H21.91A25.98,25.98,0,0,0,0,16V14c.67,0,1.34.02,2,.07V14a2,2,0,0,0-2-2V10a4,4,0,0,1,3.98,3.6,28.091,28.091,0,0,1,2.8-3.86A8,8,0,0,0,0,6V4A9.99,9.99,0,0,1,8.17,8.23,27.07,27.07,0,0,1,11.2,5.6,13.98,13.98,0,0,0,0,0H7.75a16.141,16.141,0,0,1,5.1,4.45,27.968,27.968,0,0,1,3.53-1.93A20.1,20.1,0,0,0,14.28,0h2.7q.675.84,1.29,1.74a27.333,27.333,0,0,1,4-1.15c-.11-.2-.23-.4-.36-.59H26V.07a28.4,28.4,0,0,1,4,0V0h4.09l-.37.59a26.764,26.764,0,0,1,4.01,1.15c.4-.6.84-1.18,1.3-1.74h2.69a20.1,20.1,0,0,0-2.1,2.52,27.526,27.526,0,0,1,3.54,1.93A16.08,16.08,0,0,1,48.25,0H56A13.972,13.972,0,0,0,44.8,5.6a27.07,27.07,0,0,1,3.03,2.63A9.99,9.99,0,0,1,56,4V6a8,8,0,0,0-6.769,3.739A28.851,28.851,0,0,1,52.02,13.6,4,4,0,0,1,56,10v2a2,2,0,0,0-2,2.07Q55,14,56,14v2A25.96,25.96,0,0,0,34.09,28ZM7.75,28H0V26A15.956,15.956,0,0,1,7.75,28ZM56,20v2a19.935,19.935,0,0,0-14.28,6h-2.7A21.97,21.97,0,0,1,56,20ZM16.97,28H14.28A19.935,19.935,0,0,0,0,22V20a21.935,21.935,0,0,1,16.97,8Zm15.01-.4a28.09,28.09,0,0,1,2.8-3.86,8,8,0,0,0-13.55,0,28.7,28.7,0,0,1,2.79,3.86,4,4,0,0,1,7.96,0ZM46.27,15.74a27.333,27.333,0,0,1,4-1.15,25.99,25.99,0,0,0-44.55,0,26.765,26.765,0,0,1,4.01,1.15,21.98,21.98,0,0,1,36.54,0Zm-5.43,2.71a28.093,28.093,0,0,1,3.54-1.93,19.98,19.98,0,0,0-32.76,0,27.526,27.526,0,0,1,3.54,1.93,15.98,15.98,0,0,1,25.68,0Zm-4.67,3.78A27.07,27.07,0,0,1,39.2,19.6a13.98,13.98,0,0,0-22.4,0,27.07,27.07,0,0,1,3.03,2.63,9.99,9.99,0,0,1,16.34,0Z" transform="translate(56 0)"/>
      <path id="endless-clouds-3" data-name="endless-clouds" class="cls-1" d="M56,26v2H48.25A15.985,15.985,0,0,1,56,26ZM30,28a2,2,0,0,0-4,0H21.91A25.98,25.98,0,0,0,0,16V14c.67,0,1.34.02,2,.07V14a2,2,0,0,0-2-2V10a4,4,0,0,1,3.98,3.6,28.091,28.091,0,0,1,2.8-3.86A8,8,0,0,0,0,6V4A9.99,9.99,0,0,1,8.17,8.23,27.07,27.07,0,0,1,11.2,5.6,13.98,13.98,0,0,0,0,0H7.75a16.141,16.141,0,0,1,5.1,4.45,27.968,27.968,0,0,1,3.53-1.93A20.1,20.1,0,0,0,14.28,0h2.7q.675.84,1.29,1.74a27.333,27.333,0,0,1,4-1.15c-.11-.2-.23-.4-.36-.59H26V.07a28.4,28.4,0,0,1,4,0V0h4.09l-.37.59a26.764,26.764,0,0,1,4.01,1.15c.4-.6.84-1.18,1.3-1.74h2.69a20.1,20.1,0,0,0-2.1,2.52,27.526,27.526,0,0,1,3.54,1.93A16.08,16.08,0,0,1,48.25,0H56A13.972,13.972,0,0,0,44.8,5.6a27.07,27.07,0,0,1,3.03,2.63A9.99,9.99,0,0,1,56,4V6a8,8,0,0,0-6.769,3.739A28.851,28.851,0,0,1,52.02,13.6,4,4,0,0,1,56,10v2a2,2,0,0,0-2,2.07Q55,14,56,14v2A25.96,25.96,0,0,0,34.09,28ZM7.75,28H0V26A15.956,15.956,0,0,1,7.75,28ZM56,20v2a19.935,19.935,0,0,0-14.28,6h-2.7A21.97,21.97,0,0,1,56,20ZM16.97,28H14.28A19.935,19.935,0,0,0,0,22V20a21.935,21.935,0,0,1,16.97,8Zm15.01-.4a28.09,28.09,0,0,1,2.8-3.86,8,8,0,0,0-13.55,0,28.7,28.7,0,0,1,2.79,3.86,4,4,0,0,1,7.96,0ZM46.27,15.74a27.333,27.333,0,0,1,4-1.15,25.99,25.99,0,0,0-44.55,0,26.765,26.765,0,0,1,4.01,1.15,21.98,21.98,0,0,1,36.54,0Zm-5.43,2.71a28.093,28.093,0,0,1,3.54-1.93,19.98,19.98,0,0,0-32.76,0,27.526,27.526,0,0,1,3.54,1.93,15.98,15.98,0,0,1,25.68,0Zm-4.67,3.78A27.07,27.07,0,0,1,39.2,19.6a13.98,13.98,0,0,0-22.4,0,27.07,27.07,0,0,1,3.03,2.63,9.99,9.99,0,0,1,16.34,0Z" transform="translate(112 0)"/>
      <path id="endless-clouds-4" data-name="endless-clouds" class="cls-1" d="M56,26v2H48.25A15.985,15.985,0,0,1,56,26ZM30,28a2,2,0,0,0-4,0H21.91A25.98,25.98,0,0,0,0,16V14c.67,0,1.34.02,2,.07V14a2,2,0,0,0-2-2V10a4,4,0,0,1,3.98,3.6,28.091,28.091,0,0,1,2.8-3.86A8,8,0,0,0,0,6V4A9.99,9.99,0,0,1,8.17,8.23,27.07,27.07,0,0,1,11.2,5.6,13.98,13.98,0,0,0,0,0H7.75a16.141,16.141,0,0,1,5.1,4.45,27.968,27.968,0,0,1,3.53-1.93A20.1,20.1,0,0,0,14.28,0h2.7q.675.84,1.29,1.74a27.333,27.333,0,0,1,4-1.15c-.11-.2-.23-.4-.36-.59H26V.07a28.4,28.4,0,0,1,4,0V0h4.09l-.37.59a26.764,26.764,0,0,1,4.01,1.15c.4-.6.84-1.18,1.3-1.74h2.69a20.1,20.1,0,0,0-2.1,2.52,27.526,27.526,0,0,1,3.54,1.93A16.08,16.08,0,0,1,48.25,0H56A13.972,13.972,0,0,0,44.8,5.6a27.07,27.07,0,0,1,3.03,2.63A9.99,9.99,0,0,1,56,4V6a8,8,0,0,0-6.769,3.739A28.851,28.851,0,0,1,52.02,13.6,4,4,0,0,1,56,10v2a2,2,0,0,0-2,2.07Q55,14,56,14v2A25.96,25.96,0,0,0,34.09,28ZM7.75,28H0V26A15.956,15.956,0,0,1,7.75,28ZM56,20v2a19.935,19.935,0,0,0-14.28,6h-2.7A21.97,21.97,0,0,1,56,20ZM16.97,28H14.28A19.935,19.935,0,0,0,0,22V20a21.935,21.935,0,0,1,16.97,8Zm15.01-.4a28.09,28.09,0,0,1,2.8-3.86,8,8,0,0,0-13.55,0,28.7,28.7,0,0,1,2.79,3.86,4,4,0,0,1,7.96,0ZM46.27,15.74a27.333,27.333,0,0,1,4-1.15,25.99,25.99,0,0,0-44.55,0,26.765,26.765,0,0,1,4.01,1.15,21.98,21.98,0,0,1,36.54,0Zm-5.43,2.71a28.093,28.093,0,0,1,3.54-1.93,19.98,19.98,0,0,0-32.76,0,27.526,27.526,0,0,1,3.54,1.93,15.98,15.98,0,0,1,25.68,0Zm-4.67,3.78A27.07,27.07,0,0,1,39.2,19.6a13.98,13.98,0,0,0-22.4,0,27.07,27.07,0,0,1,3.03,2.63,9.99,9.99,0,0,1,16.34,0Z" transform="translate(0 28)"/>
      <path id="endless-clouds-5" data-name="endless-clouds" class="cls-1" d="M56,26v2H48.25A15.985,15.985,0,0,1,56,26ZM30,28a2,2,0,0,0-4,0H21.91A25.98,25.98,0,0,0,0,16V14c.67,0,1.34.02,2,.07V14a2,2,0,0,0-2-2V10a4,4,0,0,1,3.98,3.6,28.091,28.091,0,0,1,2.8-3.86A8,8,0,0,0,0,6V4A9.99,9.99,0,0,1,8.17,8.23,27.07,27.07,0,0,1,11.2,5.6,13.98,13.98,0,0,0,0,0H7.75a16.141,16.141,0,0,1,5.1,4.45,27.968,27.968,0,0,1,3.53-1.93A20.1,20.1,0,0,0,14.28,0h2.7q.675.84,1.29,1.74a27.333,27.333,0,0,1,4-1.15c-.11-.2-.23-.4-.36-.59H26V.07a28.4,28.4,0,0,1,4,0V0h4.09l-.37.59a26.764,26.764,0,0,1,4.01,1.15c.4-.6.84-1.18,1.3-1.74h2.69a20.1,20.1,0,0,0-2.1,2.52,27.526,27.526,0,0,1,3.54,1.93A16.08,16.08,0,0,1,48.25,0H56A13.972,13.972,0,0,0,44.8,5.6a27.07,27.07,0,0,1,3.03,2.63A9.99,9.99,0,0,1,56,4V6a8,8,0,0,0-6.769,3.739A28.851,28.851,0,0,1,52.02,13.6,4,4,0,0,1,56,10v2a2,2,0,0,0-2,2.07Q55,14,56,14v2A25.96,25.96,0,0,0,34.09,28ZM7.75,28H0V26A15.956,15.956,0,0,1,7.75,28ZM56,20v2a19.935,19.935,0,0,0-14.28,6h-2.7A21.97,21.97,0,0,1,56,20ZM16.97,28H14.28A19.935,19.935,0,0,0,0,22V20a21.935,21.935,0,0,1,16.97,8Zm15.01-.4a28.09,28.09,0,0,1,2.8-3.86,8,8,0,0,0-13.55,0,28.7,28.7,0,0,1,2.79,3.86,4,4,0,0,1,7.96,0ZM46.27,15.74a27.333,27.333,0,0,1,4-1.15,25.99,25.99,0,0,0-44.55,0,26.765,26.765,0,0,1,4.01,1.15,21.98,21.98,0,0,1,36.54,0Zm-5.43,2.71a28.093,28.093,0,0,1,3.54-1.93,19.98,19.98,0,0,0-32.76,0,27.526,27.526,0,0,1,3.54,1.93,15.98,15.98,0,0,1,25.68,0Zm-4.67,3.78A27.07,27.07,0,0,1,39.2,19.6a13.98,13.98,0,0,0-22.4,0,27.07,27.07,0,0,1,3.03,2.63,9.99,9.99,0,0,1,16.34,0Z" transform="translate(56 28)"/>
      <path id="endless-clouds-6" data-name="endless-clouds" class="cls-1" d="M56,26v2H48.25A15.985,15.985,0,0,1,56,26ZM30,28a2,2,0,0,0-4,0H21.91A25.98,25.98,0,0,0,0,16V14c.67,0,1.34.02,2,.07V14a2,2,0,0,0-2-2V10a4,4,0,0,1,3.98,3.6,28.091,28.091,0,0,1,2.8-3.86A8,8,0,0,0,0,6V4A9.99,9.99,0,0,1,8.17,8.23,27.07,27.07,0,0,1,11.2,5.6,13.98,13.98,0,0,0,0,0H7.75a16.141,16.141,0,0,1,5.1,4.45,27.968,27.968,0,0,1,3.53-1.93A20.1,20.1,0,0,0,14.28,0h2.7q.675.84,1.29,1.74a27.333,27.333,0,0,1,4-1.15c-.11-.2-.23-.4-.36-.59H26V.07a28.4,28.4,0,0,1,4,0V0h4.09l-.37.59a26.764,26.764,0,0,1,4.01,1.15c.4-.6.84-1.18,1.3-1.74h2.69a20.1,20.1,0,0,0-2.1,2.52,27.526,27.526,0,0,1,3.54,1.93A16.08,16.08,0,0,1,48.25,0H56A13.972,13.972,0,0,0,44.8,5.6a27.07,27.07,0,0,1,3.03,2.63A9.99,9.99,0,0,1,56,4V6a8,8,0,0,0-6.769,3.739A28.851,28.851,0,0,1,52.02,13.6,4,4,0,0,1,56,10v2a2,2,0,0,0-2,2.07Q55,14,56,14v2A25.96,25.96,0,0,0,34.09,28ZM7.75,28H0V26A15.956,15.956,0,0,1,7.75,28ZM56,20v2a19.935,19.935,0,0,0-14.28,6h-2.7A21.97,21.97,0,0,1,56,20ZM16.97,28H14.28A19.935,19.935,0,0,0,0,22V20a21.935,21.935,0,0,1,16.97,8Zm15.01-.4a28.09,28.09,0,0,1,2.8-3.86,8,8,0,0,0-13.55,0,28.7,28.7,0,0,1,2.79,3.86,4,4,0,0,1,7.96,0ZM46.27,15.74a27.333,27.333,0,0,1,4-1.15,25.99,25.99,0,0,0-44.55,0,26.765,26.765,0,0,1,4.01,1.15,21.98,21.98,0,0,1,36.54,0Zm-5.43,2.71a28.093,28.093,0,0,1,3.54-1.93,19.98,19.98,0,0,0-32.76,0,27.526,27.526,0,0,1,3.54,1.93,15.98,15.98,0,0,1,25.68,0Zm-4.67,3.78A27.07,27.07,0,0,1,39.2,19.6a13.98,13.98,0,0,0-22.4,0,27.07,27.07,0,0,1,3.03,2.63,9.99,9.99,0,0,1,16.34,0Z" transform="translate(112 28)"/>
    </g>
    <g id="Component_48_3" data-name="Component 48 – 3" transform="translate(168)">
      <path id="endless-clouds-7" data-name="endless-clouds" class="cls-1" d="M56,26v2H48.25A15.985,15.985,0,0,1,56,26ZM30,28a2,2,0,0,0-4,0H21.91A25.98,25.98,0,0,0,0,16V14c.67,0,1.34.02,2,.07V14a2,2,0,0,0-2-2V10a4,4,0,0,1,3.98,3.6,28.091,28.091,0,0,1,2.8-3.86A8,8,0,0,0,0,6V4A9.99,9.99,0,0,1,8.17,8.23,27.07,27.07,0,0,1,11.2,5.6,13.98,13.98,0,0,0,0,0H7.75a16.141,16.141,0,0,1,5.1,4.45,27.968,27.968,0,0,1,3.53-1.93A20.1,20.1,0,0,0,14.28,0h2.7q.675.84,1.29,1.74a27.333,27.333,0,0,1,4-1.15c-.11-.2-.23-.4-.36-.59H26V.07a28.4,28.4,0,0,1,4,0V0h4.09l-.37.59a26.764,26.764,0,0,1,4.01,1.15c.4-.6.84-1.18,1.3-1.74h2.69a20.1,20.1,0,0,0-2.1,2.52,27.526,27.526,0,0,1,3.54,1.93A16.08,16.08,0,0,1,48.25,0H56A13.972,13.972,0,0,0,44.8,5.6a27.07,27.07,0,0,1,3.03,2.63A9.99,9.99,0,0,1,56,4V6a8,8,0,0,0-6.769,3.739A28.851,28.851,0,0,1,52.02,13.6,4,4,0,0,1,56,10v2a2,2,0,0,0-2,2.07Q55,14,56,14v2A25.96,25.96,0,0,0,34.09,28ZM7.75,28H0V26A15.956,15.956,0,0,1,7.75,28ZM56,20v2a19.935,19.935,0,0,0-14.28,6h-2.7A21.97,21.97,0,0,1,56,20ZM16.97,28H14.28A19.935,19.935,0,0,0,0,22V20a21.935,21.935,0,0,1,16.97,8Zm15.01-.4a28.09,28.09,0,0,1,2.8-3.86,8,8,0,0,0-13.55,0,28.7,28.7,0,0,1,2.79,3.86,4,4,0,0,1,7.96,0ZM46.27,15.74a27.333,27.333,0,0,1,4-1.15,25.99,25.99,0,0,0-44.55,0,26.765,26.765,0,0,1,4.01,1.15,21.98,21.98,0,0,1,36.54,0Zm-5.43,2.71a28.093,28.093,0,0,1,3.54-1.93,19.98,19.98,0,0,0-32.76,0,27.526,27.526,0,0,1,3.54,1.93,15.98,15.98,0,0,1,25.68,0Zm-4.67,3.78A27.07,27.07,0,0,1,39.2,19.6a13.98,13.98,0,0,0-22.4,0,27.07,27.07,0,0,1,3.03,2.63,9.99,9.99,0,0,1,16.34,0Z" transform="translate(0 0)"/>
      <path id="endless-clouds-8" data-name="endless-clouds" class="cls-1" d="M56,26v2H48.25A15.985,15.985,0,0,1,56,26ZM30,28a2,2,0,0,0-4,0H21.91A25.98,25.98,0,0,0,0,16V14c.67,0,1.34.02,2,.07V14a2,2,0,0,0-2-2V10a4,4,0,0,1,3.98,3.6,28.091,28.091,0,0,1,2.8-3.86A8,8,0,0,0,0,6V4A9.99,9.99,0,0,1,8.17,8.23,27.07,27.07,0,0,1,11.2,5.6,13.98,13.98,0,0,0,0,0H7.75a16.141,16.141,0,0,1,5.1,4.45,27.968,27.968,0,0,1,3.53-1.93A20.1,20.1,0,0,0,14.28,0h2.7q.675.84,1.29,1.74a27.333,27.333,0,0,1,4-1.15c-.11-.2-.23-.4-.36-.59H26V.07a28.4,28.4,0,0,1,4,0V0h4.09l-.37.59a26.764,26.764,0,0,1,4.01,1.15c.4-.6.84-1.18,1.3-1.74h2.69a20.1,20.1,0,0,0-2.1,2.52,27.526,27.526,0,0,1,3.54,1.93A16.08,16.08,0,0,1,48.25,0H56A13.972,13.972,0,0,0,44.8,5.6a27.07,27.07,0,0,1,3.03,2.63A9.99,9.99,0,0,1,56,4V6a8,8,0,0,0-6.769,3.739A28.851,28.851,0,0,1,52.02,13.6,4,4,0,0,1,56,10v2a2,2,0,0,0-2,2.07Q55,14,56,14v2A25.96,25.96,0,0,0,34.09,28ZM7.75,28H0V26A15.956,15.956,0,0,1,7.75,28ZM56,20v2a19.935,19.935,0,0,0-14.28,6h-2.7A21.97,21.97,0,0,1,56,20ZM16.97,28H14.28A19.935,19.935,0,0,0,0,22V20a21.935,21.935,0,0,1,16.97,8Zm15.01-.4a28.09,28.09,0,0,1,2.8-3.86,8,8,0,0,0-13.55,0,28.7,28.7,0,0,1,2.79,3.86,4,4,0,0,1,7.96,0ZM46.27,15.74a27.333,27.333,0,0,1,4-1.15,25.99,25.99,0,0,0-44.55,0,26.765,26.765,0,0,1,4.01,1.15,21.98,21.98,0,0,1,36.54,0Zm-5.43,2.71a28.093,28.093,0,0,1,3.54-1.93,19.98,19.98,0,0,0-32.76,0,27.526,27.526,0,0,1,3.54,1.93,15.98,15.98,0,0,1,25.68,0Zm-4.67,3.78A27.07,27.07,0,0,1,39.2,19.6a13.98,13.98,0,0,0-22.4,0,27.07,27.07,0,0,1,3.03,2.63,9.99,9.99,0,0,1,16.34,0Z" transform="translate(56 0)"/>
      <path id="endless-clouds-9" data-name="endless-clouds" class="cls-1" d="M56,26v2H48.25A15.985,15.985,0,0,1,56,26ZM30,28a2,2,0,0,0-4,0H21.91A25.98,25.98,0,0,0,0,16V14c.67,0,1.34.02,2,.07V14a2,2,0,0,0-2-2V10a4,4,0,0,1,3.98,3.6,28.091,28.091,0,0,1,2.8-3.86A8,8,0,0,0,0,6V4A9.99,9.99,0,0,1,8.17,8.23,27.07,27.07,0,0,1,11.2,5.6,13.98,13.98,0,0,0,0,0H7.75a16.141,16.141,0,0,1,5.1,4.45,27.968,27.968,0,0,1,3.53-1.93A20.1,20.1,0,0,0,14.28,0h2.7q.675.84,1.29,1.74a27.333,27.333,0,0,1,4-1.15c-.11-.2-.23-.4-.36-.59H26V.07a28.4,28.4,0,0,1,4,0V0h4.09l-.37.59a26.764,26.764,0,0,1,4.01,1.15c.4-.6.84-1.18,1.3-1.74h2.69a20.1,20.1,0,0,0-2.1,2.52,27.526,27.526,0,0,1,3.54,1.93A16.08,16.08,0,0,1,48.25,0H56A13.972,13.972,0,0,0,44.8,5.6a27.07,27.07,0,0,1,3.03,2.63A9.99,9.99,0,0,1,56,4V6a8,8,0,0,0-6.769,3.739A28.851,28.851,0,0,1,52.02,13.6,4,4,0,0,1,56,10v2a2,2,0,0,0-2,2.07Q55,14,56,14v2A25.96,25.96,0,0,0,34.09,28ZM7.75,28H0V26A15.956,15.956,0,0,1,7.75,28ZM56,20v2a19.935,19.935,0,0,0-14.28,6h-2.7A21.97,21.97,0,0,1,56,20ZM16.97,28H14.28A19.935,19.935,0,0,0,0,22V20a21.935,21.935,0,0,1,16.97,8Zm15.01-.4a28.09,28.09,0,0,1,2.8-3.86,8,8,0,0,0-13.55,0,28.7,28.7,0,0,1,2.79,3.86,4,4,0,0,1,7.96,0ZM46.27,15.74a27.333,27.333,0,0,1,4-1.15,25.99,25.99,0,0,0-44.55,0,26.765,26.765,0,0,1,4.01,1.15,21.98,21.98,0,0,1,36.54,0Zm-5.43,2.71a28.093,28.093,0,0,1,3.54-1.93,19.98,19.98,0,0,0-32.76,0,27.526,27.526,0,0,1,3.54,1.93,15.98,15.98,0,0,1,25.68,0Zm-4.67,3.78A27.07,27.07,0,0,1,39.2,19.6a13.98,13.98,0,0,0-22.4,0,27.07,27.07,0,0,1,3.03,2.63,9.99,9.99,0,0,1,16.34,0Z" transform="translate(112 0)"/>
      <path id="endless-clouds-10" data-name="endless-clouds" class="cls-1" d="M56,26v2H48.25A15.985,15.985,0,0,1,56,26ZM30,28a2,2,0,0,0-4,0H21.91A25.98,25.98,0,0,0,0,16V14c.67,0,1.34.02,2,.07V14a2,2,0,0,0-2-2V10a4,4,0,0,1,3.98,3.6,28.091,28.091,0,0,1,2.8-3.86A8,8,0,0,0,0,6V4A9.99,9.99,0,0,1,8.17,8.23,27.07,27.07,0,0,1,11.2,5.6,13.98,13.98,0,0,0,0,0H7.75a16.141,16.141,0,0,1,5.1,4.45,27.968,27.968,0,0,1,3.53-1.93A20.1,20.1,0,0,0,14.28,0h2.7q.675.84,1.29,1.74a27.333,27.333,0,0,1,4-1.15c-.11-.2-.23-.4-.36-.59H26V.07a28.4,28.4,0,0,1,4,0V0h4.09l-.37.59a26.764,26.764,0,0,1,4.01,1.15c.4-.6.84-1.18,1.3-1.74h2.69a20.1,20.1,0,0,0-2.1,2.52,27.526,27.526,0,0,1,3.54,1.93A16.08,16.08,0,0,1,48.25,0H56A13.972,13.972,0,0,0,44.8,5.6a27.07,27.07,0,0,1,3.03,2.63A9.99,9.99,0,0,1,56,4V6a8,8,0,0,0-6.769,3.739A28.851,28.851,0,0,1,52.02,13.6,4,4,0,0,1,56,10v2a2,2,0,0,0-2,2.07Q55,14,56,14v2A25.96,25.96,0,0,0,34.09,28ZM7.75,28H0V26A15.956,15.956,0,0,1,7.75,28ZM56,20v2a19.935,19.935,0,0,0-14.28,6h-2.7A21.97,21.97,0,0,1,56,20ZM16.97,28H14.28A19.935,19.935,0,0,0,0,22V20a21.935,21.935,0,0,1,16.97,8Zm15.01-.4a28.09,28.09,0,0,1,2.8-3.86,8,8,0,0,0-13.55,0,28.7,28.7,0,0,1,2.79,3.86,4,4,0,0,1,7.96,0ZM46.27,15.74a27.333,27.333,0,0,1,4-1.15,25.99,25.99,0,0,0-44.55,0,26.765,26.765,0,0,1,4.01,1.15,21.98,21.98,0,0,1,36.54,0Zm-5.43,2.71a28.093,28.093,0,0,1,3.54-1.93,19.98,19.98,0,0,0-32.76,0,27.526,27.526,0,0,1,3.54,1.93,15.98,15.98,0,0,1,25.68,0Zm-4.67,3.78A27.07,27.07,0,0,1,39.2,19.6a13.98,13.98,0,0,0-22.4,0,27.07,27.07,0,0,1,3.03,2.63,9.99,9.99,0,0,1,16.34,0Z" transform="translate(0 28)"/>
      <path id="endless-clouds-11" data-name="endless-clouds" class="cls-1" d="M56,26v2H48.25A15.985,15.985,0,0,1,56,26ZM30,28a2,2,0,0,0-4,0H21.91A25.98,25.98,0,0,0,0,16V14c.67,0,1.34.02,2,.07V14a2,2,0,0,0-2-2V10a4,4,0,0,1,3.98,3.6,28.091,28.091,0,0,1,2.8-3.86A8,8,0,0,0,0,6V4A9.99,9.99,0,0,1,8.17,8.23,27.07,27.07,0,0,1,11.2,5.6,13.98,13.98,0,0,0,0,0H7.75a16.141,16.141,0,0,1,5.1,4.45,27.968,27.968,0,0,1,3.53-1.93A20.1,20.1,0,0,0,14.28,0h2.7q.675.84,1.29,1.74a27.333,27.333,0,0,1,4-1.15c-.11-.2-.23-.4-.36-.59H26V.07a28.4,28.4,0,0,1,4,0V0h4.09l-.37.59a26.764,26.764,0,0,1,4.01,1.15c.4-.6.84-1.18,1.3-1.74h2.69a20.1,20.1,0,0,0-2.1,2.52,27.526,27.526,0,0,1,3.54,1.93A16.08,16.08,0,0,1,48.25,0H56A13.972,13.972,0,0,0,44.8,5.6a27.07,27.07,0,0,1,3.03,2.63A9.99,9.99,0,0,1,56,4V6a8,8,0,0,0-6.769,3.739A28.851,28.851,0,0,1,52.02,13.6,4,4,0,0,1,56,10v2a2,2,0,0,0-2,2.07Q55,14,56,14v2A25.96,25.96,0,0,0,34.09,28ZM7.75,28H0V26A15.956,15.956,0,0,1,7.75,28ZM56,20v2a19.935,19.935,0,0,0-14.28,6h-2.7A21.97,21.97,0,0,1,56,20ZM16.97,28H14.28A19.935,19.935,0,0,0,0,22V20a21.935,21.935,0,0,1,16.97,8Zm15.01-.4a28.09,28.09,0,0,1,2.8-3.86,8,8,0,0,0-13.55,0,28.7,28.7,0,0,1,2.79,3.86,4,4,0,0,1,7.96,0ZM46.27,15.74a27.333,27.333,0,0,1,4-1.15,25.99,25.99,0,0,0-44.55,0,26.765,26.765,0,0,1,4.01,1.15,21.98,21.98,0,0,1,36.54,0Zm-5.43,2.71a28.093,28.093,0,0,1,3.54-1.93,19.98,19.98,0,0,0-32.76,0,27.526,27.526,0,0,1,3.54,1.93,15.98,15.98,0,0,1,25.68,0Zm-4.67,3.78A27.07,27.07,0,0,1,39.2,19.6a13.98,13.98,0,0,0-22.4,0,27.07,27.07,0,0,1,3.03,2.63,9.99,9.99,0,0,1,16.34,0Z" transform="translate(56 28)"/>
      <path id="endless-clouds-12" data-name="endless-clouds" class="cls-1" d="M56,26v2H48.25A15.985,15.985,0,0,1,56,26ZM30,28a2,2,0,0,0-4,0H21.91A25.98,25.98,0,0,0,0,16V14c.67,0,1.34.02,2,.07V14a2,2,0,0,0-2-2V10a4,4,0,0,1,3.98,3.6,28.091,28.091,0,0,1,2.8-3.86A8,8,0,0,0,0,6V4A9.99,9.99,0,0,1,8.17,8.23,27.07,27.07,0,0,1,11.2,5.6,13.98,13.98,0,0,0,0,0H7.75a16.141,16.141,0,0,1,5.1,4.45,27.968,27.968,0,0,1,3.53-1.93A20.1,20.1,0,0,0,14.28,0h2.7q.675.84,1.29,1.74a27.333,27.333,0,0,1,4-1.15c-.11-.2-.23-.4-.36-.59H26V.07a28.4,28.4,0,0,1,4,0V0h4.09l-.37.59a26.764,26.764,0,0,1,4.01,1.15c.4-.6.84-1.18,1.3-1.74h2.69a20.1,20.1,0,0,0-2.1,2.52,27.526,27.526,0,0,1,3.54,1.93A16.08,16.08,0,0,1,48.25,0H56A13.972,13.972,0,0,0,44.8,5.6a27.07,27.07,0,0,1,3.03,2.63A9.99,9.99,0,0,1,56,4V6a8,8,0,0,0-6.769,3.739A28.851,28.851,0,0,1,52.02,13.6,4,4,0,0,1,56,10v2a2,2,0,0,0-2,2.07Q55,14,56,14v2A25.96,25.96,0,0,0,34.09,28ZM7.75,28H0V26A15.956,15.956,0,0,1,7.75,28ZM56,20v2a19.935,19.935,0,0,0-14.28,6h-2.7A21.97,21.97,0,0,1,56,20ZM16.97,28H14.28A19.935,19.935,0,0,0,0,22V20a21.935,21.935,0,0,1,16.97,8Zm15.01-.4a28.09,28.09,0,0,1,2.8-3.86,8,8,0,0,0-13.55,0,28.7,28.7,0,0,1,2.79,3.86,4,4,0,0,1,7.96,0ZM46.27,15.74a27.333,27.333,0,0,1,4-1.15,25.99,25.99,0,0,0-44.55,0,26.765,26.765,0,0,1,4.01,1.15,21.98,21.98,0,0,1,36.54,0Zm-5.43,2.71a28.093,28.093,0,0,1,3.54-1.93,19.98,19.98,0,0,0-32.76,0,27.526,27.526,0,0,1,3.54,1.93,15.98,15.98,0,0,1,25.68,0Zm-4.67,3.78A27.07,27.07,0,0,1,39.2,19.6a13.98,13.98,0,0,0-22.4,0,27.07,27.07,0,0,1,3.03,2.63,9.99,9.99,0,0,1,16.34,0Z" transform="translate(112 28)"/>
    </g>
    <g id="Component_48_4" data-name="Component 48 – 4" transform="translate(336)">
      <path id="endless-clouds-13" data-name="endless-clouds" class="cls-1" d="M56,26v2H48.25A15.985,15.985,0,0,1,56,26ZM30,28a2,2,0,0,0-4,0H21.91A25.98,25.98,0,0,0,0,16V14c.67,0,1.34.02,2,.07V14a2,2,0,0,0-2-2V10a4,4,0,0,1,3.98,3.6,28.091,28.091,0,0,1,2.8-3.86A8,8,0,0,0,0,6V4A9.99,9.99,0,0,1,8.17,8.23,27.07,27.07,0,0,1,11.2,5.6,13.98,13.98,0,0,0,0,0H7.75a16.141,16.141,0,0,1,5.1,4.45,27.968,27.968,0,0,1,3.53-1.93A20.1,20.1,0,0,0,14.28,0h2.7q.675.84,1.29,1.74a27.333,27.333,0,0,1,4-1.15c-.11-.2-.23-.4-.36-.59H26V.07a28.4,28.4,0,0,1,4,0V0h4.09l-.37.59a26.764,26.764,0,0,1,4.01,1.15c.4-.6.84-1.18,1.3-1.74h2.69a20.1,20.1,0,0,0-2.1,2.52,27.526,27.526,0,0,1,3.54,1.93A16.08,16.08,0,0,1,48.25,0H56A13.972,13.972,0,0,0,44.8,5.6a27.07,27.07,0,0,1,3.03,2.63A9.99,9.99,0,0,1,56,4V6a8,8,0,0,0-6.769,3.739A28.851,28.851,0,0,1,52.02,13.6,4,4,0,0,1,56,10v2a2,2,0,0,0-2,2.07Q55,14,56,14v2A25.96,25.96,0,0,0,34.09,28ZM7.75,28H0V26A15.956,15.956,0,0,1,7.75,28ZM56,20v2a19.935,19.935,0,0,0-14.28,6h-2.7A21.97,21.97,0,0,1,56,20ZM16.97,28H14.28A19.935,19.935,0,0,0,0,22V20a21.935,21.935,0,0,1,16.97,8Zm15.01-.4a28.09,28.09,0,0,1,2.8-3.86,8,8,0,0,0-13.55,0,28.7,28.7,0,0,1,2.79,3.86,4,4,0,0,1,7.96,0ZM46.27,15.74a27.333,27.333,0,0,1,4-1.15,25.99,25.99,0,0,0-44.55,0,26.765,26.765,0,0,1,4.01,1.15,21.98,21.98,0,0,1,36.54,0Zm-5.43,2.71a28.093,28.093,0,0,1,3.54-1.93,19.98,19.98,0,0,0-32.76,0,27.526,27.526,0,0,1,3.54,1.93,15.98,15.98,0,0,1,25.68,0Zm-4.67,3.78A27.07,27.07,0,0,1,39.2,19.6a13.98,13.98,0,0,0-22.4,0,27.07,27.07,0,0,1,3.03,2.63,9.99,9.99,0,0,1,16.34,0Z" transform="translate(0 0)"/>
      <path id="endless-clouds-14" data-name="endless-clouds" class="cls-1" d="M56,26v2H48.25A15.985,15.985,0,0,1,56,26ZM30,28a2,2,0,0,0-4,0H21.91A25.98,25.98,0,0,0,0,16V14c.67,0,1.34.02,2,.07V14a2,2,0,0,0-2-2V10a4,4,0,0,1,3.98,3.6,28.091,28.091,0,0,1,2.8-3.86A8,8,0,0,0,0,6V4A9.99,9.99,0,0,1,8.17,8.23,27.07,27.07,0,0,1,11.2,5.6,13.98,13.98,0,0,0,0,0H7.75a16.141,16.141,0,0,1,5.1,4.45,27.968,27.968,0,0,1,3.53-1.93A20.1,20.1,0,0,0,14.28,0h2.7q.675.84,1.29,1.74a27.333,27.333,0,0,1,4-1.15c-.11-.2-.23-.4-.36-.59H26V.07a28.4,28.4,0,0,1,4,0V0h4.09l-.37.59a26.764,26.764,0,0,1,4.01,1.15c.4-.6.84-1.18,1.3-1.74h2.69a20.1,20.1,0,0,0-2.1,2.52,27.526,27.526,0,0,1,3.54,1.93A16.08,16.08,0,0,1,48.25,0H56A13.972,13.972,0,0,0,44.8,5.6a27.07,27.07,0,0,1,3.03,2.63A9.99,9.99,0,0,1,56,4V6a8,8,0,0,0-6.769,3.739A28.851,28.851,0,0,1,52.02,13.6,4,4,0,0,1,56,10v2a2,2,0,0,0-2,2.07Q55,14,56,14v2A25.96,25.96,0,0,0,34.09,28ZM7.75,28H0V26A15.956,15.956,0,0,1,7.75,28ZM56,20v2a19.935,19.935,0,0,0-14.28,6h-2.7A21.97,21.97,0,0,1,56,20ZM16.97,28H14.28A19.935,19.935,0,0,0,0,22V20a21.935,21.935,0,0,1,16.97,8Zm15.01-.4a28.09,28.09,0,0,1,2.8-3.86,8,8,0,0,0-13.55,0,28.7,28.7,0,0,1,2.79,3.86,4,4,0,0,1,7.96,0ZM46.27,15.74a27.333,27.333,0,0,1,4-1.15,25.99,25.99,0,0,0-44.55,0,26.765,26.765,0,0,1,4.01,1.15,21.98,21.98,0,0,1,36.54,0Zm-5.43,2.71a28.093,28.093,0,0,1,3.54-1.93,19.98,19.98,0,0,0-32.76,0,27.526,27.526,0,0,1,3.54,1.93,15.98,15.98,0,0,1,25.68,0Zm-4.67,3.78A27.07,27.07,0,0,1,39.2,19.6a13.98,13.98,0,0,0-22.4,0,27.07,27.07,0,0,1,3.03,2.63,9.99,9.99,0,0,1,16.34,0Z" transform="translate(56 0)"/>
      <path id="endless-clouds-15" data-name="endless-clouds" class="cls-1" d="M56,26v2H48.25A15.985,15.985,0,0,1,56,26ZM30,28a2,2,0,0,0-4,0H21.91A25.98,25.98,0,0,0,0,16V14c.67,0,1.34.02,2,.07V14a2,2,0,0,0-2-2V10a4,4,0,0,1,3.98,3.6,28.091,28.091,0,0,1,2.8-3.86A8,8,0,0,0,0,6V4A9.99,9.99,0,0,1,8.17,8.23,27.07,27.07,0,0,1,11.2,5.6,13.98,13.98,0,0,0,0,0H7.75a16.141,16.141,0,0,1,5.1,4.45,27.968,27.968,0,0,1,3.53-1.93A20.1,20.1,0,0,0,14.28,0h2.7q.675.84,1.29,1.74a27.333,27.333,0,0,1,4-1.15c-.11-.2-.23-.4-.36-.59H26V.07a28.4,28.4,0,0,1,4,0V0h4.09l-.37.59a26.764,26.764,0,0,1,4.01,1.15c.4-.6.84-1.18,1.3-1.74h2.69a20.1,20.1,0,0,0-2.1,2.52,27.526,27.526,0,0,1,3.54,1.93A16.08,16.08,0,0,1,48.25,0H56A13.972,13.972,0,0,0,44.8,5.6a27.07,27.07,0,0,1,3.03,2.63A9.99,9.99,0,0,1,56,4V6a8,8,0,0,0-6.769,3.739A28.851,28.851,0,0,1,52.02,13.6,4,4,0,0,1,56,10v2a2,2,0,0,0-2,2.07Q55,14,56,14v2A25.96,25.96,0,0,0,34.09,28ZM7.75,28H0V26A15.956,15.956,0,0,1,7.75,28ZM56,20v2a19.935,19.935,0,0,0-14.28,6h-2.7A21.97,21.97,0,0,1,56,20ZM16.97,28H14.28A19.935,19.935,0,0,0,0,22V20a21.935,21.935,0,0,1,16.97,8Zm15.01-.4a28.09,28.09,0,0,1,2.8-3.86,8,8,0,0,0-13.55,0,28.7,28.7,0,0,1,2.79,3.86,4,4,0,0,1,7.96,0ZM46.27,15.74a27.333,27.333,0,0,1,4-1.15,25.99,25.99,0,0,0-44.55,0,26.765,26.765,0,0,1,4.01,1.15,21.98,21.98,0,0,1,36.54,0Zm-5.43,2.71a28.093,28.093,0,0,1,3.54-1.93,19.98,19.98,0,0,0-32.76,0,27.526,27.526,0,0,1,3.54,1.93,15.98,15.98,0,0,1,25.68,0Zm-4.67,3.78A27.07,27.07,0,0,1,39.2,19.6a13.98,13.98,0,0,0-22.4,0,27.07,27.07,0,0,1,3.03,2.63,9.99,9.99,0,0,1,16.34,0Z" transform="translate(112 0)"/>
      <path id="endless-clouds-16" data-name="endless-clouds" class="cls-1" d="M56,26v2H48.25A15.985,15.985,0,0,1,56,26ZM30,28a2,2,0,0,0-4,0H21.91A25.98,25.98,0,0,0,0,16V14c.67,0,1.34.02,2,.07V14a2,2,0,0,0-2-2V10a4,4,0,0,1,3.98,3.6,28.091,28.091,0,0,1,2.8-3.86A8,8,0,0,0,0,6V4A9.99,9.99,0,0,1,8.17,8.23,27.07,27.07,0,0,1,11.2,5.6,13.98,13.98,0,0,0,0,0H7.75a16.141,16.141,0,0,1,5.1,4.45,27.968,27.968,0,0,1,3.53-1.93A20.1,20.1,0,0,0,14.28,0h2.7q.675.84,1.29,1.74a27.333,27.333,0,0,1,4-1.15c-.11-.2-.23-.4-.36-.59H26V.07a28.4,28.4,0,0,1,4,0V0h4.09l-.37.59a26.764,26.764,0,0,1,4.01,1.15c.4-.6.84-1.18,1.3-1.74h2.69a20.1,20.1,0,0,0-2.1,2.52,27.526,27.526,0,0,1,3.54,1.93A16.08,16.08,0,0,1,48.25,0H56A13.972,13.972,0,0,0,44.8,5.6a27.07,27.07,0,0,1,3.03,2.63A9.99,9.99,0,0,1,56,4V6a8,8,0,0,0-6.769,3.739A28.851,28.851,0,0,1,52.02,13.6,4,4,0,0,1,56,10v2a2,2,0,0,0-2,2.07Q55,14,56,14v2A25.96,25.96,0,0,0,34.09,28ZM7.75,28H0V26A15.956,15.956,0,0,1,7.75,28ZM56,20v2a19.935,19.935,0,0,0-14.28,6h-2.7A21.97,21.97,0,0,1,56,20ZM16.97,28H14.28A19.935,19.935,0,0,0,0,22V20a21.935,21.935,0,0,1,16.97,8Zm15.01-.4a28.09,28.09,0,0,1,2.8-3.86,8,8,0,0,0-13.55,0,28.7,28.7,0,0,1,2.79,3.86,4,4,0,0,1,7.96,0ZM46.27,15.74a27.333,27.333,0,0,1,4-1.15,25.99,25.99,0,0,0-44.55,0,26.765,26.765,0,0,1,4.01,1.15,21.98,21.98,0,0,1,36.54,0Zm-5.43,2.71a28.093,28.093,0,0,1,3.54-1.93,19.98,19.98,0,0,0-32.76,0,27.526,27.526,0,0,1,3.54,1.93,15.98,15.98,0,0,1,25.68,0Zm-4.67,3.78A27.07,27.07,0,0,1,39.2,19.6a13.98,13.98,0,0,0-22.4,0,27.07,27.07,0,0,1,3.03,2.63,9.99,9.99,0,0,1,16.34,0Z" transform="translate(0 28)"/>
      <path id="endless-clouds-17" data-name="endless-clouds" class="cls-1" d="M56,26v2H48.25A15.985,15.985,0,0,1,56,26ZM30,28a2,2,0,0,0-4,0H21.91A25.98,25.98,0,0,0,0,16V14c.67,0,1.34.02,2,.07V14a2,2,0,0,0-2-2V10a4,4,0,0,1,3.98,3.6,28.091,28.091,0,0,1,2.8-3.86A8,8,0,0,0,0,6V4A9.99,9.99,0,0,1,8.17,8.23,27.07,27.07,0,0,1,11.2,5.6,13.98,13.98,0,0,0,0,0H7.75a16.141,16.141,0,0,1,5.1,4.45,27.968,27.968,0,0,1,3.53-1.93A20.1,20.1,0,0,0,14.28,0h2.7q.675.84,1.29,1.74a27.333,27.333,0,0,1,4-1.15c-.11-.2-.23-.4-.36-.59H26V.07a28.4,28.4,0,0,1,4,0V0h4.09l-.37.59a26.764,26.764,0,0,1,4.01,1.15c.4-.6.84-1.18,1.3-1.74h2.69a20.1,20.1,0,0,0-2.1,2.52,27.526,27.526,0,0,1,3.54,1.93A16.08,16.08,0,0,1,48.25,0H56A13.972,13.972,0,0,0,44.8,5.6a27.07,27.07,0,0,1,3.03,2.63A9.99,9.99,0,0,1,56,4V6a8,8,0,0,0-6.769,3.739A28.851,28.851,0,0,1,52.02,13.6,4,4,0,0,1,56,10v2a2,2,0,0,0-2,2.07Q55,14,56,14v2A25.96,25.96,0,0,0,34.09,28ZM7.75,28H0V26A15.956,15.956,0,0,1,7.75,28ZM56,20v2a19.935,19.935,0,0,0-14.28,6h-2.7A21.97,21.97,0,0,1,56,20ZM16.97,28H14.28A19.935,19.935,0,0,0,0,22V20a21.935,21.935,0,0,1,16.97,8Zm15.01-.4a28.09,28.09,0,0,1,2.8-3.86,8,8,0,0,0-13.55,0,28.7,28.7,0,0,1,2.79,3.86,4,4,0,0,1,7.96,0ZM46.27,15.74a27.333,27.333,0,0,1,4-1.15,25.99,25.99,0,0,0-44.55,0,26.765,26.765,0,0,1,4.01,1.15,21.98,21.98,0,0,1,36.54,0Zm-5.43,2.71a28.093,28.093,0,0,1,3.54-1.93,19.98,19.98,0,0,0-32.76,0,27.526,27.526,0,0,1,3.54,1.93,15.98,15.98,0,0,1,25.68,0Zm-4.67,3.78A27.07,27.07,0,0,1,39.2,19.6a13.98,13.98,0,0,0-22.4,0,27.07,27.07,0,0,1,3.03,2.63,9.99,9.99,0,0,1,16.34,0Z" transform="translate(56 28)"/>
      <path id="endless-clouds-18" data-name="endless-clouds" class="cls-1" d="M56,26v2H48.25A15.985,15.985,0,0,1,56,26ZM30,28a2,2,0,0,0-4,0H21.91A25.98,25.98,0,0,0,0,16V14c.67,0,1.34.02,2,.07V14a2,2,0,0,0-2-2V10a4,4,0,0,1,3.98,3.6,28.091,28.091,0,0,1,2.8-3.86A8,8,0,0,0,0,6V4A9.99,9.99,0,0,1,8.17,8.23,27.07,27.07,0,0,1,11.2,5.6,13.98,13.98,0,0,0,0,0H7.75a16.141,16.141,0,0,1,5.1,4.45,27.968,27.968,0,0,1,3.53-1.93A20.1,20.1,0,0,0,14.28,0h2.7q.675.84,1.29,1.74a27.333,27.333,0,0,1,4-1.15c-.11-.2-.23-.4-.36-.59H26V.07a28.4,28.4,0,0,1,4,0V0h4.09l-.37.59a26.764,26.764,0,0,1,4.01,1.15c.4-.6.84-1.18,1.3-1.74h2.69a20.1,20.1,0,0,0-2.1,2.52,27.526,27.526,0,0,1,3.54,1.93A16.08,16.08,0,0,1,48.25,0H56A13.972,13.972,0,0,0,44.8,5.6a27.07,27.07,0,0,1,3.03,2.63A9.99,9.99,0,0,1,56,4V6a8,8,0,0,0-6.769,3.739A28.851,28.851,0,0,1,52.02,13.6,4,4,0,0,1,56,10v2a2,2,0,0,0-2,2.07Q55,14,56,14v2A25.96,25.96,0,0,0,34.09,28ZM7.75,28H0V26A15.956,15.956,0,0,1,7.75,28ZM56,20v2a19.935,19.935,0,0,0-14.28,6h-2.7A21.97,21.97,0,0,1,56,20ZM16.97,28H14.28A19.935,19.935,0,0,0,0,22V20a21.935,21.935,0,0,1,16.97,8Zm15.01-.4a28.09,28.09,0,0,1,2.8-3.86,8,8,0,0,0-13.55,0,28.7,28.7,0,0,1,2.79,3.86,4,4,0,0,1,7.96,0ZM46.27,15.74a27.333,27.333,0,0,1,4-1.15,25.99,25.99,0,0,0-44.55,0,26.765,26.765,0,0,1,4.01,1.15,21.98,21.98,0,0,1,36.54,0Zm-5.43,2.71a28.093,28.093,0,0,1,3.54-1.93,19.98,19.98,0,0,0-32.76,0,27.526,27.526,0,0,1,3.54,1.93,15.98,15.98,0,0,1,25.68,0Zm-4.67,3.78A27.07,27.07,0,0,1,39.2,19.6a13.98,13.98,0,0,0-22.4,0,27.07,27.07,0,0,1,3.03,2.63,9.99,9.99,0,0,1,16.34,0Z" transform="translate(112 28)"/>
    </g>
    <g id="Component_48_5" data-name="Component 48 – 5" transform="translate(504)">
      <path id="endless-clouds-19" data-name="endless-clouds" class="cls-1" d="M56,26v2H48.25A15.985,15.985,0,0,1,56,26ZM30,28a2,2,0,0,0-4,0H21.91A25.98,25.98,0,0,0,0,16V14c.67,0,1.34.02,2,.07V14a2,2,0,0,0-2-2V10a4,4,0,0,1,3.98,3.6,28.091,28.091,0,0,1,2.8-3.86A8,8,0,0,0,0,6V4A9.99,9.99,0,0,1,8.17,8.23,27.07,27.07,0,0,1,11.2,5.6,13.98,13.98,0,0,0,0,0H7.75a16.141,16.141,0,0,1,5.1,4.45,27.968,27.968,0,0,1,3.53-1.93A20.1,20.1,0,0,0,14.28,0h2.7q.675.84,1.29,1.74a27.333,27.333,0,0,1,4-1.15c-.11-.2-.23-.4-.36-.59H26V.07a28.4,28.4,0,0,1,4,0V0h4.09l-.37.59a26.764,26.764,0,0,1,4.01,1.15c.4-.6.84-1.18,1.3-1.74h2.69a20.1,20.1,0,0,0-2.1,2.52,27.526,27.526,0,0,1,3.54,1.93A16.08,16.08,0,0,1,48.25,0H56A13.972,13.972,0,0,0,44.8,5.6a27.07,27.07,0,0,1,3.03,2.63A9.99,9.99,0,0,1,56,4V6a8,8,0,0,0-6.769,3.739A28.851,28.851,0,0,1,52.02,13.6,4,4,0,0,1,56,10v2a2,2,0,0,0-2,2.07Q55,14,56,14v2A25.96,25.96,0,0,0,34.09,28ZM7.75,28H0V26A15.956,15.956,0,0,1,7.75,28ZM56,20v2a19.935,19.935,0,0,0-14.28,6h-2.7A21.97,21.97,0,0,1,56,20ZM16.97,28H14.28A19.935,19.935,0,0,0,0,22V20a21.935,21.935,0,0,1,16.97,8Zm15.01-.4a28.09,28.09,0,0,1,2.8-3.86,8,8,0,0,0-13.55,0,28.7,28.7,0,0,1,2.79,3.86,4,4,0,0,1,7.96,0ZM46.27,15.74a27.333,27.333,0,0,1,4-1.15,25.99,25.99,0,0,0-44.55,0,26.765,26.765,0,0,1,4.01,1.15,21.98,21.98,0,0,1,36.54,0Zm-5.43,2.71a28.093,28.093,0,0,1,3.54-1.93,19.98,19.98,0,0,0-32.76,0,27.526,27.526,0,0,1,3.54,1.93,15.98,15.98,0,0,1,25.68,0Zm-4.67,3.78A27.07,27.07,0,0,1,39.2,19.6a13.98,13.98,0,0,0-22.4,0,27.07,27.07,0,0,1,3.03,2.63,9.99,9.99,0,0,1,16.34,0Z" transform="translate(0 0)"/>
      <path id="endless-clouds-20" data-name="endless-clouds" class="cls-1" d="M56,26v2H48.25A15.985,15.985,0,0,1,56,26ZM30,28a2,2,0,0,0-4,0H21.91A25.98,25.98,0,0,0,0,16V14c.67,0,1.34.02,2,.07V14a2,2,0,0,0-2-2V10a4,4,0,0,1,3.98,3.6,28.091,28.091,0,0,1,2.8-3.86A8,8,0,0,0,0,6V4A9.99,9.99,0,0,1,8.17,8.23,27.07,27.07,0,0,1,11.2,5.6,13.98,13.98,0,0,0,0,0H7.75a16.141,16.141,0,0,1,5.1,4.45,27.968,27.968,0,0,1,3.53-1.93A20.1,20.1,0,0,0,14.28,0h2.7q.675.84,1.29,1.74a27.333,27.333,0,0,1,4-1.15c-.11-.2-.23-.4-.36-.59H26V.07a28.4,28.4,0,0,1,4,0V0h4.09l-.37.59a26.764,26.764,0,0,1,4.01,1.15c.4-.6.84-1.18,1.3-1.74h2.69a20.1,20.1,0,0,0-2.1,2.52,27.526,27.526,0,0,1,3.54,1.93A16.08,16.08,0,0,1,48.25,0H56A13.972,13.972,0,0,0,44.8,5.6a27.07,27.07,0,0,1,3.03,2.63A9.99,9.99,0,0,1,56,4V6a8,8,0,0,0-6.769,3.739A28.851,28.851,0,0,1,52.02,13.6,4,4,0,0,1,56,10v2a2,2,0,0,0-2,2.07Q55,14,56,14v2A25.96,25.96,0,0,0,34.09,28ZM7.75,28H0V26A15.956,15.956,0,0,1,7.75,28ZM56,20v2a19.935,19.935,0,0,0-14.28,6h-2.7A21.97,21.97,0,0,1,56,20ZM16.97,28H14.28A19.935,19.935,0,0,0,0,22V20a21.935,21.935,0,0,1,16.97,8Zm15.01-.4a28.09,28.09,0,0,1,2.8-3.86,8,8,0,0,0-13.55,0,28.7,28.7,0,0,1,2.79,3.86,4,4,0,0,1,7.96,0ZM46.27,15.74a27.333,27.333,0,0,1,4-1.15,25.99,25.99,0,0,0-44.55,0,26.765,26.765,0,0,1,4.01,1.15,21.98,21.98,0,0,1,36.54,0Zm-5.43,2.71a28.093,28.093,0,0,1,3.54-1.93,19.98,19.98,0,0,0-32.76,0,27.526,27.526,0,0,1,3.54,1.93,15.98,15.98,0,0,1,25.68,0Zm-4.67,3.78A27.07,27.07,0,0,1,39.2,19.6a13.98,13.98,0,0,0-22.4,0,27.07,27.07,0,0,1,3.03,2.63,9.99,9.99,0,0,1,16.34,0Z" transform="translate(56 0)"/>
      <path id="endless-clouds-21" data-name="endless-clouds" class="cls-1" d="M56,26v2H48.25A15.985,15.985,0,0,1,56,26ZM30,28a2,2,0,0,0-4,0H21.91A25.98,25.98,0,0,0,0,16V14c.67,0,1.34.02,2,.07V14a2,2,0,0,0-2-2V10a4,4,0,0,1,3.98,3.6,28.091,28.091,0,0,1,2.8-3.86A8,8,0,0,0,0,6V4A9.99,9.99,0,0,1,8.17,8.23,27.07,27.07,0,0,1,11.2,5.6,13.98,13.98,0,0,0,0,0H7.75a16.141,16.141,0,0,1,5.1,4.45,27.968,27.968,0,0,1,3.53-1.93A20.1,20.1,0,0,0,14.28,0h2.7q.675.84,1.29,1.74a27.333,27.333,0,0,1,4-1.15c-.11-.2-.23-.4-.36-.59H26V.07a28.4,28.4,0,0,1,4,0V0h4.09l-.37.59a26.764,26.764,0,0,1,4.01,1.15c.4-.6.84-1.18,1.3-1.74h2.69a20.1,20.1,0,0,0-2.1,2.52,27.526,27.526,0,0,1,3.54,1.93A16.08,16.08,0,0,1,48.25,0H56A13.972,13.972,0,0,0,44.8,5.6a27.07,27.07,0,0,1,3.03,2.63A9.99,9.99,0,0,1,56,4V6a8,8,0,0,0-6.769,3.739A28.851,28.851,0,0,1,52.02,13.6,4,4,0,0,1,56,10v2a2,2,0,0,0-2,2.07Q55,14,56,14v2A25.96,25.96,0,0,0,34.09,28ZM7.75,28H0V26A15.956,15.956,0,0,1,7.75,28ZM56,20v2a19.935,19.935,0,0,0-14.28,6h-2.7A21.97,21.97,0,0,1,56,20ZM16.97,28H14.28A19.935,19.935,0,0,0,0,22V20a21.935,21.935,0,0,1,16.97,8Zm15.01-.4a28.09,28.09,0,0,1,2.8-3.86,8,8,0,0,0-13.55,0,28.7,28.7,0,0,1,2.79,3.86,4,4,0,0,1,7.96,0ZM46.27,15.74a27.333,27.333,0,0,1,4-1.15,25.99,25.99,0,0,0-44.55,0,26.765,26.765,0,0,1,4.01,1.15,21.98,21.98,0,0,1,36.54,0Zm-5.43,2.71a28.093,28.093,0,0,1,3.54-1.93,19.98,19.98,0,0,0-32.76,0,27.526,27.526,0,0,1,3.54,1.93,15.98,15.98,0,0,1,25.68,0Zm-4.67,3.78A27.07,27.07,0,0,1,39.2,19.6a13.98,13.98,0,0,0-22.4,0,27.07,27.07,0,0,1,3.03,2.63,9.99,9.99,0,0,1,16.34,0Z" transform="translate(112 0)"/>
      <path id="endless-clouds-22" data-name="endless-clouds" class="cls-1" d="M56,26v2H48.25A15.985,15.985,0,0,1,56,26ZM30,28a2,2,0,0,0-4,0H21.91A25.98,25.98,0,0,0,0,16V14c.67,0,1.34.02,2,.07V14a2,2,0,0,0-2-2V10a4,4,0,0,1,3.98,3.6,28.091,28.091,0,0,1,2.8-3.86A8,8,0,0,0,0,6V4A9.99,9.99,0,0,1,8.17,8.23,27.07,27.07,0,0,1,11.2,5.6,13.98,13.98,0,0,0,0,0H7.75a16.141,16.141,0,0,1,5.1,4.45,27.968,27.968,0,0,1,3.53-1.93A20.1,20.1,0,0,0,14.28,0h2.7q.675.84,1.29,1.74a27.333,27.333,0,0,1,4-1.15c-.11-.2-.23-.4-.36-.59H26V.07a28.4,28.4,0,0,1,4,0V0h4.09l-.37.59a26.764,26.764,0,0,1,4.01,1.15c.4-.6.84-1.18,1.3-1.74h2.69a20.1,20.1,0,0,0-2.1,2.52,27.526,27.526,0,0,1,3.54,1.93A16.08,16.08,0,0,1,48.25,0H56A13.972,13.972,0,0,0,44.8,5.6a27.07,27.07,0,0,1,3.03,2.63A9.99,9.99,0,0,1,56,4V6a8,8,0,0,0-6.769,3.739A28.851,28.851,0,0,1,52.02,13.6,4,4,0,0,1,56,10v2a2,2,0,0,0-2,2.07Q55,14,56,14v2A25.96,25.96,0,0,0,34.09,28ZM7.75,28H0V26A15.956,15.956,0,0,1,7.75,28ZM56,20v2a19.935,19.935,0,0,0-14.28,6h-2.7A21.97,21.97,0,0,1,56,20ZM16.97,28H14.28A19.935,19.935,0,0,0,0,22V20a21.935,21.935,0,0,1,16.97,8Zm15.01-.4a28.09,28.09,0,0,1,2.8-3.86,8,8,0,0,0-13.55,0,28.7,28.7,0,0,1,2.79,3.86,4,4,0,0,1,7.96,0ZM46.27,15.74a27.333,27.333,0,0,1,4-1.15,25.99,25.99,0,0,0-44.55,0,26.765,26.765,0,0,1,4.01,1.15,21.98,21.98,0,0,1,36.54,0Zm-5.43,2.71a28.093,28.093,0,0,1,3.54-1.93,19.98,19.98,0,0,0-32.76,0,27.526,27.526,0,0,1,3.54,1.93,15.98,15.98,0,0,1,25.68,0Zm-4.67,3.78A27.07,27.07,0,0,1,39.2,19.6a13.98,13.98,0,0,0-22.4,0,27.07,27.07,0,0,1,3.03,2.63,9.99,9.99,0,0,1,16.34,0Z" transform="translate(0 28)"/>
      <path id="endless-clouds-23" data-name="endless-clouds" class="cls-1" d="M56,26v2H48.25A15.985,15.985,0,0,1,56,26ZM30,28a2,2,0,0,0-4,0H21.91A25.98,25.98,0,0,0,0,16V14c.67,0,1.34.02,2,.07V14a2,2,0,0,0-2-2V10a4,4,0,0,1,3.98,3.6,28.091,28.091,0,0,1,2.8-3.86A8,8,0,0,0,0,6V4A9.99,9.99,0,0,1,8.17,8.23,27.07,27.07,0,0,1,11.2,5.6,13.98,13.98,0,0,0,0,0H7.75a16.141,16.141,0,0,1,5.1,4.45,27.968,27.968,0,0,1,3.53-1.93A20.1,20.1,0,0,0,14.28,0h2.7q.675.84,1.29,1.74a27.333,27.333,0,0,1,4-1.15c-.11-.2-.23-.4-.36-.59H26V.07a28.4,28.4,0,0,1,4,0V0h4.09l-.37.59a26.764,26.764,0,0,1,4.01,1.15c.4-.6.84-1.18,1.3-1.74h2.69a20.1,20.1,0,0,0-2.1,2.52,27.526,27.526,0,0,1,3.54,1.93A16.08,16.08,0,0,1,48.25,0H56A13.972,13.972,0,0,0,44.8,5.6a27.07,27.07,0,0,1,3.03,2.63A9.99,9.99,0,0,1,56,4V6a8,8,0,0,0-6.769,3.739A28.851,28.851,0,0,1,52.02,13.6,4,4,0,0,1,56,10v2a2,2,0,0,0-2,2.07Q55,14,56,14v2A25.96,25.96,0,0,0,34.09,28ZM7.75,28H0V26A15.956,15.956,0,0,1,7.75,28ZM56,20v2a19.935,19.935,0,0,0-14.28,6h-2.7A21.97,21.97,0,0,1,56,20ZM16.97,28H14.28A19.935,19.935,0,0,0,0,22V20a21.935,21.935,0,0,1,16.97,8Zm15.01-.4a28.09,28.09,0,0,1,2.8-3.86,8,8,0,0,0-13.55,0,28.7,28.7,0,0,1,2.79,3.86,4,4,0,0,1,7.96,0ZM46.27,15.74a27.333,27.333,0,0,1,4-1.15,25.99,25.99,0,0,0-44.55,0,26.765,26.765,0,0,1,4.01,1.15,21.98,21.98,0,0,1,36.54,0Zm-5.43,2.71a28.093,28.093,0,0,1,3.54-1.93,19.98,19.98,0,0,0-32.76,0,27.526,27.526,0,0,1,3.54,1.93,15.98,15.98,0,0,1,25.68,0Zm-4.67,3.78A27.07,27.07,0,0,1,39.2,19.6a13.98,13.98,0,0,0-22.4,0,27.07,27.07,0,0,1,3.03,2.63,9.99,9.99,0,0,1,16.34,0Z" transform="translate(56 28)"/>
      <path id="endless-clouds-24" data-name="endless-clouds" class="cls-1" d="M56,26v2H48.25A15.985,15.985,0,0,1,56,26ZM30,28a2,2,0,0,0-4,0H21.91A25.98,25.98,0,0,0,0,16V14c.67,0,1.34.02,2,.07V14a2,2,0,0,0-2-2V10a4,4,0,0,1,3.98,3.6,28.091,28.091,0,0,1,2.8-3.86A8,8,0,0,0,0,6V4A9.99,9.99,0,0,1,8.17,8.23,27.07,27.07,0,0,1,11.2,5.6,13.98,13.98,0,0,0,0,0H7.75a16.141,16.141,0,0,1,5.1,4.45,27.968,27.968,0,0,1,3.53-1.93A20.1,20.1,0,0,0,14.28,0h2.7q.675.84,1.29,1.74a27.333,27.333,0,0,1,4-1.15c-.11-.2-.23-.4-.36-.59H26V.07a28.4,28.4,0,0,1,4,0V0h4.09l-.37.59a26.764,26.764,0,0,1,4.01,1.15c.4-.6.84-1.18,1.3-1.74h2.69a20.1,20.1,0,0,0-2.1,2.52,27.526,27.526,0,0,1,3.54,1.93A16.08,16.08,0,0,1,48.25,0H56A13.972,13.972,0,0,0,44.8,5.6a27.07,27.07,0,0,1,3.03,2.63A9.99,9.99,0,0,1,56,4V6a8,8,0,0,0-6.769,3.739A28.851,28.851,0,0,1,52.02,13.6,4,4,0,0,1,56,10v2a2,2,0,0,0-2,2.07Q55,14,56,14v2A25.96,25.96,0,0,0,34.09,28ZM7.75,28H0V26A15.956,15.956,0,0,1,7.75,28ZM56,20v2a19.935,19.935,0,0,0-14.28,6h-2.7A21.97,21.97,0,0,1,56,20ZM16.97,28H14.28A19.935,19.935,0,0,0,0,22V20a21.935,21.935,0,0,1,16.97,8Zm15.01-.4a28.09,28.09,0,0,1,2.8-3.86,8,8,0,0,0-13.55,0,28.7,28.7,0,0,1,2.79,3.86,4,4,0,0,1,7.96,0ZM46.27,15.74a27.333,27.333,0,0,1,4-1.15,25.99,25.99,0,0,0-44.55,0,26.765,26.765,0,0,1,4.01,1.15,21.98,21.98,0,0,1,36.54,0Zm-5.43,2.71a28.093,28.093,0,0,1,3.54-1.93,19.98,19.98,0,0,0-32.76,0,27.526,27.526,0,0,1,3.54,1.93,15.98,15.98,0,0,1,25.68,0Zm-4.67,3.78A27.07,27.07,0,0,1,39.2,19.6a13.98,13.98,0,0,0-22.4,0,27.07,27.07,0,0,1,3.03,2.63,9.99,9.99,0,0,1,16.34,0Z" transform="translate(112 28)"/>
    </g>
    <g id="Component_48_6" data-name="Component 48 – 6" transform="translate(672)">
      <path id="endless-clouds-25" data-name="endless-clouds" class="cls-1" d="M56,26v2H48.25A15.985,15.985,0,0,1,56,26ZM30,28a2,2,0,0,0-4,0H21.91A25.98,25.98,0,0,0,0,16V14c.67,0,1.34.02,2,.07V14a2,2,0,0,0-2-2V10a4,4,0,0,1,3.98,3.6,28.091,28.091,0,0,1,2.8-3.86A8,8,0,0,0,0,6V4A9.99,9.99,0,0,1,8.17,8.23,27.07,27.07,0,0,1,11.2,5.6,13.98,13.98,0,0,0,0,0H7.75a16.141,16.141,0,0,1,5.1,4.45,27.968,27.968,0,0,1,3.53-1.93A20.1,20.1,0,0,0,14.28,0h2.7q.675.84,1.29,1.74a27.333,27.333,0,0,1,4-1.15c-.11-.2-.23-.4-.36-.59H26V.07a28.4,28.4,0,0,1,4,0V0h4.09l-.37.59a26.764,26.764,0,0,1,4.01,1.15c.4-.6.84-1.18,1.3-1.74h2.69a20.1,20.1,0,0,0-2.1,2.52,27.526,27.526,0,0,1,3.54,1.93A16.08,16.08,0,0,1,48.25,0H56A13.972,13.972,0,0,0,44.8,5.6a27.07,27.07,0,0,1,3.03,2.63A9.99,9.99,0,0,1,56,4V6a8,8,0,0,0-6.769,3.739A28.851,28.851,0,0,1,52.02,13.6,4,4,0,0,1,56,10v2a2,2,0,0,0-2,2.07Q55,14,56,14v2A25.96,25.96,0,0,0,34.09,28ZM7.75,28H0V26A15.956,15.956,0,0,1,7.75,28ZM56,20v2a19.935,19.935,0,0,0-14.28,6h-2.7A21.97,21.97,0,0,1,56,20ZM16.97,28H14.28A19.935,19.935,0,0,0,0,22V20a21.935,21.935,0,0,1,16.97,8Zm15.01-.4a28.09,28.09,0,0,1,2.8-3.86,8,8,0,0,0-13.55,0,28.7,28.7,0,0,1,2.79,3.86,4,4,0,0,1,7.96,0ZM46.27,15.74a27.333,27.333,0,0,1,4-1.15,25.99,25.99,0,0,0-44.55,0,26.765,26.765,0,0,1,4.01,1.15,21.98,21.98,0,0,1,36.54,0Zm-5.43,2.71a28.093,28.093,0,0,1,3.54-1.93,19.98,19.98,0,0,0-32.76,0,27.526,27.526,0,0,1,3.54,1.93,15.98,15.98,0,0,1,25.68,0Zm-4.67,3.78A27.07,27.07,0,0,1,39.2,19.6a13.98,13.98,0,0,0-22.4,0,27.07,27.07,0,0,1,3.03,2.63,9.99,9.99,0,0,1,16.34,0Z" transform="translate(0 0)"/>
      <path id="endless-clouds-26" data-name="endless-clouds" class="cls-1" d="M56,26v2H48.25A15.985,15.985,0,0,1,56,26ZM30,28a2,2,0,0,0-4,0H21.91A25.98,25.98,0,0,0,0,16V14c.67,0,1.34.02,2,.07V14a2,2,0,0,0-2-2V10a4,4,0,0,1,3.98,3.6,28.091,28.091,0,0,1,2.8-3.86A8,8,0,0,0,0,6V4A9.99,9.99,0,0,1,8.17,8.23,27.07,27.07,0,0,1,11.2,5.6,13.98,13.98,0,0,0,0,0H7.75a16.141,16.141,0,0,1,5.1,4.45,27.968,27.968,0,0,1,3.53-1.93A20.1,20.1,0,0,0,14.28,0h2.7q.675.84,1.29,1.74a27.333,27.333,0,0,1,4-1.15c-.11-.2-.23-.4-.36-.59H26V.07a28.4,28.4,0,0,1,4,0V0h4.09l-.37.59a26.764,26.764,0,0,1,4.01,1.15c.4-.6.84-1.18,1.3-1.74h2.69a20.1,20.1,0,0,0-2.1,2.52,27.526,27.526,0,0,1,3.54,1.93A16.08,16.08,0,0,1,48.25,0H56A13.972,13.972,0,0,0,44.8,5.6a27.07,27.07,0,0,1,3.03,2.63A9.99,9.99,0,0,1,56,4V6a8,8,0,0,0-6.769,3.739A28.851,28.851,0,0,1,52.02,13.6,4,4,0,0,1,56,10v2a2,2,0,0,0-2,2.07Q55,14,56,14v2A25.96,25.96,0,0,0,34.09,28ZM7.75,28H0V26A15.956,15.956,0,0,1,7.75,28ZM56,20v2a19.935,19.935,0,0,0-14.28,6h-2.7A21.97,21.97,0,0,1,56,20ZM16.97,28H14.28A19.935,19.935,0,0,0,0,22V20a21.935,21.935,0,0,1,16.97,8Zm15.01-.4a28.09,28.09,0,0,1,2.8-3.86,8,8,0,0,0-13.55,0,28.7,28.7,0,0,1,2.79,3.86,4,4,0,0,1,7.96,0ZM46.27,15.74a27.333,27.333,0,0,1,4-1.15,25.99,25.99,0,0,0-44.55,0,26.765,26.765,0,0,1,4.01,1.15,21.98,21.98,0,0,1,36.54,0Zm-5.43,2.71a28.093,28.093,0,0,1,3.54-1.93,19.98,19.98,0,0,0-32.76,0,27.526,27.526,0,0,1,3.54,1.93,15.98,15.98,0,0,1,25.68,0Zm-4.67,3.78A27.07,27.07,0,0,1,39.2,19.6a13.98,13.98,0,0,0-22.4,0,27.07,27.07,0,0,1,3.03,2.63,9.99,9.99,0,0,1,16.34,0Z" transform="translate(56 0)"/>
      <path id="endless-clouds-27" data-name="endless-clouds" class="cls-1" d="M56,26v2H48.25A15.985,15.985,0,0,1,56,26ZM30,28a2,2,0,0,0-4,0H21.91A25.98,25.98,0,0,0,0,16V14c.67,0,1.34.02,2,.07V14a2,2,0,0,0-2-2V10a4,4,0,0,1,3.98,3.6,28.091,28.091,0,0,1,2.8-3.86A8,8,0,0,0,0,6V4A9.99,9.99,0,0,1,8.17,8.23,27.07,27.07,0,0,1,11.2,5.6,13.98,13.98,0,0,0,0,0H7.75a16.141,16.141,0,0,1,5.1,4.45,27.968,27.968,0,0,1,3.53-1.93A20.1,20.1,0,0,0,14.28,0h2.7q.675.84,1.29,1.74a27.333,27.333,0,0,1,4-1.15c-.11-.2-.23-.4-.36-.59H26V.07a28.4,28.4,0,0,1,4,0V0h4.09l-.37.59a26.764,26.764,0,0,1,4.01,1.15c.4-.6.84-1.18,1.3-1.74h2.69a20.1,20.1,0,0,0-2.1,2.52,27.526,27.526,0,0,1,3.54,1.93A16.08,16.08,0,0,1,48.25,0H56A13.972,13.972,0,0,0,44.8,5.6a27.07,27.07,0,0,1,3.03,2.63A9.99,9.99,0,0,1,56,4V6a8,8,0,0,0-6.769,3.739A28.851,28.851,0,0,1,52.02,13.6,4,4,0,0,1,56,10v2a2,2,0,0,0-2,2.07Q55,14,56,14v2A25.96,25.96,0,0,0,34.09,28ZM7.75,28H0V26A15.956,15.956,0,0,1,7.75,28ZM56,20v2a19.935,19.935,0,0,0-14.28,6h-2.7A21.97,21.97,0,0,1,56,20ZM16.97,28H14.28A19.935,19.935,0,0,0,0,22V20a21.935,21.935,0,0,1,16.97,8Zm15.01-.4a28.09,28.09,0,0,1,2.8-3.86,8,8,0,0,0-13.55,0,28.7,28.7,0,0,1,2.79,3.86,4,4,0,0,1,7.96,0ZM46.27,15.74a27.333,27.333,0,0,1,4-1.15,25.99,25.99,0,0,0-44.55,0,26.765,26.765,0,0,1,4.01,1.15,21.98,21.98,0,0,1,36.54,0Zm-5.43,2.71a28.093,28.093,0,0,1,3.54-1.93,19.98,19.98,0,0,0-32.76,0,27.526,27.526,0,0,1,3.54,1.93,15.98,15.98,0,0,1,25.68,0Zm-4.67,3.78A27.07,27.07,0,0,1,39.2,19.6a13.98,13.98,0,0,0-22.4,0,27.07,27.07,0,0,1,3.03,2.63,9.99,9.99,0,0,1,16.34,0Z" transform="translate(112 0)"/>
      <path id="endless-clouds-28" data-name="endless-clouds" class="cls-1" d="M56,26v2H48.25A15.985,15.985,0,0,1,56,26ZM30,28a2,2,0,0,0-4,0H21.91A25.98,25.98,0,0,0,0,16V14c.67,0,1.34.02,2,.07V14a2,2,0,0,0-2-2V10a4,4,0,0,1,3.98,3.6,28.091,28.091,0,0,1,2.8-3.86A8,8,0,0,0,0,6V4A9.99,9.99,0,0,1,8.17,8.23,27.07,27.07,0,0,1,11.2,5.6,13.98,13.98,0,0,0,0,0H7.75a16.141,16.141,0,0,1,5.1,4.45,27.968,27.968,0,0,1,3.53-1.93A20.1,20.1,0,0,0,14.28,0h2.7q.675.84,1.29,1.74a27.333,27.333,0,0,1,4-1.15c-.11-.2-.23-.4-.36-.59H26V.07a28.4,28.4,0,0,1,4,0V0h4.09l-.37.59a26.764,26.764,0,0,1,4.01,1.15c.4-.6.84-1.18,1.3-1.74h2.69a20.1,20.1,0,0,0-2.1,2.52,27.526,27.526,0,0,1,3.54,1.93A16.08,16.08,0,0,1,48.25,0H56A13.972,13.972,0,0,0,44.8,5.6a27.07,27.07,0,0,1,3.03,2.63A9.99,9.99,0,0,1,56,4V6a8,8,0,0,0-6.769,3.739A28.851,28.851,0,0,1,52.02,13.6,4,4,0,0,1,56,10v2a2,2,0,0,0-2,2.07Q55,14,56,14v2A25.96,25.96,0,0,0,34.09,28ZM7.75,28H0V26A15.956,15.956,0,0,1,7.75,28ZM56,20v2a19.935,19.935,0,0,0-14.28,6h-2.7A21.97,21.97,0,0,1,56,20ZM16.97,28H14.28A19.935,19.935,0,0,0,0,22V20a21.935,21.935,0,0,1,16.97,8Zm15.01-.4a28.09,28.09,0,0,1,2.8-3.86,8,8,0,0,0-13.55,0,28.7,28.7,0,0,1,2.79,3.86,4,4,0,0,1,7.96,0ZM46.27,15.74a27.333,27.333,0,0,1,4-1.15,25.99,25.99,0,0,0-44.55,0,26.765,26.765,0,0,1,4.01,1.15,21.98,21.98,0,0,1,36.54,0Zm-5.43,2.71a28.093,28.093,0,0,1,3.54-1.93,19.98,19.98,0,0,0-32.76,0,27.526,27.526,0,0,1,3.54,1.93,15.98,15.98,0,0,1,25.68,0Zm-4.67,3.78A27.07,27.07,0,0,1,39.2,19.6a13.98,13.98,0,0,0-22.4,0,27.07,27.07,0,0,1,3.03,2.63,9.99,9.99,0,0,1,16.34,0Z" transform="translate(0 28)"/>
      <path id="endless-clouds-29" data-name="endless-clouds" class="cls-1" d="M56,26v2H48.25A15.985,15.985,0,0,1,56,26ZM30,28a2,2,0,0,0-4,0H21.91A25.98,25.98,0,0,0,0,16V14c.67,0,1.34.02,2,.07V14a2,2,0,0,0-2-2V10a4,4,0,0,1,3.98,3.6,28.091,28.091,0,0,1,2.8-3.86A8,8,0,0,0,0,6V4A9.99,9.99,0,0,1,8.17,8.23,27.07,27.07,0,0,1,11.2,5.6,13.98,13.98,0,0,0,0,0H7.75a16.141,16.141,0,0,1,5.1,4.45,27.968,27.968,0,0,1,3.53-1.93A20.1,20.1,0,0,0,14.28,0h2.7q.675.84,1.29,1.74a27.333,27.333,0,0,1,4-1.15c-.11-.2-.23-.4-.36-.59H26V.07a28.4,28.4,0,0,1,4,0V0h4.09l-.37.59a26.764,26.764,0,0,1,4.01,1.15c.4-.6.84-1.18,1.3-1.74h2.69a20.1,20.1,0,0,0-2.1,2.52,27.526,27.526,0,0,1,3.54,1.93A16.08,16.08,0,0,1,48.25,0H56A13.972,13.972,0,0,0,44.8,5.6a27.07,27.07,0,0,1,3.03,2.63A9.99,9.99,0,0,1,56,4V6a8,8,0,0,0-6.769,3.739A28.851,28.851,0,0,1,52.02,13.6,4,4,0,0,1,56,10v2a2,2,0,0,0-2,2.07Q55,14,56,14v2A25.96,25.96,0,0,0,34.09,28ZM7.75,28H0V26A15.956,15.956,0,0,1,7.75,28ZM56,20v2a19.935,19.935,0,0,0-14.28,6h-2.7A21.97,21.97,0,0,1,56,20ZM16.97,28H14.28A19.935,19.935,0,0,0,0,22V20a21.935,21.935,0,0,1,16.97,8Zm15.01-.4a28.09,28.09,0,0,1,2.8-3.86,8,8,0,0,0-13.55,0,28.7,28.7,0,0,1,2.79,3.86,4,4,0,0,1,7.96,0ZM46.27,15.74a27.333,27.333,0,0,1,4-1.15,25.99,25.99,0,0,0-44.55,0,26.765,26.765,0,0,1,4.01,1.15,21.98,21.98,0,0,1,36.54,0Zm-5.43,2.71a28.093,28.093,0,0,1,3.54-1.93,19.98,19.98,0,0,0-32.76,0,27.526,27.526,0,0,1,3.54,1.93,15.98,15.98,0,0,1,25.68,0Zm-4.67,3.78A27.07,27.07,0,0,1,39.2,19.6a13.98,13.98,0,0,0-22.4,0,27.07,27.07,0,0,1,3.03,2.63,9.99,9.99,0,0,1,16.34,0Z" transform="translate(56 28)"/>
      <path id="endless-clouds-30" data-name="endless-clouds" class="cls-1" d="M56,26v2H48.25A15.985,15.985,0,0,1,56,26ZM30,28a2,2,0,0,0-4,0H21.91A25.98,25.98,0,0,0,0,16V14c.67,0,1.34.02,2,.07V14a2,2,0,0,0-2-2V10a4,4,0,0,1,3.98,3.6,28.091,28.091,0,0,1,2.8-3.86A8,8,0,0,0,0,6V4A9.99,9.99,0,0,1,8.17,8.23,27.07,27.07,0,0,1,11.2,5.6,13.98,13.98,0,0,0,0,0H7.75a16.141,16.141,0,0,1,5.1,4.45,27.968,27.968,0,0,1,3.53-1.93A20.1,20.1,0,0,0,14.28,0h2.7q.675.84,1.29,1.74a27.333,27.333,0,0,1,4-1.15c-.11-.2-.23-.4-.36-.59H26V.07a28.4,28.4,0,0,1,4,0V0h4.09l-.37.59a26.764,26.764,0,0,1,4.01,1.15c.4-.6.84-1.18,1.3-1.74h2.69a20.1,20.1,0,0,0-2.1,2.52,27.526,27.526,0,0,1,3.54,1.93A16.08,16.08,0,0,1,48.25,0H56A13.972,13.972,0,0,0,44.8,5.6a27.07,27.07,0,0,1,3.03,2.63A9.99,9.99,0,0,1,56,4V6a8,8,0,0,0-6.769,3.739A28.851,28.851,0,0,1,52.02,13.6,4,4,0,0,1,56,10v2a2,2,0,0,0-2,2.07Q55,14,56,14v2A25.96,25.96,0,0,0,34.09,28ZM7.75,28H0V26A15.956,15.956,0,0,1,7.75,28ZM56,20v2a19.935,19.935,0,0,0-14.28,6h-2.7A21.97,21.97,0,0,1,56,20ZM16.97,28H14.28A19.935,19.935,0,0,0,0,22V20a21.935,21.935,0,0,1,16.97,8Zm15.01-.4a28.09,28.09,0,0,1,2.8-3.86,8,8,0,0,0-13.55,0,28.7,28.7,0,0,1,2.79,3.86,4,4,0,0,1,7.96,0ZM46.27,15.74a27.333,27.333,0,0,1,4-1.15,25.99,25.99,0,0,0-44.55,0,26.765,26.765,0,0,1,4.01,1.15,21.98,21.98,0,0,1,36.54,0Zm-5.43,2.71a28.093,28.093,0,0,1,3.54-1.93,19.98,19.98,0,0,0-32.76,0,27.526,27.526,0,0,1,3.54,1.93,15.98,15.98,0,0,1,25.68,0Zm-4.67,3.78A27.07,27.07,0,0,1,39.2,19.6a13.98,13.98,0,0,0-22.4,0,27.07,27.07,0,0,1,3.03,2.63,9.99,9.99,0,0,1,16.34,0Z" transform="translate(112 28)"/>
    </g>
    <g id="Component_48_7" data-name="Component 48 – 7" transform="translate(840)">
      <path id="endless-clouds-31" data-name="endless-clouds" class="cls-1" d="M56,26v2H48.25A15.985,15.985,0,0,1,56,26ZM30,28a2,2,0,0,0-4,0H21.91A25.98,25.98,0,0,0,0,16V14c.67,0,1.34.02,2,.07V14a2,2,0,0,0-2-2V10a4,4,0,0,1,3.98,3.6,28.091,28.091,0,0,1,2.8-3.86A8,8,0,0,0,0,6V4A9.99,9.99,0,0,1,8.17,8.23,27.07,27.07,0,0,1,11.2,5.6,13.98,13.98,0,0,0,0,0H7.75a16.141,16.141,0,0,1,5.1,4.45,27.968,27.968,0,0,1,3.53-1.93A20.1,20.1,0,0,0,14.28,0h2.7q.675.84,1.29,1.74a27.333,27.333,0,0,1,4-1.15c-.11-.2-.23-.4-.36-.59H26V.07a28.4,28.4,0,0,1,4,0V0h4.09l-.37.59a26.764,26.764,0,0,1,4.01,1.15c.4-.6.84-1.18,1.3-1.74h2.69a20.1,20.1,0,0,0-2.1,2.52,27.526,27.526,0,0,1,3.54,1.93A16.08,16.08,0,0,1,48.25,0H56A13.972,13.972,0,0,0,44.8,5.6a27.07,27.07,0,0,1,3.03,2.63A9.99,9.99,0,0,1,56,4V6a8,8,0,0,0-6.769,3.739A28.851,28.851,0,0,1,52.02,13.6,4,4,0,0,1,56,10v2a2,2,0,0,0-2,2.07Q55,14,56,14v2A25.96,25.96,0,0,0,34.09,28ZM7.75,28H0V26A15.956,15.956,0,0,1,7.75,28ZM56,20v2a19.935,19.935,0,0,0-14.28,6h-2.7A21.97,21.97,0,0,1,56,20ZM16.97,28H14.28A19.935,19.935,0,0,0,0,22V20a21.935,21.935,0,0,1,16.97,8Zm15.01-.4a28.09,28.09,0,0,1,2.8-3.86,8,8,0,0,0-13.55,0,28.7,28.7,0,0,1,2.79,3.86,4,4,0,0,1,7.96,0ZM46.27,15.74a27.333,27.333,0,0,1,4-1.15,25.99,25.99,0,0,0-44.55,0,26.765,26.765,0,0,1,4.01,1.15,21.98,21.98,0,0,1,36.54,0Zm-5.43,2.71a28.093,28.093,0,0,1,3.54-1.93,19.98,19.98,0,0,0-32.76,0,27.526,27.526,0,0,1,3.54,1.93,15.98,15.98,0,0,1,25.68,0Zm-4.67,3.78A27.07,27.07,0,0,1,39.2,19.6a13.98,13.98,0,0,0-22.4,0,27.07,27.07,0,0,1,3.03,2.63,9.99,9.99,0,0,1,16.34,0Z" transform="translate(0 0)"/>
      <path id="endless-clouds-32" data-name="endless-clouds" class="cls-1" d="M56,26v2H48.25A15.985,15.985,0,0,1,56,26ZM30,28a2,2,0,0,0-4,0H21.91A25.98,25.98,0,0,0,0,16V14c.67,0,1.34.02,2,.07V14a2,2,0,0,0-2-2V10a4,4,0,0,1,3.98,3.6,28.091,28.091,0,0,1,2.8-3.86A8,8,0,0,0,0,6V4A9.99,9.99,0,0,1,8.17,8.23,27.07,27.07,0,0,1,11.2,5.6,13.98,13.98,0,0,0,0,0H7.75a16.141,16.141,0,0,1,5.1,4.45,27.968,27.968,0,0,1,3.53-1.93A20.1,20.1,0,0,0,14.28,0h2.7q.675.84,1.29,1.74a27.333,27.333,0,0,1,4-1.15c-.11-.2-.23-.4-.36-.59H26V.07a28.4,28.4,0,0,1,4,0V0h4.09l-.37.59a26.764,26.764,0,0,1,4.01,1.15c.4-.6.84-1.18,1.3-1.74h2.69a20.1,20.1,0,0,0-2.1,2.52,27.526,27.526,0,0,1,3.54,1.93A16.08,16.08,0,0,1,48.25,0H56A13.972,13.972,0,0,0,44.8,5.6a27.07,27.07,0,0,1,3.03,2.63A9.99,9.99,0,0,1,56,4V6a8,8,0,0,0-6.769,3.739A28.851,28.851,0,0,1,52.02,13.6,4,4,0,0,1,56,10v2a2,2,0,0,0-2,2.07Q55,14,56,14v2A25.96,25.96,0,0,0,34.09,28ZM7.75,28H0V26A15.956,15.956,0,0,1,7.75,28ZM56,20v2a19.935,19.935,0,0,0-14.28,6h-2.7A21.97,21.97,0,0,1,56,20ZM16.97,28H14.28A19.935,19.935,0,0,0,0,22V20a21.935,21.935,0,0,1,16.97,8Zm15.01-.4a28.09,28.09,0,0,1,2.8-3.86,8,8,0,0,0-13.55,0,28.7,28.7,0,0,1,2.79,3.86,4,4,0,0,1,7.96,0ZM46.27,15.74a27.333,27.333,0,0,1,4-1.15,25.99,25.99,0,0,0-44.55,0,26.765,26.765,0,0,1,4.01,1.15,21.98,21.98,0,0,1,36.54,0Zm-5.43,2.71a28.093,28.093,0,0,1,3.54-1.93,19.98,19.98,0,0,0-32.76,0,27.526,27.526,0,0,1,3.54,1.93,15.98,15.98,0,0,1,25.68,0Zm-4.67,3.78A27.07,27.07,0,0,1,39.2,19.6a13.98,13.98,0,0,0-22.4,0,27.07,27.07,0,0,1,3.03,2.63,9.99,9.99,0,0,1,16.34,0Z" transform="translate(56 0)"/>
      <path id="endless-clouds-33" data-name="endless-clouds" class="cls-1" d="M56,26v2H48.25A15.985,15.985,0,0,1,56,26ZM30,28a2,2,0,0,0-4,0H21.91A25.98,25.98,0,0,0,0,16V14c.67,0,1.34.02,2,.07V14a2,2,0,0,0-2-2V10a4,4,0,0,1,3.98,3.6,28.091,28.091,0,0,1,2.8-3.86A8,8,0,0,0,0,6V4A9.99,9.99,0,0,1,8.17,8.23,27.07,27.07,0,0,1,11.2,5.6,13.98,13.98,0,0,0,0,0H7.75a16.141,16.141,0,0,1,5.1,4.45,27.968,27.968,0,0,1,3.53-1.93A20.1,20.1,0,0,0,14.28,0h2.7q.675.84,1.29,1.74a27.333,27.333,0,0,1,4-1.15c-.11-.2-.23-.4-.36-.59H26V.07a28.4,28.4,0,0,1,4,0V0h4.09l-.37.59a26.764,26.764,0,0,1,4.01,1.15c.4-.6.84-1.18,1.3-1.74h2.69a20.1,20.1,0,0,0-2.1,2.52,27.526,27.526,0,0,1,3.54,1.93A16.08,16.08,0,0,1,48.25,0H56A13.972,13.972,0,0,0,44.8,5.6a27.07,27.07,0,0,1,3.03,2.63A9.99,9.99,0,0,1,56,4V6a8,8,0,0,0-6.769,3.739A28.851,28.851,0,0,1,52.02,13.6,4,4,0,0,1,56,10v2a2,2,0,0,0-2,2.07Q55,14,56,14v2A25.96,25.96,0,0,0,34.09,28ZM7.75,28H0V26A15.956,15.956,0,0,1,7.75,28ZM56,20v2a19.935,19.935,0,0,0-14.28,6h-2.7A21.97,21.97,0,0,1,56,20ZM16.97,28H14.28A19.935,19.935,0,0,0,0,22V20a21.935,21.935,0,0,1,16.97,8Zm15.01-.4a28.09,28.09,0,0,1,2.8-3.86,8,8,0,0,0-13.55,0,28.7,28.7,0,0,1,2.79,3.86,4,4,0,0,1,7.96,0ZM46.27,15.74a27.333,27.333,0,0,1,4-1.15,25.99,25.99,0,0,0-44.55,0,26.765,26.765,0,0,1,4.01,1.15,21.98,21.98,0,0,1,36.54,0Zm-5.43,2.71a28.093,28.093,0,0,1,3.54-1.93,19.98,19.98,0,0,0-32.76,0,27.526,27.526,0,0,1,3.54,1.93,15.98,15.98,0,0,1,25.68,0Zm-4.67,3.78A27.07,27.07,0,0,1,39.2,19.6a13.98,13.98,0,0,0-22.4,0,27.07,27.07,0,0,1,3.03,2.63,9.99,9.99,0,0,1,16.34,0Z" transform="translate(112 0)"/>
      <path id="endless-clouds-34" data-name="endless-clouds" class="cls-1" d="M56,26v2H48.25A15.985,15.985,0,0,1,56,26ZM30,28a2,2,0,0,0-4,0H21.91A25.98,25.98,0,0,0,0,16V14c.67,0,1.34.02,2,.07V14a2,2,0,0,0-2-2V10a4,4,0,0,1,3.98,3.6,28.091,28.091,0,0,1,2.8-3.86A8,8,0,0,0,0,6V4A9.99,9.99,0,0,1,8.17,8.23,27.07,27.07,0,0,1,11.2,5.6,13.98,13.98,0,0,0,0,0H7.75a16.141,16.141,0,0,1,5.1,4.45,27.968,27.968,0,0,1,3.53-1.93A20.1,20.1,0,0,0,14.28,0h2.7q.675.84,1.29,1.74a27.333,27.333,0,0,1,4-1.15c-.11-.2-.23-.4-.36-.59H26V.07a28.4,28.4,0,0,1,4,0V0h4.09l-.37.59a26.764,26.764,0,0,1,4.01,1.15c.4-.6.84-1.18,1.3-1.74h2.69a20.1,20.1,0,0,0-2.1,2.52,27.526,27.526,0,0,1,3.54,1.93A16.08,16.08,0,0,1,48.25,0H56A13.972,13.972,0,0,0,44.8,5.6a27.07,27.07,0,0,1,3.03,2.63A9.99,9.99,0,0,1,56,4V6a8,8,0,0,0-6.769,3.739A28.851,28.851,0,0,1,52.02,13.6,4,4,0,0,1,56,10v2a2,2,0,0,0-2,2.07Q55,14,56,14v2A25.96,25.96,0,0,0,34.09,28ZM7.75,28H0V26A15.956,15.956,0,0,1,7.75,28ZM56,20v2a19.935,19.935,0,0,0-14.28,6h-2.7A21.97,21.97,0,0,1,56,20ZM16.97,28H14.28A19.935,19.935,0,0,0,0,22V20a21.935,21.935,0,0,1,16.97,8Zm15.01-.4a28.09,28.09,0,0,1,2.8-3.86,8,8,0,0,0-13.55,0,28.7,28.7,0,0,1,2.79,3.86,4,4,0,0,1,7.96,0ZM46.27,15.74a27.333,27.333,0,0,1,4-1.15,25.99,25.99,0,0,0-44.55,0,26.765,26.765,0,0,1,4.01,1.15,21.98,21.98,0,0,1,36.54,0Zm-5.43,2.71a28.093,28.093,0,0,1,3.54-1.93,19.98,19.98,0,0,0-32.76,0,27.526,27.526,0,0,1,3.54,1.93,15.98,15.98,0,0,1,25.68,0Zm-4.67,3.78A27.07,27.07,0,0,1,39.2,19.6a13.98,13.98,0,0,0-22.4,0,27.07,27.07,0,0,1,3.03,2.63,9.99,9.99,0,0,1,16.34,0Z" transform="translate(0 28)"/>
      <path id="endless-clouds-35" data-name="endless-clouds" class="cls-1" d="M56,26v2H48.25A15.985,15.985,0,0,1,56,26ZM30,28a2,2,0,0,0-4,0H21.91A25.98,25.98,0,0,0,0,16V14c.67,0,1.34.02,2,.07V14a2,2,0,0,0-2-2V10a4,4,0,0,1,3.98,3.6,28.091,28.091,0,0,1,2.8-3.86A8,8,0,0,0,0,6V4A9.99,9.99,0,0,1,8.17,8.23,27.07,27.07,0,0,1,11.2,5.6,13.98,13.98,0,0,0,0,0H7.75a16.141,16.141,0,0,1,5.1,4.45,27.968,27.968,0,0,1,3.53-1.93A20.1,20.1,0,0,0,14.28,0h2.7q.675.84,1.29,1.74a27.333,27.333,0,0,1,4-1.15c-.11-.2-.23-.4-.36-.59H26V.07a28.4,28.4,0,0,1,4,0V0h4.09l-.37.59a26.764,26.764,0,0,1,4.01,1.15c.4-.6.84-1.18,1.3-1.74h2.69a20.1,20.1,0,0,0-2.1,2.52,27.526,27.526,0,0,1,3.54,1.93A16.08,16.08,0,0,1,48.25,0H56A13.972,13.972,0,0,0,44.8,5.6a27.07,27.07,0,0,1,3.03,2.63A9.99,9.99,0,0,1,56,4V6a8,8,0,0,0-6.769,3.739A28.851,28.851,0,0,1,52.02,13.6,4,4,0,0,1,56,10v2a2,2,0,0,0-2,2.07Q55,14,56,14v2A25.96,25.96,0,0,0,34.09,28ZM7.75,28H0V26A15.956,15.956,0,0,1,7.75,28ZM56,20v2a19.935,19.935,0,0,0-14.28,6h-2.7A21.97,21.97,0,0,1,56,20ZM16.97,28H14.28A19.935,19.935,0,0,0,0,22V20a21.935,21.935,0,0,1,16.97,8Zm15.01-.4a28.09,28.09,0,0,1,2.8-3.86,8,8,0,0,0-13.55,0,28.7,28.7,0,0,1,2.79,3.86,4,4,0,0,1,7.96,0ZM46.27,15.74a27.333,27.333,0,0,1,4-1.15,25.99,25.99,0,0,0-44.55,0,26.765,26.765,0,0,1,4.01,1.15,21.98,21.98,0,0,1,36.54,0Zm-5.43,2.71a28.093,28.093,0,0,1,3.54-1.93,19.98,19.98,0,0,0-32.76,0,27.526,27.526,0,0,1,3.54,1.93,15.98,15.98,0,0,1,25.68,0Zm-4.67,3.78A27.07,27.07,0,0,1,39.2,19.6a13.98,13.98,0,0,0-22.4,0,27.07,27.07,0,0,1,3.03,2.63,9.99,9.99,0,0,1,16.34,0Z" transform="translate(56 28)"/>
      <path id="endless-clouds-36" data-name="endless-clouds" class="cls-1" d="M56,26v2H48.25A15.985,15.985,0,0,1,56,26ZM30,28a2,2,0,0,0-4,0H21.91A25.98,25.98,0,0,0,0,16V14c.67,0,1.34.02,2,.07V14a2,2,0,0,0-2-2V10a4,4,0,0,1,3.98,3.6,28.091,28.091,0,0,1,2.8-3.86A8,8,0,0,0,0,6V4A9.99,9.99,0,0,1,8.17,8.23,27.07,27.07,0,0,1,11.2,5.6,13.98,13.98,0,0,0,0,0H7.75a16.141,16.141,0,0,1,5.1,4.45,27.968,27.968,0,0,1,3.53-1.93A20.1,20.1,0,0,0,14.28,0h2.7q.675.84,1.29,1.74a27.333,27.333,0,0,1,4-1.15c-.11-.2-.23-.4-.36-.59H26V.07a28.4,28.4,0,0,1,4,0V0h4.09l-.37.59a26.764,26.764,0,0,1,4.01,1.15c.4-.6.84-1.18,1.3-1.74h2.69a20.1,20.1,0,0,0-2.1,2.52,27.526,27.526,0,0,1,3.54,1.93A16.08,16.08,0,0,1,48.25,0H56A13.972,13.972,0,0,0,44.8,5.6a27.07,27.07,0,0,1,3.03,2.63A9.99,9.99,0,0,1,56,4V6a8,8,0,0,0-6.769,3.739A28.851,28.851,0,0,1,52.02,13.6,4,4,0,0,1,56,10v2a2,2,0,0,0-2,2.07Q55,14,56,14v2A25.96,25.96,0,0,0,34.09,28ZM7.75,28H0V26A15.956,15.956,0,0,1,7.75,28ZM56,20v2a19.935,19.935,0,0,0-14.28,6h-2.7A21.97,21.97,0,0,1,56,20ZM16.97,28H14.28A19.935,19.935,0,0,0,0,22V20a21.935,21.935,0,0,1,16.97,8Zm15.01-.4a28.09,28.09,0,0,1,2.8-3.86,8,8,0,0,0-13.55,0,28.7,28.7,0,0,1,2.79,3.86,4,4,0,0,1,7.96,0ZM46.27,15.74a27.333,27.333,0,0,1,4-1.15,25.99,25.99,0,0,0-44.55,0,26.765,26.765,0,0,1,4.01,1.15,21.98,21.98,0,0,1,36.54,0Zm-5.43,2.71a28.093,28.093,0,0,1,3.54-1.93,19.98,19.98,0,0,0-32.76,0,27.526,27.526,0,0,1,3.54,1.93,15.98,15.98,0,0,1,25.68,0Zm-4.67,3.78A27.07,27.07,0,0,1,39.2,19.6a13.98,13.98,0,0,0-22.4,0,27.07,27.07,0,0,1,3.03,2.63,9.99,9.99,0,0,1,16.34,0Z" transform="translate(112 28)"/>
    </g>
    <g id="Component_48_8" data-name="Component 48 – 8" transform="translate(1008)">
      <path id="endless-clouds-37" data-name="endless-clouds" class="cls-1" d="M56,26v2H48.25A15.985,15.985,0,0,1,56,26ZM30,28a2,2,0,0,0-4,0H21.91A25.98,25.98,0,0,0,0,16V14c.67,0,1.34.02,2,.07V14a2,2,0,0,0-2-2V10a4,4,0,0,1,3.98,3.6,28.091,28.091,0,0,1,2.8-3.86A8,8,0,0,0,0,6V4A9.99,9.99,0,0,1,8.17,8.23,27.07,27.07,0,0,1,11.2,5.6,13.98,13.98,0,0,0,0,0H7.75a16.141,16.141,0,0,1,5.1,4.45,27.968,27.968,0,0,1,3.53-1.93A20.1,20.1,0,0,0,14.28,0h2.7q.675.84,1.29,1.74a27.333,27.333,0,0,1,4-1.15c-.11-.2-.23-.4-.36-.59H26V.07a28.4,28.4,0,0,1,4,0V0h4.09l-.37.59a26.764,26.764,0,0,1,4.01,1.15c.4-.6.84-1.18,1.3-1.74h2.69a20.1,20.1,0,0,0-2.1,2.52,27.526,27.526,0,0,1,3.54,1.93A16.08,16.08,0,0,1,48.25,0H56A13.972,13.972,0,0,0,44.8,5.6a27.07,27.07,0,0,1,3.03,2.63A9.99,9.99,0,0,1,56,4V6a8,8,0,0,0-6.769,3.739A28.851,28.851,0,0,1,52.02,13.6,4,4,0,0,1,56,10v2a2,2,0,0,0-2,2.07Q55,14,56,14v2A25.96,25.96,0,0,0,34.09,28ZM7.75,28H0V26A15.956,15.956,0,0,1,7.75,28ZM56,20v2a19.935,19.935,0,0,0-14.28,6h-2.7A21.97,21.97,0,0,1,56,20ZM16.97,28H14.28A19.935,19.935,0,0,0,0,22V20a21.935,21.935,0,0,1,16.97,8Zm15.01-.4a28.09,28.09,0,0,1,2.8-3.86,8,8,0,0,0-13.55,0,28.7,28.7,0,0,1,2.79,3.86,4,4,0,0,1,7.96,0ZM46.27,15.74a27.333,27.333,0,0,1,4-1.15,25.99,25.99,0,0,0-44.55,0,26.765,26.765,0,0,1,4.01,1.15,21.98,21.98,0,0,1,36.54,0Zm-5.43,2.71a28.093,28.093,0,0,1,3.54-1.93,19.98,19.98,0,0,0-32.76,0,27.526,27.526,0,0,1,3.54,1.93,15.98,15.98,0,0,1,25.68,0Zm-4.67,3.78A27.07,27.07,0,0,1,39.2,19.6a13.98,13.98,0,0,0-22.4,0,27.07,27.07,0,0,1,3.03,2.63,9.99,9.99,0,0,1,16.34,0Z" transform="translate(0 0)"/>
      <path id="endless-clouds-38" data-name="endless-clouds" class="cls-1" d="M56,26v2H48.25A15.985,15.985,0,0,1,56,26ZM30,28a2,2,0,0,0-4,0H21.91A25.98,25.98,0,0,0,0,16V14c.67,0,1.34.02,2,.07V14a2,2,0,0,0-2-2V10a4,4,0,0,1,3.98,3.6,28.091,28.091,0,0,1,2.8-3.86A8,8,0,0,0,0,6V4A9.99,9.99,0,0,1,8.17,8.23,27.07,27.07,0,0,1,11.2,5.6,13.98,13.98,0,0,0,0,0H7.75a16.141,16.141,0,0,1,5.1,4.45,27.968,27.968,0,0,1,3.53-1.93A20.1,20.1,0,0,0,14.28,0h2.7q.675.84,1.29,1.74a27.333,27.333,0,0,1,4-1.15c-.11-.2-.23-.4-.36-.59H26V.07a28.4,28.4,0,0,1,4,0V0h4.09l-.37.59a26.764,26.764,0,0,1,4.01,1.15c.4-.6.84-1.18,1.3-1.74h2.69a20.1,20.1,0,0,0-2.1,2.52,27.526,27.526,0,0,1,3.54,1.93A16.08,16.08,0,0,1,48.25,0H56A13.972,13.972,0,0,0,44.8,5.6a27.07,27.07,0,0,1,3.03,2.63A9.99,9.99,0,0,1,56,4V6a8,8,0,0,0-6.769,3.739A28.851,28.851,0,0,1,52.02,13.6,4,4,0,0,1,56,10v2a2,2,0,0,0-2,2.07Q55,14,56,14v2A25.96,25.96,0,0,0,34.09,28ZM7.75,28H0V26A15.956,15.956,0,0,1,7.75,28ZM56,20v2a19.935,19.935,0,0,0-14.28,6h-2.7A21.97,21.97,0,0,1,56,20ZM16.97,28H14.28A19.935,19.935,0,0,0,0,22V20a21.935,21.935,0,0,1,16.97,8Zm15.01-.4a28.09,28.09,0,0,1,2.8-3.86,8,8,0,0,0-13.55,0,28.7,28.7,0,0,1,2.79,3.86,4,4,0,0,1,7.96,0ZM46.27,15.74a27.333,27.333,0,0,1,4-1.15,25.99,25.99,0,0,0-44.55,0,26.765,26.765,0,0,1,4.01,1.15,21.98,21.98,0,0,1,36.54,0Zm-5.43,2.71a28.093,28.093,0,0,1,3.54-1.93,19.98,19.98,0,0,0-32.76,0,27.526,27.526,0,0,1,3.54,1.93,15.98,15.98,0,0,1,25.68,0Zm-4.67,3.78A27.07,27.07,0,0,1,39.2,19.6a13.98,13.98,0,0,0-22.4,0,27.07,27.07,0,0,1,3.03,2.63,9.99,9.99,0,0,1,16.34,0Z" transform="translate(56 0)"/>
      <path id="endless-clouds-39" data-name="endless-clouds" class="cls-1" d="M56,26v2H48.25A15.985,15.985,0,0,1,56,26ZM30,28a2,2,0,0,0-4,0H21.91A25.98,25.98,0,0,0,0,16V14c.67,0,1.34.02,2,.07V14a2,2,0,0,0-2-2V10a4,4,0,0,1,3.98,3.6,28.091,28.091,0,0,1,2.8-3.86A8,8,0,0,0,0,6V4A9.99,9.99,0,0,1,8.17,8.23,27.07,27.07,0,0,1,11.2,5.6,13.98,13.98,0,0,0,0,0H7.75a16.141,16.141,0,0,1,5.1,4.45,27.968,27.968,0,0,1,3.53-1.93A20.1,20.1,0,0,0,14.28,0h2.7q.675.84,1.29,1.74a27.333,27.333,0,0,1,4-1.15c-.11-.2-.23-.4-.36-.59H26V.07a28.4,28.4,0,0,1,4,0V0h4.09l-.37.59a26.764,26.764,0,0,1,4.01,1.15c.4-.6.84-1.18,1.3-1.74h2.69a20.1,20.1,0,0,0-2.1,2.52,27.526,27.526,0,0,1,3.54,1.93A16.08,16.08,0,0,1,48.25,0H56A13.972,13.972,0,0,0,44.8,5.6a27.07,27.07,0,0,1,3.03,2.63A9.99,9.99,0,0,1,56,4V6a8,8,0,0,0-6.769,3.739A28.851,28.851,0,0,1,52.02,13.6,4,4,0,0,1,56,10v2a2,2,0,0,0-2,2.07Q55,14,56,14v2A25.96,25.96,0,0,0,34.09,28ZM7.75,28H0V26A15.956,15.956,0,0,1,7.75,28ZM56,20v2a19.935,19.935,0,0,0-14.28,6h-2.7A21.97,21.97,0,0,1,56,20ZM16.97,28H14.28A19.935,19.935,0,0,0,0,22V20a21.935,21.935,0,0,1,16.97,8Zm15.01-.4a28.09,28.09,0,0,1,2.8-3.86,8,8,0,0,0-13.55,0,28.7,28.7,0,0,1,2.79,3.86,4,4,0,0,1,7.96,0ZM46.27,15.74a27.333,27.333,0,0,1,4-1.15,25.99,25.99,0,0,0-44.55,0,26.765,26.765,0,0,1,4.01,1.15,21.98,21.98,0,0,1,36.54,0Zm-5.43,2.71a28.093,28.093,0,0,1,3.54-1.93,19.98,19.98,0,0,0-32.76,0,27.526,27.526,0,0,1,3.54,1.93,15.98,15.98,0,0,1,25.68,0Zm-4.67,3.78A27.07,27.07,0,0,1,39.2,19.6a13.98,13.98,0,0,0-22.4,0,27.07,27.07,0,0,1,3.03,2.63,9.99,9.99,0,0,1,16.34,0Z" transform="translate(112 0)"/>
      <path id="endless-clouds-40" data-name="endless-clouds" class="cls-1" d="M56,26v2H48.25A15.985,15.985,0,0,1,56,26ZM30,28a2,2,0,0,0-4,0H21.91A25.98,25.98,0,0,0,0,16V14c.67,0,1.34.02,2,.07V14a2,2,0,0,0-2-2V10a4,4,0,0,1,3.98,3.6,28.091,28.091,0,0,1,2.8-3.86A8,8,0,0,0,0,6V4A9.99,9.99,0,0,1,8.17,8.23,27.07,27.07,0,0,1,11.2,5.6,13.98,13.98,0,0,0,0,0H7.75a16.141,16.141,0,0,1,5.1,4.45,27.968,27.968,0,0,1,3.53-1.93A20.1,20.1,0,0,0,14.28,0h2.7q.675.84,1.29,1.74a27.333,27.333,0,0,1,4-1.15c-.11-.2-.23-.4-.36-.59H26V.07a28.4,28.4,0,0,1,4,0V0h4.09l-.37.59a26.764,26.764,0,0,1,4.01,1.15c.4-.6.84-1.18,1.3-1.74h2.69a20.1,20.1,0,0,0-2.1,2.52,27.526,27.526,0,0,1,3.54,1.93A16.08,16.08,0,0,1,48.25,0H56A13.972,13.972,0,0,0,44.8,5.6a27.07,27.07,0,0,1,3.03,2.63A9.99,9.99,0,0,1,56,4V6a8,8,0,0,0-6.769,3.739A28.851,28.851,0,0,1,52.02,13.6,4,4,0,0,1,56,10v2a2,2,0,0,0-2,2.07Q55,14,56,14v2A25.96,25.96,0,0,0,34.09,28ZM7.75,28H0V26A15.956,15.956,0,0,1,7.75,28ZM56,20v2a19.935,19.935,0,0,0-14.28,6h-2.7A21.97,21.97,0,0,1,56,20ZM16.97,28H14.28A19.935,19.935,0,0,0,0,22V20a21.935,21.935,0,0,1,16.97,8Zm15.01-.4a28.09,28.09,0,0,1,2.8-3.86,8,8,0,0,0-13.55,0,28.7,28.7,0,0,1,2.79,3.86,4,4,0,0,1,7.96,0ZM46.27,15.74a27.333,27.333,0,0,1,4-1.15,25.99,25.99,0,0,0-44.55,0,26.765,26.765,0,0,1,4.01,1.15,21.98,21.98,0,0,1,36.54,0Zm-5.43,2.71a28.093,28.093,0,0,1,3.54-1.93,19.98,19.98,0,0,0-32.76,0,27.526,27.526,0,0,1,3.54,1.93,15.98,15.98,0,0,1,25.68,0Zm-4.67,3.78A27.07,27.07,0,0,1,39.2,19.6a13.98,13.98,0,0,0-22.4,0,27.07,27.07,0,0,1,3.03,2.63,9.99,9.99,0,0,1,16.34,0Z" transform="translate(0 28)"/>
      <path id="endless-clouds-41" data-name="endless-clouds" class="cls-1" d="M56,26v2H48.25A15.985,15.985,0,0,1,56,26ZM30,28a2,2,0,0,0-4,0H21.91A25.98,25.98,0,0,0,0,16V14c.67,0,1.34.02,2,.07V14a2,2,0,0,0-2-2V10a4,4,0,0,1,3.98,3.6,28.091,28.091,0,0,1,2.8-3.86A8,8,0,0,0,0,6V4A9.99,9.99,0,0,1,8.17,8.23,27.07,27.07,0,0,1,11.2,5.6,13.98,13.98,0,0,0,0,0H7.75a16.141,16.141,0,0,1,5.1,4.45,27.968,27.968,0,0,1,3.53-1.93A20.1,20.1,0,0,0,14.28,0h2.7q.675.84,1.29,1.74a27.333,27.333,0,0,1,4-1.15c-.11-.2-.23-.4-.36-.59H26V.07a28.4,28.4,0,0,1,4,0V0h4.09l-.37.59a26.764,26.764,0,0,1,4.01,1.15c.4-.6.84-1.18,1.3-1.74h2.69a20.1,20.1,0,0,0-2.1,2.52,27.526,27.526,0,0,1,3.54,1.93A16.08,16.08,0,0,1,48.25,0H56A13.972,13.972,0,0,0,44.8,5.6a27.07,27.07,0,0,1,3.03,2.63A9.99,9.99,0,0,1,56,4V6a8,8,0,0,0-6.769,3.739A28.851,28.851,0,0,1,52.02,13.6,4,4,0,0,1,56,10v2a2,2,0,0,0-2,2.07Q55,14,56,14v2A25.96,25.96,0,0,0,34.09,28ZM7.75,28H0V26A15.956,15.956,0,0,1,7.75,28ZM56,20v2a19.935,19.935,0,0,0-14.28,6h-2.7A21.97,21.97,0,0,1,56,20ZM16.97,28H14.28A19.935,19.935,0,0,0,0,22V20a21.935,21.935,0,0,1,16.97,8Zm15.01-.4a28.09,28.09,0,0,1,2.8-3.86,8,8,0,0,0-13.55,0,28.7,28.7,0,0,1,2.79,3.86,4,4,0,0,1,7.96,0ZM46.27,15.74a27.333,27.333,0,0,1,4-1.15,25.99,25.99,0,0,0-44.55,0,26.765,26.765,0,0,1,4.01,1.15,21.98,21.98,0,0,1,36.54,0Zm-5.43,2.71a28.093,28.093,0,0,1,3.54-1.93,19.98,19.98,0,0,0-32.76,0,27.526,27.526,0,0,1,3.54,1.93,15.98,15.98,0,0,1,25.68,0Zm-4.67,3.78A27.07,27.07,0,0,1,39.2,19.6a13.98,13.98,0,0,0-22.4,0,27.07,27.07,0,0,1,3.03,2.63,9.99,9.99,0,0,1,16.34,0Z" transform="translate(56 28)"/>
      <path id="endless-clouds-42" data-name="endless-clouds" class="cls-1" d="M56,26v2H48.25A15.985,15.985,0,0,1,56,26ZM30,28a2,2,0,0,0-4,0H21.91A25.98,25.98,0,0,0,0,16V14c.67,0,1.34.02,2,.07V14a2,2,0,0,0-2-2V10a4,4,0,0,1,3.98,3.6,28.091,28.091,0,0,1,2.8-3.86A8,8,0,0,0,0,6V4A9.99,9.99,0,0,1,8.17,8.23,27.07,27.07,0,0,1,11.2,5.6,13.98,13.98,0,0,0,0,0H7.75a16.141,16.141,0,0,1,5.1,4.45,27.968,27.968,0,0,1,3.53-1.93A20.1,20.1,0,0,0,14.28,0h2.7q.675.84,1.29,1.74a27.333,27.333,0,0,1,4-1.15c-.11-.2-.23-.4-.36-.59H26V.07a28.4,28.4,0,0,1,4,0V0h4.09l-.37.59a26.764,26.764,0,0,1,4.01,1.15c.4-.6.84-1.18,1.3-1.74h2.69a20.1,20.1,0,0,0-2.1,2.52,27.526,27.526,0,0,1,3.54,1.93A16.08,16.08,0,0,1,48.25,0H56A13.972,13.972,0,0,0,44.8,5.6a27.07,27.07,0,0,1,3.03,2.63A9.99,9.99,0,0,1,56,4V6a8,8,0,0,0-6.769,3.739A28.851,28.851,0,0,1,52.02,13.6,4,4,0,0,1,56,10v2a2,2,0,0,0-2,2.07Q55,14,56,14v2A25.96,25.96,0,0,0,34.09,28ZM7.75,28H0V26A15.956,15.956,0,0,1,7.75,28ZM56,20v2a19.935,19.935,0,0,0-14.28,6h-2.7A21.97,21.97,0,0,1,56,20ZM16.97,28H14.28A19.935,19.935,0,0,0,0,22V20a21.935,21.935,0,0,1,16.97,8Zm15.01-.4a28.09,28.09,0,0,1,2.8-3.86,8,8,0,0,0-13.55,0,28.7,28.7,0,0,1,2.79,3.86,4,4,0,0,1,7.96,0ZM46.27,15.74a27.333,27.333,0,0,1,4-1.15,25.99,25.99,0,0,0-44.55,0,26.765,26.765,0,0,1,4.01,1.15,21.98,21.98,0,0,1,36.54,0Zm-5.43,2.71a28.093,28.093,0,0,1,3.54-1.93,19.98,19.98,0,0,0-32.76,0,27.526,27.526,0,0,1,3.54,1.93,15.98,15.98,0,0,1,25.68,0Zm-4.67,3.78A27.07,27.07,0,0,1,39.2,19.6a13.98,13.98,0,0,0-22.4,0,27.07,27.07,0,0,1,3.03,2.63,9.99,9.99,0,0,1,16.34,0Z" transform="translate(112 28)"/>
    </g>
    <g id="Component_48_9" data-name="Component 48 – 9" transform="translate(1176)">
      <path id="endless-clouds-43" data-name="endless-clouds" class="cls-1" d="M56,26v2H48.25A15.985,15.985,0,0,1,56,26ZM30,28a2,2,0,0,0-4,0H21.91A25.98,25.98,0,0,0,0,16V14c.67,0,1.34.02,2,.07V14a2,2,0,0,0-2-2V10a4,4,0,0,1,3.98,3.6,28.091,28.091,0,0,1,2.8-3.86A8,8,0,0,0,0,6V4A9.99,9.99,0,0,1,8.17,8.23,27.07,27.07,0,0,1,11.2,5.6,13.98,13.98,0,0,0,0,0H7.75a16.141,16.141,0,0,1,5.1,4.45,27.968,27.968,0,0,1,3.53-1.93A20.1,20.1,0,0,0,14.28,0h2.7q.675.84,1.29,1.74a27.333,27.333,0,0,1,4-1.15c-.11-.2-.23-.4-.36-.59H26V.07a28.4,28.4,0,0,1,4,0V0h4.09l-.37.59a26.764,26.764,0,0,1,4.01,1.15c.4-.6.84-1.18,1.3-1.74h2.69a20.1,20.1,0,0,0-2.1,2.52,27.526,27.526,0,0,1,3.54,1.93A16.08,16.08,0,0,1,48.25,0H56A13.972,13.972,0,0,0,44.8,5.6a27.07,27.07,0,0,1,3.03,2.63A9.99,9.99,0,0,1,56,4V6a8,8,0,0,0-6.769,3.739A28.851,28.851,0,0,1,52.02,13.6,4,4,0,0,1,56,10v2a2,2,0,0,0-2,2.07Q55,14,56,14v2A25.96,25.96,0,0,0,34.09,28ZM7.75,28H0V26A15.956,15.956,0,0,1,7.75,28ZM56,20v2a19.935,19.935,0,0,0-14.28,6h-2.7A21.97,21.97,0,0,1,56,20ZM16.97,28H14.28A19.935,19.935,0,0,0,0,22V20a21.935,21.935,0,0,1,16.97,8Zm15.01-.4a28.09,28.09,0,0,1,2.8-3.86,8,8,0,0,0-13.55,0,28.7,28.7,0,0,1,2.79,3.86,4,4,0,0,1,7.96,0ZM46.27,15.74a27.333,27.333,0,0,1,4-1.15,25.99,25.99,0,0,0-44.55,0,26.765,26.765,0,0,1,4.01,1.15,21.98,21.98,0,0,1,36.54,0Zm-5.43,2.71a28.093,28.093,0,0,1,3.54-1.93,19.98,19.98,0,0,0-32.76,0,27.526,27.526,0,0,1,3.54,1.93,15.98,15.98,0,0,1,25.68,0Zm-4.67,3.78A27.07,27.07,0,0,1,39.2,19.6a13.98,13.98,0,0,0-22.4,0,27.07,27.07,0,0,1,3.03,2.63,9.99,9.99,0,0,1,16.34,0Z" transform="translate(0 0)"/>
      <path id="endless-clouds-44" data-name="endless-clouds" class="cls-1" d="M56,26v2H48.25A15.985,15.985,0,0,1,56,26ZM30,28a2,2,0,0,0-4,0H21.91A25.98,25.98,0,0,0,0,16V14c.67,0,1.34.02,2,.07V14a2,2,0,0,0-2-2V10a4,4,0,0,1,3.98,3.6,28.091,28.091,0,0,1,2.8-3.86A8,8,0,0,0,0,6V4A9.99,9.99,0,0,1,8.17,8.23,27.07,27.07,0,0,1,11.2,5.6,13.98,13.98,0,0,0,0,0H7.75a16.141,16.141,0,0,1,5.1,4.45,27.968,27.968,0,0,1,3.53-1.93A20.1,20.1,0,0,0,14.28,0h2.7q.675.84,1.29,1.74a27.333,27.333,0,0,1,4-1.15c-.11-.2-.23-.4-.36-.59H26V.07a28.4,28.4,0,0,1,4,0V0h4.09l-.37.59a26.764,26.764,0,0,1,4.01,1.15c.4-.6.84-1.18,1.3-1.74h2.69a20.1,20.1,0,0,0-2.1,2.52,27.526,27.526,0,0,1,3.54,1.93A16.08,16.08,0,0,1,48.25,0H56A13.972,13.972,0,0,0,44.8,5.6a27.07,27.07,0,0,1,3.03,2.63A9.99,9.99,0,0,1,56,4V6a8,8,0,0,0-6.769,3.739A28.851,28.851,0,0,1,52.02,13.6,4,4,0,0,1,56,10v2a2,2,0,0,0-2,2.07Q55,14,56,14v2A25.96,25.96,0,0,0,34.09,28ZM7.75,28H0V26A15.956,15.956,0,0,1,7.75,28ZM56,20v2a19.935,19.935,0,0,0-14.28,6h-2.7A21.97,21.97,0,0,1,56,20ZM16.97,28H14.28A19.935,19.935,0,0,0,0,22V20a21.935,21.935,0,0,1,16.97,8Zm15.01-.4a28.09,28.09,0,0,1,2.8-3.86,8,8,0,0,0-13.55,0,28.7,28.7,0,0,1,2.79,3.86,4,4,0,0,1,7.96,0ZM46.27,15.74a27.333,27.333,0,0,1,4-1.15,25.99,25.99,0,0,0-44.55,0,26.765,26.765,0,0,1,4.01,1.15,21.98,21.98,0,0,1,36.54,0Zm-5.43,2.71a28.093,28.093,0,0,1,3.54-1.93,19.98,19.98,0,0,0-32.76,0,27.526,27.526,0,0,1,3.54,1.93,15.98,15.98,0,0,1,25.68,0Zm-4.67,3.78A27.07,27.07,0,0,1,39.2,19.6a13.98,13.98,0,0,0-22.4,0,27.07,27.07,0,0,1,3.03,2.63,9.99,9.99,0,0,1,16.34,0Z" transform="translate(56 0)"/>
      <path id="endless-clouds-45" data-name="endless-clouds" class="cls-1" d="M56,26v2H48.25A15.985,15.985,0,0,1,56,26ZM30,28a2,2,0,0,0-4,0H21.91A25.98,25.98,0,0,0,0,16V14c.67,0,1.34.02,2,.07V14a2,2,0,0,0-2-2V10a4,4,0,0,1,3.98,3.6,28.091,28.091,0,0,1,2.8-3.86A8,8,0,0,0,0,6V4A9.99,9.99,0,0,1,8.17,8.23,27.07,27.07,0,0,1,11.2,5.6,13.98,13.98,0,0,0,0,0H7.75a16.141,16.141,0,0,1,5.1,4.45,27.968,27.968,0,0,1,3.53-1.93A20.1,20.1,0,0,0,14.28,0h2.7q.675.84,1.29,1.74a27.333,27.333,0,0,1,4-1.15c-.11-.2-.23-.4-.36-.59H26V.07a28.4,28.4,0,0,1,4,0V0h4.09l-.37.59a26.764,26.764,0,0,1,4.01,1.15c.4-.6.84-1.18,1.3-1.74h2.69a20.1,20.1,0,0,0-2.1,2.52,27.526,27.526,0,0,1,3.54,1.93A16.08,16.08,0,0,1,48.25,0H56A13.972,13.972,0,0,0,44.8,5.6a27.07,27.07,0,0,1,3.03,2.63A9.99,9.99,0,0,1,56,4V6a8,8,0,0,0-6.769,3.739A28.851,28.851,0,0,1,52.02,13.6,4,4,0,0,1,56,10v2a2,2,0,0,0-2,2.07Q55,14,56,14v2A25.96,25.96,0,0,0,34.09,28ZM7.75,28H0V26A15.956,15.956,0,0,1,7.75,28ZM56,20v2a19.935,19.935,0,0,0-14.28,6h-2.7A21.97,21.97,0,0,1,56,20ZM16.97,28H14.28A19.935,19.935,0,0,0,0,22V20a21.935,21.935,0,0,1,16.97,8Zm15.01-.4a28.09,28.09,0,0,1,2.8-3.86,8,8,0,0,0-13.55,0,28.7,28.7,0,0,1,2.79,3.86,4,4,0,0,1,7.96,0ZM46.27,15.74a27.333,27.333,0,0,1,4-1.15,25.99,25.99,0,0,0-44.55,0,26.765,26.765,0,0,1,4.01,1.15,21.98,21.98,0,0,1,36.54,0Zm-5.43,2.71a28.093,28.093,0,0,1,3.54-1.93,19.98,19.98,0,0,0-32.76,0,27.526,27.526,0,0,1,3.54,1.93,15.98,15.98,0,0,1,25.68,0Zm-4.67,3.78A27.07,27.07,0,0,1,39.2,19.6a13.98,13.98,0,0,0-22.4,0,27.07,27.07,0,0,1,3.03,2.63,9.99,9.99,0,0,1,16.34,0Z" transform="translate(112 0)"/>
      <path id="endless-clouds-46" data-name="endless-clouds" class="cls-1" d="M56,26v2H48.25A15.985,15.985,0,0,1,56,26ZM30,28a2,2,0,0,0-4,0H21.91A25.98,25.98,0,0,0,0,16V14c.67,0,1.34.02,2,.07V14a2,2,0,0,0-2-2V10a4,4,0,0,1,3.98,3.6,28.091,28.091,0,0,1,2.8-3.86A8,8,0,0,0,0,6V4A9.99,9.99,0,0,1,8.17,8.23,27.07,27.07,0,0,1,11.2,5.6,13.98,13.98,0,0,0,0,0H7.75a16.141,16.141,0,0,1,5.1,4.45,27.968,27.968,0,0,1,3.53-1.93A20.1,20.1,0,0,0,14.28,0h2.7q.675.84,1.29,1.74a27.333,27.333,0,0,1,4-1.15c-.11-.2-.23-.4-.36-.59H26V.07a28.4,28.4,0,0,1,4,0V0h4.09l-.37.59a26.764,26.764,0,0,1,4.01,1.15c.4-.6.84-1.18,1.3-1.74h2.69a20.1,20.1,0,0,0-2.1,2.52,27.526,27.526,0,0,1,3.54,1.93A16.08,16.08,0,0,1,48.25,0H56A13.972,13.972,0,0,0,44.8,5.6a27.07,27.07,0,0,1,3.03,2.63A9.99,9.99,0,0,1,56,4V6a8,8,0,0,0-6.769,3.739A28.851,28.851,0,0,1,52.02,13.6,4,4,0,0,1,56,10v2a2,2,0,0,0-2,2.07Q55,14,56,14v2A25.96,25.96,0,0,0,34.09,28ZM7.75,28H0V26A15.956,15.956,0,0,1,7.75,28ZM56,20v2a19.935,19.935,0,0,0-14.28,6h-2.7A21.97,21.97,0,0,1,56,20ZM16.97,28H14.28A19.935,19.935,0,0,0,0,22V20a21.935,21.935,0,0,1,16.97,8Zm15.01-.4a28.09,28.09,0,0,1,2.8-3.86,8,8,0,0,0-13.55,0,28.7,28.7,0,0,1,2.79,3.86,4,4,0,0,1,7.96,0ZM46.27,15.74a27.333,27.333,0,0,1,4-1.15,25.99,25.99,0,0,0-44.55,0,26.765,26.765,0,0,1,4.01,1.15,21.98,21.98,0,0,1,36.54,0Zm-5.43,2.71a28.093,28.093,0,0,1,3.54-1.93,19.98,19.98,0,0,0-32.76,0,27.526,27.526,0,0,1,3.54,1.93,15.98,15.98,0,0,1,25.68,0Zm-4.67,3.78A27.07,27.07,0,0,1,39.2,19.6a13.98,13.98,0,0,0-22.4,0,27.07,27.07,0,0,1,3.03,2.63,9.99,9.99,0,0,1,16.34,0Z" transform="translate(0 28)"/>
      <path id="endless-clouds-47" data-name="endless-clouds" class="cls-1" d="M56,26v2H48.25A15.985,15.985,0,0,1,56,26ZM30,28a2,2,0,0,0-4,0H21.91A25.98,25.98,0,0,0,0,16V14c.67,0,1.34.02,2,.07V14a2,2,0,0,0-2-2V10a4,4,0,0,1,3.98,3.6,28.091,28.091,0,0,1,2.8-3.86A8,8,0,0,0,0,6V4A9.99,9.99,0,0,1,8.17,8.23,27.07,27.07,0,0,1,11.2,5.6,13.98,13.98,0,0,0,0,0H7.75a16.141,16.141,0,0,1,5.1,4.45,27.968,27.968,0,0,1,3.53-1.93A20.1,20.1,0,0,0,14.28,0h2.7q.675.84,1.29,1.74a27.333,27.333,0,0,1,4-1.15c-.11-.2-.23-.4-.36-.59H26V.07a28.4,28.4,0,0,1,4,0V0h4.09l-.37.59a26.764,26.764,0,0,1,4.01,1.15c.4-.6.84-1.18,1.3-1.74h2.69a20.1,20.1,0,0,0-2.1,2.52,27.526,27.526,0,0,1,3.54,1.93A16.08,16.08,0,0,1,48.25,0H56A13.972,13.972,0,0,0,44.8,5.6a27.07,27.07,0,0,1,3.03,2.63A9.99,9.99,0,0,1,56,4V6a8,8,0,0,0-6.769,3.739A28.851,28.851,0,0,1,52.02,13.6,4,4,0,0,1,56,10v2a2,2,0,0,0-2,2.07Q55,14,56,14v2A25.96,25.96,0,0,0,34.09,28ZM7.75,28H0V26A15.956,15.956,0,0,1,7.75,28ZM56,20v2a19.935,19.935,0,0,0-14.28,6h-2.7A21.97,21.97,0,0,1,56,20ZM16.97,28H14.28A19.935,19.935,0,0,0,0,22V20a21.935,21.935,0,0,1,16.97,8Zm15.01-.4a28.09,28.09,0,0,1,2.8-3.86,8,8,0,0,0-13.55,0,28.7,28.7,0,0,1,2.79,3.86,4,4,0,0,1,7.96,0ZM46.27,15.74a27.333,27.333,0,0,1,4-1.15,25.99,25.99,0,0,0-44.55,0,26.765,26.765,0,0,1,4.01,1.15,21.98,21.98,0,0,1,36.54,0Zm-5.43,2.71a28.093,28.093,0,0,1,3.54-1.93,19.98,19.98,0,0,0-32.76,0,27.526,27.526,0,0,1,3.54,1.93,15.98,15.98,0,0,1,25.68,0Zm-4.67,3.78A27.07,27.07,0,0,1,39.2,19.6a13.98,13.98,0,0,0-22.4,0,27.07,27.07,0,0,1,3.03,2.63,9.99,9.99,0,0,1,16.34,0Z" transform="translate(56 28)"/>
      <path id="endless-clouds-48" data-name="endless-clouds" class="cls-1" d="M56,26v2H48.25A15.985,15.985,0,0,1,56,26ZM30,28a2,2,0,0,0-4,0H21.91A25.98,25.98,0,0,0,0,16V14c.67,0,1.34.02,2,.07V14a2,2,0,0,0-2-2V10a4,4,0,0,1,3.98,3.6,28.091,28.091,0,0,1,2.8-3.86A8,8,0,0,0,0,6V4A9.99,9.99,0,0,1,8.17,8.23,27.07,27.07,0,0,1,11.2,5.6,13.98,13.98,0,0,0,0,0H7.75a16.141,16.141,0,0,1,5.1,4.45,27.968,27.968,0,0,1,3.53-1.93A20.1,20.1,0,0,0,14.28,0h2.7q.675.84,1.29,1.74a27.333,27.333,0,0,1,4-1.15c-.11-.2-.23-.4-.36-.59H26V.07a28.4,28.4,0,0,1,4,0V0h4.09l-.37.59a26.764,26.764,0,0,1,4.01,1.15c.4-.6.84-1.18,1.3-1.74h2.69a20.1,20.1,0,0,0-2.1,2.52,27.526,27.526,0,0,1,3.54,1.93A16.08,16.08,0,0,1,48.25,0H56A13.972,13.972,0,0,0,44.8,5.6a27.07,27.07,0,0,1,3.03,2.63A9.99,9.99,0,0,1,56,4V6a8,8,0,0,0-6.769,3.739A28.851,28.851,0,0,1,52.02,13.6,4,4,0,0,1,56,10v2a2,2,0,0,0-2,2.07Q55,14,56,14v2A25.96,25.96,0,0,0,34.09,28ZM7.75,28H0V26A15.956,15.956,0,0,1,7.75,28ZM56,20v2a19.935,19.935,0,0,0-14.28,6h-2.7A21.97,21.97,0,0,1,56,20ZM16.97,28H14.28A19.935,19.935,0,0,0,0,22V20a21.935,21.935,0,0,1,16.97,8Zm15.01-.4a28.09,28.09,0,0,1,2.8-3.86,8,8,0,0,0-13.55,0,28.7,28.7,0,0,1,2.79,3.86,4,4,0,0,1,7.96,0ZM46.27,15.74a27.333,27.333,0,0,1,4-1.15,25.99,25.99,0,0,0-44.55,0,26.765,26.765,0,0,1,4.01,1.15,21.98,21.98,0,0,1,36.54,0Zm-5.43,2.71a28.093,28.093,0,0,1,3.54-1.93,19.98,19.98,0,0,0-32.76,0,27.526,27.526,0,0,1,3.54,1.93,15.98,15.98,0,0,1,25.68,0Zm-4.67,3.78A27.07,27.07,0,0,1,39.2,19.6a13.98,13.98,0,0,0-22.4,0,27.07,27.07,0,0,1,3.03,2.63,9.99,9.99,0,0,1,16.34,0Z" transform="translate(112 28)"/>
    </g>
    <g id="Component_48_10" data-name="Component 48 – 10" transform="translate(1344)">
      <path id="endless-clouds-49" data-name="endless-clouds" class="cls-1" d="M56,26v2H48.25A15.985,15.985,0,0,1,56,26ZM30,28a2,2,0,0,0-4,0H21.91A25.98,25.98,0,0,0,0,16V14c.67,0,1.34.02,2,.07V14a2,2,0,0,0-2-2V10a4,4,0,0,1,3.98,3.6,28.091,28.091,0,0,1,2.8-3.86A8,8,0,0,0,0,6V4A9.99,9.99,0,0,1,8.17,8.23,27.07,27.07,0,0,1,11.2,5.6,13.98,13.98,0,0,0,0,0H7.75a16.141,16.141,0,0,1,5.1,4.45,27.968,27.968,0,0,1,3.53-1.93A20.1,20.1,0,0,0,14.28,0h2.7q.675.84,1.29,1.74a27.333,27.333,0,0,1,4-1.15c-.11-.2-.23-.4-.36-.59H26V.07a28.4,28.4,0,0,1,4,0V0h4.09l-.37.59a26.764,26.764,0,0,1,4.01,1.15c.4-.6.84-1.18,1.3-1.74h2.69a20.1,20.1,0,0,0-2.1,2.52,27.526,27.526,0,0,1,3.54,1.93A16.08,16.08,0,0,1,48.25,0H56A13.972,13.972,0,0,0,44.8,5.6a27.07,27.07,0,0,1,3.03,2.63A9.99,9.99,0,0,1,56,4V6a8,8,0,0,0-6.769,3.739A28.851,28.851,0,0,1,52.02,13.6,4,4,0,0,1,56,10v2a2,2,0,0,0-2,2.07Q55,14,56,14v2A25.96,25.96,0,0,0,34.09,28ZM7.75,28H0V26A15.956,15.956,0,0,1,7.75,28ZM56,20v2a19.935,19.935,0,0,0-14.28,6h-2.7A21.97,21.97,0,0,1,56,20ZM16.97,28H14.28A19.935,19.935,0,0,0,0,22V20a21.935,21.935,0,0,1,16.97,8Zm15.01-.4a28.09,28.09,0,0,1,2.8-3.86,8,8,0,0,0-13.55,0,28.7,28.7,0,0,1,2.79,3.86,4,4,0,0,1,7.96,0ZM46.27,15.74a27.333,27.333,0,0,1,4-1.15,25.99,25.99,0,0,0-44.55,0,26.765,26.765,0,0,1,4.01,1.15,21.98,21.98,0,0,1,36.54,0Zm-5.43,2.71a28.093,28.093,0,0,1,3.54-1.93,19.98,19.98,0,0,0-32.76,0,27.526,27.526,0,0,1,3.54,1.93,15.98,15.98,0,0,1,25.68,0Zm-4.67,3.78A27.07,27.07,0,0,1,39.2,19.6a13.98,13.98,0,0,0-22.4,0,27.07,27.07,0,0,1,3.03,2.63,9.99,9.99,0,0,1,16.34,0Z" transform="translate(0 0)"/>
      <path id="endless-clouds-50" data-name="endless-clouds" class="cls-1" d="M56,26v2H48.25A15.985,15.985,0,0,1,56,26ZM30,28a2,2,0,0,0-4,0H21.91A25.98,25.98,0,0,0,0,16V14c.67,0,1.34.02,2,.07V14a2,2,0,0,0-2-2V10a4,4,0,0,1,3.98,3.6,28.091,28.091,0,0,1,2.8-3.86A8,8,0,0,0,0,6V4A9.99,9.99,0,0,1,8.17,8.23,27.07,27.07,0,0,1,11.2,5.6,13.98,13.98,0,0,0,0,0H7.75a16.141,16.141,0,0,1,5.1,4.45,27.968,27.968,0,0,1,3.53-1.93A20.1,20.1,0,0,0,14.28,0h2.7q.675.84,1.29,1.74a27.333,27.333,0,0,1,4-1.15c-.11-.2-.23-.4-.36-.59H26V.07a28.4,28.4,0,0,1,4,0V0h4.09l-.37.59a26.764,26.764,0,0,1,4.01,1.15c.4-.6.84-1.18,1.3-1.74h2.69a20.1,20.1,0,0,0-2.1,2.52,27.526,27.526,0,0,1,3.54,1.93A16.08,16.08,0,0,1,48.25,0H56A13.972,13.972,0,0,0,44.8,5.6a27.07,27.07,0,0,1,3.03,2.63A9.99,9.99,0,0,1,56,4V6a8,8,0,0,0-6.769,3.739A28.851,28.851,0,0,1,52.02,13.6,4,4,0,0,1,56,10v2a2,2,0,0,0-2,2.07Q55,14,56,14v2A25.96,25.96,0,0,0,34.09,28ZM7.75,28H0V26A15.956,15.956,0,0,1,7.75,28ZM56,20v2a19.935,19.935,0,0,0-14.28,6h-2.7A21.97,21.97,0,0,1,56,20ZM16.97,28H14.28A19.935,19.935,0,0,0,0,22V20a21.935,21.935,0,0,1,16.97,8Zm15.01-.4a28.09,28.09,0,0,1,2.8-3.86,8,8,0,0,0-13.55,0,28.7,28.7,0,0,1,2.79,3.86,4,4,0,0,1,7.96,0ZM46.27,15.74a27.333,27.333,0,0,1,4-1.15,25.99,25.99,0,0,0-44.55,0,26.765,26.765,0,0,1,4.01,1.15,21.98,21.98,0,0,1,36.54,0Zm-5.43,2.71a28.093,28.093,0,0,1,3.54-1.93,19.98,19.98,0,0,0-32.76,0,27.526,27.526,0,0,1,3.54,1.93,15.98,15.98,0,0,1,25.68,0Zm-4.67,3.78A27.07,27.07,0,0,1,39.2,19.6a13.98,13.98,0,0,0-22.4,0,27.07,27.07,0,0,1,3.03,2.63,9.99,9.99,0,0,1,16.34,0Z" transform="translate(56 0)"/>
      <path id="endless-clouds-51" data-name="endless-clouds" class="cls-1" d="M56,26v2H48.25A15.985,15.985,0,0,1,56,26ZM30,28a2,2,0,0,0-4,0H21.91A25.98,25.98,0,0,0,0,16V14c.67,0,1.34.02,2,.07V14a2,2,0,0,0-2-2V10a4,4,0,0,1,3.98,3.6,28.091,28.091,0,0,1,2.8-3.86A8,8,0,0,0,0,6V4A9.99,9.99,0,0,1,8.17,8.23,27.07,27.07,0,0,1,11.2,5.6,13.98,13.98,0,0,0,0,0H7.75a16.141,16.141,0,0,1,5.1,4.45,27.968,27.968,0,0,1,3.53-1.93A20.1,20.1,0,0,0,14.28,0h2.7q.675.84,1.29,1.74a27.333,27.333,0,0,1,4-1.15c-.11-.2-.23-.4-.36-.59H26V.07a28.4,28.4,0,0,1,4,0V0h4.09l-.37.59a26.764,26.764,0,0,1,4.01,1.15c.4-.6.84-1.18,1.3-1.74h2.69a20.1,20.1,0,0,0-2.1,2.52,27.526,27.526,0,0,1,3.54,1.93A16.08,16.08,0,0,1,48.25,0H56A13.972,13.972,0,0,0,44.8,5.6a27.07,27.07,0,0,1,3.03,2.63A9.99,9.99,0,0,1,56,4V6a8,8,0,0,0-6.769,3.739A28.851,28.851,0,0,1,52.02,13.6,4,4,0,0,1,56,10v2a2,2,0,0,0-2,2.07Q55,14,56,14v2A25.96,25.96,0,0,0,34.09,28ZM7.75,28H0V26A15.956,15.956,0,0,1,7.75,28ZM56,20v2a19.935,19.935,0,0,0-14.28,6h-2.7A21.97,21.97,0,0,1,56,20ZM16.97,28H14.28A19.935,19.935,0,0,0,0,22V20a21.935,21.935,0,0,1,16.97,8Zm15.01-.4a28.09,28.09,0,0,1,2.8-3.86,8,8,0,0,0-13.55,0,28.7,28.7,0,0,1,2.79,3.86,4,4,0,0,1,7.96,0ZM46.27,15.74a27.333,27.333,0,0,1,4-1.15,25.99,25.99,0,0,0-44.55,0,26.765,26.765,0,0,1,4.01,1.15,21.98,21.98,0,0,1,36.54,0Zm-5.43,2.71a28.093,28.093,0,0,1,3.54-1.93,19.98,19.98,0,0,0-32.76,0,27.526,27.526,0,0,1,3.54,1.93,15.98,15.98,0,0,1,25.68,0Zm-4.67,3.78A27.07,27.07,0,0,1,39.2,19.6a13.98,13.98,0,0,0-22.4,0,27.07,27.07,0,0,1,3.03,2.63,9.99,9.99,0,0,1,16.34,0Z" transform="translate(112 0)"/>
      <path id="endless-clouds-52" data-name="endless-clouds" class="cls-1" d="M56,26v2H48.25A15.985,15.985,0,0,1,56,26ZM30,28a2,2,0,0,0-4,0H21.91A25.98,25.98,0,0,0,0,16V14c.67,0,1.34.02,2,.07V14a2,2,0,0,0-2-2V10a4,4,0,0,1,3.98,3.6,28.091,28.091,0,0,1,2.8-3.86A8,8,0,0,0,0,6V4A9.99,9.99,0,0,1,8.17,8.23,27.07,27.07,0,0,1,11.2,5.6,13.98,13.98,0,0,0,0,0H7.75a16.141,16.141,0,0,1,5.1,4.45,27.968,27.968,0,0,1,3.53-1.93A20.1,20.1,0,0,0,14.28,0h2.7q.675.84,1.29,1.74a27.333,27.333,0,0,1,4-1.15c-.11-.2-.23-.4-.36-.59H26V.07a28.4,28.4,0,0,1,4,0V0h4.09l-.37.59a26.764,26.764,0,0,1,4.01,1.15c.4-.6.84-1.18,1.3-1.74h2.69a20.1,20.1,0,0,0-2.1,2.52,27.526,27.526,0,0,1,3.54,1.93A16.08,16.08,0,0,1,48.25,0H56A13.972,13.972,0,0,0,44.8,5.6a27.07,27.07,0,0,1,3.03,2.63A9.99,9.99,0,0,1,56,4V6a8,8,0,0,0-6.769,3.739A28.851,28.851,0,0,1,52.02,13.6,4,4,0,0,1,56,10v2a2,2,0,0,0-2,2.07Q55,14,56,14v2A25.96,25.96,0,0,0,34.09,28ZM7.75,28H0V26A15.956,15.956,0,0,1,7.75,28ZM56,20v2a19.935,19.935,0,0,0-14.28,6h-2.7A21.97,21.97,0,0,1,56,20ZM16.97,28H14.28A19.935,19.935,0,0,0,0,22V20a21.935,21.935,0,0,1,16.97,8Zm15.01-.4a28.09,28.09,0,0,1,2.8-3.86,8,8,0,0,0-13.55,0,28.7,28.7,0,0,1,2.79,3.86,4,4,0,0,1,7.96,0ZM46.27,15.74a27.333,27.333,0,0,1,4-1.15,25.99,25.99,0,0,0-44.55,0,26.765,26.765,0,0,1,4.01,1.15,21.98,21.98,0,0,1,36.54,0Zm-5.43,2.71a28.093,28.093,0,0,1,3.54-1.93,19.98,19.98,0,0,0-32.76,0,27.526,27.526,0,0,1,3.54,1.93,15.98,15.98,0,0,1,25.68,0Zm-4.67,3.78A27.07,27.07,0,0,1,39.2,19.6a13.98,13.98,0,0,0-22.4,0,27.07,27.07,0,0,1,3.03,2.63,9.99,9.99,0,0,1,16.34,0Z" transform="translate(0 28)"/>
      <path id="endless-clouds-53" data-name="endless-clouds" class="cls-1" d="M56,26v2H48.25A15.985,15.985,0,0,1,56,26ZM30,28a2,2,0,0,0-4,0H21.91A25.98,25.98,0,0,0,0,16V14c.67,0,1.34.02,2,.07V14a2,2,0,0,0-2-2V10a4,4,0,0,1,3.98,3.6,28.091,28.091,0,0,1,2.8-3.86A8,8,0,0,0,0,6V4A9.99,9.99,0,0,1,8.17,8.23,27.07,27.07,0,0,1,11.2,5.6,13.98,13.98,0,0,0,0,0H7.75a16.141,16.141,0,0,1,5.1,4.45,27.968,27.968,0,0,1,3.53-1.93A20.1,20.1,0,0,0,14.28,0h2.7q.675.84,1.29,1.74a27.333,27.333,0,0,1,4-1.15c-.11-.2-.23-.4-.36-.59H26V.07a28.4,28.4,0,0,1,4,0V0h4.09l-.37.59a26.764,26.764,0,0,1,4.01,1.15c.4-.6.84-1.18,1.3-1.74h2.69a20.1,20.1,0,0,0-2.1,2.52,27.526,27.526,0,0,1,3.54,1.93A16.08,16.08,0,0,1,48.25,0H56A13.972,13.972,0,0,0,44.8,5.6a27.07,27.07,0,0,1,3.03,2.63A9.99,9.99,0,0,1,56,4V6a8,8,0,0,0-6.769,3.739A28.851,28.851,0,0,1,52.02,13.6,4,4,0,0,1,56,10v2a2,2,0,0,0-2,2.07Q55,14,56,14v2A25.96,25.96,0,0,0,34.09,28ZM7.75,28H0V26A15.956,15.956,0,0,1,7.75,28ZM56,20v2a19.935,19.935,0,0,0-14.28,6h-2.7A21.97,21.97,0,0,1,56,20ZM16.97,28H14.28A19.935,19.935,0,0,0,0,22V20a21.935,21.935,0,0,1,16.97,8Zm15.01-.4a28.09,28.09,0,0,1,2.8-3.86,8,8,0,0,0-13.55,0,28.7,28.7,0,0,1,2.79,3.86,4,4,0,0,1,7.96,0ZM46.27,15.74a27.333,27.333,0,0,1,4-1.15,25.99,25.99,0,0,0-44.55,0,26.765,26.765,0,0,1,4.01,1.15,21.98,21.98,0,0,1,36.54,0Zm-5.43,2.71a28.093,28.093,0,0,1,3.54-1.93,19.98,19.98,0,0,0-32.76,0,27.526,27.526,0,0,1,3.54,1.93,15.98,15.98,0,0,1,25.68,0Zm-4.67,3.78A27.07,27.07,0,0,1,39.2,19.6a13.98,13.98,0,0,0-22.4,0,27.07,27.07,0,0,1,3.03,2.63,9.99,9.99,0,0,1,16.34,0Z" transform="translate(56 28)"/>
      <path id="endless-clouds-54" data-name="endless-clouds" class="cls-1" d="M56,26v2H48.25A15.985,15.985,0,0,1,56,26ZM30,28a2,2,0,0,0-4,0H21.91A25.98,25.98,0,0,0,0,16V14c.67,0,1.34.02,2,.07V14a2,2,0,0,0-2-2V10a4,4,0,0,1,3.98,3.6,28.091,28.091,0,0,1,2.8-3.86A8,8,0,0,0,0,6V4A9.99,9.99,0,0,1,8.17,8.23,27.07,27.07,0,0,1,11.2,5.6,13.98,13.98,0,0,0,0,0H7.75a16.141,16.141,0,0,1,5.1,4.45,27.968,27.968,0,0,1,3.53-1.93A20.1,20.1,0,0,0,14.28,0h2.7q.675.84,1.29,1.74a27.333,27.333,0,0,1,4-1.15c-.11-.2-.23-.4-.36-.59H26V.07a28.4,28.4,0,0,1,4,0V0h4.09l-.37.59a26.764,26.764,0,0,1,4.01,1.15c.4-.6.84-1.18,1.3-1.74h2.69a20.1,20.1,0,0,0-2.1,2.52,27.526,27.526,0,0,1,3.54,1.93A16.08,16.08,0,0,1,48.25,0H56A13.972,13.972,0,0,0,44.8,5.6a27.07,27.07,0,0,1,3.03,2.63A9.99,9.99,0,0,1,56,4V6a8,8,0,0,0-6.769,3.739A28.851,28.851,0,0,1,52.02,13.6,4,4,0,0,1,56,10v2a2,2,0,0,0-2,2.07Q55,14,56,14v2A25.96,25.96,0,0,0,34.09,28ZM7.75,28H0V26A15.956,15.956,0,0,1,7.75,28ZM56,20v2a19.935,19.935,0,0,0-14.28,6h-2.7A21.97,21.97,0,0,1,56,20ZM16.97,28H14.28A19.935,19.935,0,0,0,0,22V20a21.935,21.935,0,0,1,16.97,8Zm15.01-.4a28.09,28.09,0,0,1,2.8-3.86,8,8,0,0,0-13.55,0,28.7,28.7,0,0,1,2.79,3.86,4,4,0,0,1,7.96,0ZM46.27,15.74a27.333,27.333,0,0,1,4-1.15,25.99,25.99,0,0,0-44.55,0,26.765,26.765,0,0,1,4.01,1.15,21.98,21.98,0,0,1,36.54,0Zm-5.43,2.71a28.093,28.093,0,0,1,3.54-1.93,19.98,19.98,0,0,0-32.76,0,27.526,27.526,0,0,1,3.54,1.93,15.98,15.98,0,0,1,25.68,0Zm-4.67,3.78A27.07,27.07,0,0,1,39.2,19.6a13.98,13.98,0,0,0-22.4,0,27.07,27.07,0,0,1,3.03,2.63,9.99,9.99,0,0,1,16.34,0Z" transform="translate(112 28)"/>
    </g>
  </g>
</svg>
