<svg xmlns="http://www.w3.org/2000/svg" width="22.154" height="23.374" viewBox="0 0 22.154 23.374"><g transform="translate(1.007 0.405)"><path d="M9369.77,5781.18a4.471,4.471,0,0,1,2.527,1.883,8.188,8.188,0,0,1,1.843,4.485c.178,2.7-1.673,6.44-3.476,8.692-1.588,1.984-4.816,4.643-7.74,5.315a9.871,9.871,0,0,1-4.056.332,5.071,5.071,0,0,1-2.581-1.273,6.733,6.733,0,0,1-2-2.935,4.4,4.4,0,0,1-.168-.907,4.115,4.115,0,0,1-.1-1.362s0,.066,0,0c-.162-2.551,1.316-6.356,3.159-8.748a18.292,18.292,0,0,1,7.372-5.482c3.57-1.177,5.215,0,5.215,0" transform="translate(-9354.01 -5780)" fill="none" stroke="#f71939" stroke-linecap="round" stroke-width="2"/><path d="M9356.215,5803.468a19.752,19.752,0,0,0,4.791-2.547,12.886,12.886,0,0,0,2.827-4.537" transform="translate(-9354.516 -5783.186)" fill="none" stroke="#f71939" stroke-width="2"/><g transform="translate(4.99)" fill="#fff" stroke="#f71939" stroke-width="2"><ellipse cx="8" cy="7.5" rx="8" ry="7.5" stroke="none"/><ellipse cx="8" cy="7.5" rx="7" ry="6.5" fill="none"/></g></g></svg>