<svg id="Component_76_1" data-name="Component 76 – 1" xmlns="http://www.w3.org/2000/svg" width="318" height="67" viewBox="0 0 318 67">
  <defs>
    <style>
      .cls-1 {
        fill: #fca311;
        font-size: 58px;
      }

      .cls-1, .cls-2 {
        font-family: GillSansMT, Gill Sans MT;
        letter-spacing: 0.085em;
      }

      .cls-2 {
        fill: #fcfcfc;
        font-size: 30px;
      }

      .cls-3 {
        fill: #ffdb57;
      }

      .cls-4 {
        fill: #f6c134;
      }

      .cls-5 {
        fill: #f2433b;
      }

      .cls-6 {
        fill: #d83636;
      }

      .cls-7 {
        fill: #ff9f34;
      }

      .cls-8 {
        fill: #fb8f2d;
      }
    </style>
  </defs>
  <g id="Component_21_11" data-name="Component 21 – 11" transform="translate(19 98)">
    <text id="_" data-name="{             }" class="cls-1" transform="translate(-19 -44)"><tspan x="0" y="0" xml:space="preserve">{             }</tspan></text>
    <text id="SLICE_CODE" data-name="SLICE     CODE" class="cls-2" transform="translate(14 -77)"><tspan x="0" y="28" xml:space="preserve">SLICE      CODE</tspan></text>
    <g id="_001-pizza" data-name="001-pizza" transform="matrix(-0.995, -0.105, 0.105, -0.995, 143.514, -40.731)">
      <path id="Path_538" data-name="Path 538" class="cls-3" d="M24.89,14.366a1.263,1.263,0,0,1-.167-.335A13.881,13.881,0,0,0,22.8,10.626a26.306,26.306,0,0,0-8.225-7.172A24.143,24.143,0,0,0,4.517.059,11.4,11.4,0,0,0,.856.239,1.045,1.045,0,0,1,.512.276H.5A.473.473,0,0,0,.141.411.494.494,0,0,0,0,.782L1.083,30.094a.6.6,0,0,0,.3.493.555.555,0,0,0,.247.075.48.48,0,0,0,.3-.08L24.79,15.106a.525.525,0,0,0,.1-.74Zm0,0" transform="translate(1.697 3.337)"/>
      <path id="Path_539" data-name="Path 539" class="cls-4" d="M.406,18.272a.551.551,0,0,0,.247.075.48.48,0,0,0,.3-.08L23.812,2.791a.525.525,0,0,0,.1-.74,1.279,1.279,0,0,1-.167-.335,10.322,10.322,0,0,0-.8-1.684L.021,15.491l.084,2.289a.6.6,0,0,0,.3.493Zm0,0" transform="translate(2.674 15.652)"/>
      <path id="Path_540" data-name="Path 540" class="cls-5" d="M3.164.009A2.978,2.978,0,0,0,.007,3.2,3.744,3.744,0,0,0,3.44,6.743,2.978,2.978,0,0,0,6.6,3.553,3.744,3.744,0,0,0,3.164.009Zm0,0" transform="translate(7.756 11.72)"/>
      <path id="Path_541" data-name="Path 541" class="cls-6" d="M3.34,2.35A3.722,3.722,0,0,1,.166,0,3.267,3.267,0,0,0,0,1.172,3.744,3.744,0,0,0,3.437,4.716a2.978,2.978,0,0,0,3.157-3.19A3.6,3.6,0,0,0,6.335.332,2.939,2.939,0,0,1,3.34,2.35Zm0,0" transform="translate(7.759 13.747)"/>
      <path id="Path_542" data-name="Path 542" class="cls-5" d="M2.833,1.137A3.594,3.594,0,0,0,.517,0,.482.482,0,0,0,.144.133.494.494,0,0,0,0,.507L.21,6.164a.6.6,0,0,0,.172.393.573.573,0,0,0,.375.175H.766a2.987,2.987,0,0,0,3.1-3.192,3.723,3.723,0,0,0-1.034-2.4Zm0,0" transform="translate(2.146 15.759)"/>
      <path id="Path_543" data-name="Path 543" class="cls-6" d="M.545,2.013H.536A.574.574,0,0,1,.16,1.838.607.607,0,0,1,0,1.549l.085,2.3a.6.6,0,0,0,.172.393.573.573,0,0,0,.376.175H.643a2.987,2.987,0,0,0,3.1-3.192A3.613,3.613,0,0,0,3.477,0,2.946,2.946,0,0,1,.545,2.013Zm0,0" transform="translate(2.268 18.078)"/>
      <path id="Path_544" data-name="Path 544" class="cls-5" d="M3.164.009A2.978,2.978,0,0,0,.007,3.2,3.775,3.775,0,0,0,2.169,6.42a.548.548,0,0,0,.2.052.478.478,0,0,0,.3-.08L6.382,3.877a.489.489,0,0,0,.206-.448A3.725,3.725,0,0,0,3.164.009Zm0,0" transform="translate(15.645 17.585)"/>
      <path id="Path_545" data-name="Path 545" class="cls-5" d="M6.435,3.393A26.419,26.419,0,0,0,2.772.117a.545.545,0,0,0-.436-.1A2.983,2.983,0,0,0,.007,3.14,3.744,3.744,0,0,0,3.44,6.685,2.947,2.947,0,0,0,6.594,3.822a.591.591,0,0,0-.159-.428Zm0,0" transform="translate(16.455 8.611)"/>
      <path id="Path_546" data-name="Path 546" class="cls-6" d="M5.983,1A2.931,2.931,0,0,1,3.336,2.3,3.719,3.719,0,0,1,.184,0,3.273,3.273,0,0,0,0,1.225,3.744,3.744,0,0,0,3.437,4.77,2.946,2.946,0,0,0,6.591,1.906a.592.592,0,0,0-.159-.428q-.22-.238-.45-.474Zm0,0" transform="translate(16.458 10.526)"/>
      <path id="Path_547" data-name="Path 547" class="cls-5" d="M6.444,1.45a.605.605,0,0,0-.383-.4A20.765,20.765,0,0,0,1.2.025C1.085.016.977.009.87,0h0A.468.468,0,0,0,.431.231,3.186,3.186,0,0,0,.005,1.984,3.744,3.744,0,0,0,3.438,5.528a2.978,2.978,0,0,0,3.157-3.19,3.591,3.591,0,0,0-.151-.889Zm0,0" transform="translate(5.017 3.371)"/>
      <path id="Path_548" data-name="Path 548" class="cls-6" d="M6.28.424A2.937,2.937,0,0,1,3.336,2.3,3.719,3.719,0,0,1,.183,0,3.274,3.274,0,0,0,0,1.221,3.744,3.744,0,0,0,3.437,4.765a2.978,2.978,0,0,0,3.157-3.19A3.58,3.58,0,0,0,6.442.687.6.6,0,0,0,6.28.424Zm0,0" transform="translate(5.018 4.134)"/>
      <path id="Path_549" data-name="Path 549" class="cls-5" d="M6.294,2.254A3.7,3.7,0,0,0,3.164.009,2.978,2.978,0,0,0,.007,3.2,3.768,3.768,0,0,0,1.165,5.726a.571.571,0,0,0,.363.162.478.478,0,0,0,.3-.08L6.135,2.89a.511.511,0,0,0,.159-.636Zm0,0" transform="translate(7.431 24.3)"/>
      <path id="Path_550" data-name="Path 550" class="cls-7" d="M29.514,16.6C29.419,16.3,27.087,9.361,17.68,3.922l-.011-.006C8.259-1.52,1.678.273,1.4.351A2.028,2.028,0,0,0,.141,3.062,2.486,2.486,0,0,0,1.271,4.4a2.153,2.153,0,0,0,1.646.217,10.908,10.908,0,0,1,3.314-.148,23.037,23.037,0,0,1,9.6,3.248,25.085,25.085,0,0,1,7.851,6.835,13.258,13.258,0,0,1,1.746,3.067,2.487,2.487,0,0,0,1.09,1.37,2.267,2.267,0,0,0,1.042.326,2.047,2.047,0,0,0,.608-.058,1.887,1.887,0,0,0,1.242-.99,2.181,2.181,0,0,0,.107-1.668Zm0,0" transform="translate(0 0)"/>
      <path id="Path_551" data-name="Path 551" class="cls-8" d="M28.3,15.734a15.8,15.8,0,0,0-2.08-3.654,29.9,29.9,0,0,0-9.356-8.145A27.457,27.457,0,0,0,5.426.065a12.991,12.991,0,0,0-3.95.176A2.485,2.485,0,0,1,.009.2a2.3,2.3,0,0,0,.13.977A2.486,2.486,0,0,0,1.268,2.515a2.153,2.153,0,0,0,1.646.217,10.908,10.908,0,0,1,3.314-.148,23.037,23.037,0,0,1,9.6,3.248,25.085,25.085,0,0,1,7.851,6.835,13.258,13.258,0,0,1,1.746,3.066,2.487,2.487,0,0,0,1.09,1.37,2.267,2.267,0,0,0,1.042.326,2.047,2.047,0,0,0,.608-.058,1.893,1.893,0,0,0,.851-.464,2.961,2.961,0,0,1-.714-1.173Zm0,0" transform="translate(0.003 1.884)"/>
      <path id="Path_552" data-name="Path 552" class="cls-6" d="M1.824,5.325a.548.548,0,0,0,.2.052.478.478,0,0,0,.3-.08L6.038,2.783a.489.489,0,0,0,.206-.448A3.747,3.747,0,0,0,5.176.007L0,3.495a3.8,3.8,0,0,0,1.819,1.83Zm0,0" transform="translate(15.99 18.679)"/>
      <path id="Path_553" data-name="Path 553" class="cls-6" d="M1.119,5.258a.571.571,0,0,0,.363.162.478.478,0,0,0,.3-.08L6.089,2.422a.511.511,0,0,0,.159-.636A3.817,3.817,0,0,0,4.663.007L0,3.148a3.8,3.8,0,0,0,1.114,2.11Zm0,0" transform="translate(7.477 24.767)"/>
    </g>
  </g>
</svg>
