<svg id="waves" xmlns="http://www.w3.org/2000/svg" width="669.95" height="52" viewBox="0 0 669.95 52">
  <defs>
    <style>
      .cls-1 {
        fill: rgba(247,25,57,0.43);
        fill-rule: evenodd;
      }
    </style>
  </defs>
  <g id="Group_21" data-name="Group 21" transform="translate(-7581.001 -10853)">
    <g id="Group" transform="translate(7668.951 10905) rotate(180)">
      <path id="Path_3" data-name="Path 3" class="cls-1" d="M10,10A4,4,0,0,0,6,6,6,6,0,0,1,0,0H2A4,4,0,0,0,6,4a6,6,0,0,1,6,6,4,4,0,0,0,4,4,6,6,0,0,1,6,6,4,4,0,0,0,4,4v2a6,6,0,0,1-6-6,4,4,0,0,0-4-4A6,6,0,0,1,10,10ZM35.464,8.05l8.486,8.486L42.536,17.95,34.05,9.464,35.464,8.05Z"/>
    </g>
    <g id="Group-2" data-name="Group" transform="translate(7624.951 10905) rotate(180)">
      <path id="Path_3-2" data-name="Path 3" class="cls-1" d="M10,10A4,4,0,0,0,6,6,6,6,0,0,1,0,0H2A4,4,0,0,0,6,4a6,6,0,0,1,6,6,4,4,0,0,0,4,4,6,6,0,0,1,6,6,4,4,0,0,0,4,4v2a6,6,0,0,1-6-6,4,4,0,0,0-4-4A6,6,0,0,1,10,10ZM35.464,8.05l8.486,8.486L42.536,17.95,34.05,9.464,35.464,8.05Z"/>
    </g>
    <g id="Group-3" data-name="Group" transform="translate(7668.951 10879) rotate(180)">
      <path id="Path_3-3" data-name="Path 3" class="cls-1" d="M10,10A4,4,0,0,0,6,6,6,6,0,0,1,0,0H2A4,4,0,0,0,6,4a6,6,0,0,1,6,6,4,4,0,0,0,4,4,6,6,0,0,1,6,6,4,4,0,0,0,4,4v2a6,6,0,0,1-6-6,4,4,0,0,0-4-4A6,6,0,0,1,10,10ZM35.464,8.05l8.486,8.486L42.536,17.95,34.05,9.464,35.464,8.05Z"/>
    </g>
    <g id="Group-4" data-name="Group" transform="translate(7624.951 10879) rotate(180)">
      <path id="Path_3-4" data-name="Path 3" class="cls-1" d="M10,10A4,4,0,0,0,6,6,6,6,0,0,1,0,0H2A4,4,0,0,0,6,4a6,6,0,0,1,6,6,4,4,0,0,0,4,4,6,6,0,0,1,6,6,4,4,0,0,0,4,4v2a6,6,0,0,1-6-6,4,4,0,0,0-4-4A6,6,0,0,1,10,10ZM35.464,8.05l8.486,8.486L42.536,17.95,34.05,9.464,35.464,8.05Z"/>
    </g>
  </g>
  <g id="Group_22" data-name="Group 22" transform="translate(-7484.001 -10853)">
    <g id="Group-5" data-name="Group" transform="translate(7668.951 10905) rotate(180)">
      <path id="Path_3-5" data-name="Path 3" class="cls-1" d="M10,10A4,4,0,0,0,6,6,6,6,0,0,1,0,0H2A4,4,0,0,0,6,4a6,6,0,0,1,6,6,4,4,0,0,0,4,4,6,6,0,0,1,6,6,4,4,0,0,0,4,4v2a6,6,0,0,1-6-6,4,4,0,0,0-4-4A6,6,0,0,1,10,10ZM35.464,8.05l8.486,8.486L42.536,17.95,34.05,9.464,35.464,8.05Z"/>
    </g>
    <g id="Group-6" data-name="Group" transform="translate(7624.951 10905) rotate(180)">
      <path id="Path_3-6" data-name="Path 3" class="cls-1" d="M10,10A4,4,0,0,0,6,6,6,6,0,0,1,0,0H2A4,4,0,0,0,6,4a6,6,0,0,1,6,6,4,4,0,0,0,4,4,6,6,0,0,1,6,6,4,4,0,0,0,4,4v2a6,6,0,0,1-6-6,4,4,0,0,0-4-4A6,6,0,0,1,10,10ZM35.464,8.05l8.486,8.486L42.536,17.95,34.05,9.464,35.464,8.05Z"/>
    </g>
    <g id="Group-7" data-name="Group" transform="translate(7668.951 10879) rotate(180)">
      <path id="Path_3-7" data-name="Path 3" class="cls-1" d="M10,10A4,4,0,0,0,6,6,6,6,0,0,1,0,0H2A4,4,0,0,0,6,4a6,6,0,0,1,6,6,4,4,0,0,0,4,4,6,6,0,0,1,6,6,4,4,0,0,0,4,4v2a6,6,0,0,1-6-6,4,4,0,0,0-4-4A6,6,0,0,1,10,10ZM35.464,8.05l8.486,8.486L42.536,17.95,34.05,9.464,35.464,8.05Z"/>
    </g>
    <g id="Group-8" data-name="Group" transform="translate(7624.951 10879) rotate(180)">
      <path id="Path_3-8" data-name="Path 3" class="cls-1" d="M10,10A4,4,0,0,0,6,6,6,6,0,0,1,0,0H2A4,4,0,0,0,6,4a6,6,0,0,1,6,6,4,4,0,0,0,4,4,6,6,0,0,1,6,6,4,4,0,0,0,4,4v2a6,6,0,0,1-6-6,4,4,0,0,0-4-4A6,6,0,0,1,10,10ZM35.464,8.05l8.486,8.486L42.536,17.95,34.05,9.464,35.464,8.05Z"/>
    </g>
  </g>
  <g id="Group_23" data-name="Group 23" transform="translate(-7387.001 -10853)">
    <g id="Group-9" data-name="Group" transform="translate(7668.951 10905) rotate(180)">
      <path id="Path_3-9" data-name="Path 3" class="cls-1" d="M10,10A4,4,0,0,0,6,6,6,6,0,0,1,0,0H2A4,4,0,0,0,6,4a6,6,0,0,1,6,6,4,4,0,0,0,4,4,6,6,0,0,1,6,6,4,4,0,0,0,4,4v2a6,6,0,0,1-6-6,4,4,0,0,0-4-4A6,6,0,0,1,10,10ZM35.464,8.05l8.486,8.486L42.536,17.95,34.05,9.464,35.464,8.05Z"/>
    </g>
    <g id="Group-10" data-name="Group" transform="translate(7624.951 10905) rotate(180)">
      <path id="Path_3-10" data-name="Path 3" class="cls-1" d="M10,10A4,4,0,0,0,6,6,6,6,0,0,1,0,0H2A4,4,0,0,0,6,4a6,6,0,0,1,6,6,4,4,0,0,0,4,4,6,6,0,0,1,6,6,4,4,0,0,0,4,4v2a6,6,0,0,1-6-6,4,4,0,0,0-4-4A6,6,0,0,1,10,10ZM35.464,8.05l8.486,8.486L42.536,17.95,34.05,9.464,35.464,8.05Z"/>
    </g>
    <g id="Group-11" data-name="Group" transform="translate(7668.951 10879) rotate(180)">
      <path id="Path_3-11" data-name="Path 3" class="cls-1" d="M10,10A4,4,0,0,0,6,6,6,6,0,0,1,0,0H2A4,4,0,0,0,6,4a6,6,0,0,1,6,6,4,4,0,0,0,4,4,6,6,0,0,1,6,6,4,4,0,0,0,4,4v2a6,6,0,0,1-6-6,4,4,0,0,0-4-4A6,6,0,0,1,10,10ZM35.464,8.05l8.486,8.486L42.536,17.95,34.05,9.464,35.464,8.05Z"/>
    </g>
    <g id="Group-12" data-name="Group" transform="translate(7624.951 10879) rotate(180)">
      <path id="Path_3-12" data-name="Path 3" class="cls-1" d="M10,10A4,4,0,0,0,6,6,6,6,0,0,1,0,0H2A4,4,0,0,0,6,4a6,6,0,0,1,6,6,4,4,0,0,0,4,4,6,6,0,0,1,6,6,4,4,0,0,0,4,4v2a6,6,0,0,1-6-6,4,4,0,0,0-4-4A6,6,0,0,1,10,10ZM35.464,8.05l8.486,8.486L42.536,17.95,34.05,9.464,35.464,8.05Z"/>
    </g>
  </g>
  <g id="Group_24" data-name="Group 24" transform="translate(-7290.001 -10853)">
    <g id="Group-13" data-name="Group" transform="translate(7668.951 10905) rotate(180)">
      <path id="Path_3-13" data-name="Path 3" class="cls-1" d="M10,10A4,4,0,0,0,6,6,6,6,0,0,1,0,0H2A4,4,0,0,0,6,4a6,6,0,0,1,6,6,4,4,0,0,0,4,4,6,6,0,0,1,6,6,4,4,0,0,0,4,4v2a6,6,0,0,1-6-6,4,4,0,0,0-4-4A6,6,0,0,1,10,10ZM35.464,8.05l8.486,8.486L42.536,17.95,34.05,9.464,35.464,8.05Z"/>
    </g>
    <g id="Group-14" data-name="Group" transform="translate(7624.951 10905) rotate(180)">
      <path id="Path_3-14" data-name="Path 3" class="cls-1" d="M10,10A4,4,0,0,0,6,6,6,6,0,0,1,0,0H2A4,4,0,0,0,6,4a6,6,0,0,1,6,6,4,4,0,0,0,4,4,6,6,0,0,1,6,6,4,4,0,0,0,4,4v2a6,6,0,0,1-6-6,4,4,0,0,0-4-4A6,6,0,0,1,10,10ZM35.464,8.05l8.486,8.486L42.536,17.95,34.05,9.464,35.464,8.05Z"/>
    </g>
    <g id="Group-15" data-name="Group" transform="translate(7668.951 10879) rotate(180)">
      <path id="Path_3-15" data-name="Path 3" class="cls-1" d="M10,10A4,4,0,0,0,6,6,6,6,0,0,1,0,0H2A4,4,0,0,0,6,4a6,6,0,0,1,6,6,4,4,0,0,0,4,4,6,6,0,0,1,6,6,4,4,0,0,0,4,4v2a6,6,0,0,1-6-6,4,4,0,0,0-4-4A6,6,0,0,1,10,10ZM35.464,8.05l8.486,8.486L42.536,17.95,34.05,9.464,35.464,8.05Z"/>
    </g>
    <g id="Group-16" data-name="Group" transform="translate(7624.951 10879) rotate(180)">
      <path id="Path_3-16" data-name="Path 3" class="cls-1" d="M10,10A4,4,0,0,0,6,6,6,6,0,0,1,0,0H2A4,4,0,0,0,6,4a6,6,0,0,1,6,6,4,4,0,0,0,4,4,6,6,0,0,1,6,6,4,4,0,0,0,4,4v2a6,6,0,0,1-6-6,4,4,0,0,0-4-4A6,6,0,0,1,10,10ZM35.464,8.05l8.486,8.486L42.536,17.95,34.05,9.464,35.464,8.05Z"/>
    </g>
  </g>
  <g id="Group_25" data-name="Group 25" transform="translate(-7193.001 -10853)">
    <g id="Group-17" data-name="Group" transform="translate(7668.951 10905) rotate(180)">
      <path id="Path_3-17" data-name="Path 3" class="cls-1" d="M10,10A4,4,0,0,0,6,6,6,6,0,0,1,0,0H2A4,4,0,0,0,6,4a6,6,0,0,1,6,6,4,4,0,0,0,4,4,6,6,0,0,1,6,6,4,4,0,0,0,4,4v2a6,6,0,0,1-6-6,4,4,0,0,0-4-4A6,6,0,0,1,10,10ZM35.464,8.05l8.486,8.486L42.536,17.95,34.05,9.464,35.464,8.05Z"/>
    </g>
    <g id="Group-18" data-name="Group" transform="translate(7624.951 10905) rotate(180)">
      <path id="Path_3-18" data-name="Path 3" class="cls-1" d="M10,10A4,4,0,0,0,6,6,6,6,0,0,1,0,0H2A4,4,0,0,0,6,4a6,6,0,0,1,6,6,4,4,0,0,0,4,4,6,6,0,0,1,6,6,4,4,0,0,0,4,4v2a6,6,0,0,1-6-6,4,4,0,0,0-4-4A6,6,0,0,1,10,10ZM35.464,8.05l8.486,8.486L42.536,17.95,34.05,9.464,35.464,8.05Z"/>
    </g>
    <g id="Group-19" data-name="Group" transform="translate(7668.951 10879) rotate(180)">
      <path id="Path_3-19" data-name="Path 3" class="cls-1" d="M10,10A4,4,0,0,0,6,6,6,6,0,0,1,0,0H2A4,4,0,0,0,6,4a6,6,0,0,1,6,6,4,4,0,0,0,4,4,6,6,0,0,1,6,6,4,4,0,0,0,4,4v2a6,6,0,0,1-6-6,4,4,0,0,0-4-4A6,6,0,0,1,10,10ZM35.464,8.05l8.486,8.486L42.536,17.95,34.05,9.464,35.464,8.05Z"/>
    </g>
    <g id="Group-20" data-name="Group" transform="translate(7624.951 10879) rotate(180)">
      <path id="Path_3-20" data-name="Path 3" class="cls-1" d="M10,10A4,4,0,0,0,6,6,6,6,0,0,1,0,0H2A4,4,0,0,0,6,4a6,6,0,0,1,6,6,4,4,0,0,0,4,4,6,6,0,0,1,6,6,4,4,0,0,0,4,4v2a6,6,0,0,1-6-6,4,4,0,0,0-4-4A6,6,0,0,1,10,10ZM35.464,8.05l8.486,8.486L42.536,17.95,34.05,9.464,35.464,8.05Z"/>
    </g>
  </g>
  <g id="Group_26" data-name="Group 26" transform="translate(-7096.001 -10853)">
    <g id="Group-21" data-name="Group" transform="translate(7668.951 10905) rotate(180)">
      <path id="Path_3-21" data-name="Path 3" class="cls-1" d="M10,10A4,4,0,0,0,6,6,6,6,0,0,1,0,0H2A4,4,0,0,0,6,4a6,6,0,0,1,6,6,4,4,0,0,0,4,4,6,6,0,0,1,6,6,4,4,0,0,0,4,4v2a6,6,0,0,1-6-6,4,4,0,0,0-4-4A6,6,0,0,1,10,10ZM35.464,8.05l8.486,8.486L42.536,17.95,34.05,9.464,35.464,8.05Z"/>
    </g>
    <g id="Group-22" data-name="Group" transform="translate(7624.951 10905) rotate(180)">
      <path id="Path_3-22" data-name="Path 3" class="cls-1" d="M10,10A4,4,0,0,0,6,6,6,6,0,0,1,0,0H2A4,4,0,0,0,6,4a6,6,0,0,1,6,6,4,4,0,0,0,4,4,6,6,0,0,1,6,6,4,4,0,0,0,4,4v2a6,6,0,0,1-6-6,4,4,0,0,0-4-4A6,6,0,0,1,10,10ZM35.464,8.05l8.486,8.486L42.536,17.95,34.05,9.464,35.464,8.05Z"/>
    </g>
    <g id="Group-23" data-name="Group" transform="translate(7668.951 10879) rotate(180)">
      <path id="Path_3-23" data-name="Path 3" class="cls-1" d="M10,10A4,4,0,0,0,6,6,6,6,0,0,1,0,0H2A4,4,0,0,0,6,4a6,6,0,0,1,6,6,4,4,0,0,0,4,4,6,6,0,0,1,6,6,4,4,0,0,0,4,4v2a6,6,0,0,1-6-6,4,4,0,0,0-4-4A6,6,0,0,1,10,10ZM35.464,8.05l8.486,8.486L42.536,17.95,34.05,9.464,35.464,8.05Z"/>
    </g>
    <g id="Group-24" data-name="Group" transform="translate(7624.951 10879) rotate(180)">
      <path id="Path_3-24" data-name="Path 3" class="cls-1" d="M10,10A4,4,0,0,0,6,6,6,6,0,0,1,0,0H2A4,4,0,0,0,6,4a6,6,0,0,1,6,6,4,4,0,0,0,4,4,6,6,0,0,1,6,6,4,4,0,0,0,4,4v2a6,6,0,0,1-6-6,4,4,0,0,0-4-4A6,6,0,0,1,10,10ZM35.464,8.05l8.486,8.486L42.536,17.95,34.05,9.464,35.464,8.05Z"/>
    </g>
  </g>
  <g id="Group_27" data-name="Group 27" transform="translate(-6999.001 -10853)">
    <g id="Group-25" data-name="Group" transform="translate(7668.951 10905) rotate(180)">
      <path id="Path_3-25" data-name="Path 3" class="cls-1" d="M10,10A4,4,0,0,0,6,6,6,6,0,0,1,0,0H2A4,4,0,0,0,6,4a6,6,0,0,1,6,6,4,4,0,0,0,4,4,6,6,0,0,1,6,6,4,4,0,0,0,4,4v2a6,6,0,0,1-6-6,4,4,0,0,0-4-4A6,6,0,0,1,10,10ZM35.464,8.05l8.486,8.486L42.536,17.95,34.05,9.464,35.464,8.05Z"/>
    </g>
    <g id="Group-26" data-name="Group" transform="translate(7624.951 10905) rotate(180)">
      <path id="Path_3-26" data-name="Path 3" class="cls-1" d="M10,10A4,4,0,0,0,6,6,6,6,0,0,1,0,0H2A4,4,0,0,0,6,4a6,6,0,0,1,6,6,4,4,0,0,0,4,4,6,6,0,0,1,6,6,4,4,0,0,0,4,4v2a6,6,0,0,1-6-6,4,4,0,0,0-4-4A6,6,0,0,1,10,10ZM35.464,8.05l8.486,8.486L42.536,17.95,34.05,9.464,35.464,8.05Z"/>
    </g>
    <g id="Group-27" data-name="Group" transform="translate(7668.951 10879) rotate(180)">
      <path id="Path_3-27" data-name="Path 3" class="cls-1" d="M10,10A4,4,0,0,0,6,6,6,6,0,0,1,0,0H2A4,4,0,0,0,6,4a6,6,0,0,1,6,6,4,4,0,0,0,4,4,6,6,0,0,1,6,6,4,4,0,0,0,4,4v2a6,6,0,0,1-6-6,4,4,0,0,0-4-4A6,6,0,0,1,10,10ZM35.464,8.05l8.486,8.486L42.536,17.95,34.05,9.464,35.464,8.05Z"/>
    </g>
    <g id="Group-28" data-name="Group" transform="translate(7624.951 10879) rotate(180)">
      <path id="Path_3-28" data-name="Path 3" class="cls-1" d="M10,10A4,4,0,0,0,6,6,6,6,0,0,1,0,0H2A4,4,0,0,0,6,4a6,6,0,0,1,6,6,4,4,0,0,0,4,4,6,6,0,0,1,6,6,4,4,0,0,0,4,4v2a6,6,0,0,1-6-6,4,4,0,0,0-4-4A6,6,0,0,1,10,10ZM35.464,8.05l8.486,8.486L42.536,17.95,34.05,9.464,35.464,8.05Z"/>
    </g>
  </g>
</svg>
